SplineFontDB: 3.0
FontName: RWGaramond-BoldItalic
FullName: RW Garamond Bold Italic
FamilyName: RWGaramond
Weight: Bold
Copyright: RW Garamond is a modified version of URW Garamond No. 8. and GaramondX, with changes being made to support OpenType.\n(c) 2000, 2014, (URW)++ Design & Development.\n(c) 2005, Ralf Stubner. \n(c) 2009, Gael Varoquaux.\n(c) 2012-2017, Michael Sharpe.\n(c) 2019, Daniel Benjamin Miller.\nUsage of this font is subject to the Aladdin Free Public License.
Version: 2.00
ItalicAngle: -16
UnderlinePosition: -960
UnderlineWidth: 196
Ascent: 1638
Descent: 410
InvalidEm: 0
LayerCount: 2
Layer: 0 0 "Back" 1
Layer: 1 0 "Fore" 0
StyleMap: 0x0000
FSType: 0
OS2Version: 0
OS2_WeightWidthSlopeOnly: 0
OS2_UseTypoMetrics: 0
CreationTime: 1482010166
ModificationTime: 1556618310
OS2TypoAscent: 0
OS2TypoAOffset: 1
OS2TypoDescent: 0
OS2TypoDOffset: 1
OS2TypoLinegap: 184
OS2WinAscent: 0
OS2WinAOffset: 1
OS2WinDescent: 0
OS2WinDOffset: 1
HheadAscent: 0
HheadAOffset: 1
HheadDescent: 0
HheadDOffset: 1
OS2Vendor: 'PfEd'
Lookup: 1 0 0 "supsSuperscriptlookup" { "supsSuperscriptlookup subtable" ("superior") } ['sups' ('latn' <'dflt' > 'grek' <'dflt' > 'DFLT' <'dflt' > ) ]
Lookup: 1 0 0 "smcpLowercasetoSmallCapitalslookup" { "smcpLowercasetoSmallCapitalslookup subtable"  } ['smcp' ('latn' <'dflt' > 'grek' <'dflt' > 'DFLT' <'dflt' > ) ]
Lookup: 1 0 0 "swshSwashlookup" { "swshSwashlookup subtable" ("swash") } ['swsh' ('latn' <'dflt' > 'grek' <'dflt' > 'DFLT' <'dflt' > ) ]
Lookup: 1 0 0 "cv01CharacterVariants01" { "cv01CharacterVariants01 subtable"  } ['cv01' ('latn' <'dflt' > 'grek' <'dflt' > 'DFLT' <'dflt' > ) ]
Lookup: 1 0 0 "cv02CharacterVariants02" { "cv02CharacterVariants02 subtable"  } ['cv02' ('latn' <'dflt' > 'grek' <'dflt' > 'DFLT' <'dflt' > ) ]
Lookup: 1 0 0 "cv03CharacterVariants03" { "cv03CharacterVariants03 subtable"  } ['cv03' ('latn' <'dflt' > 'grek' <'dflt' > 'DFLT' <'dflt' > ) ]

StartChar: exclam
Encoding: 1 33 1
Width: 528
Flags: HW
HStem: -39 313<183 254> 1382 41G<454 546>
VStem: 74 291<81 152> 330 322<1133 1328>
LayerCount: 2
Fore
SplineSet
307 393 m 1xd0
 246 412 l 1
 330 1133 l 2
 355 1348 402 1423 506 1423 c 0
 586 1423 651 1364 651 1292 c 0
 651 1251 635 1192 590 1083 c 2
 307 393 l 1xd0
227 274 m 0
 309 274 365 215 365 129 c 0
 365 33 299 -39 209 -39 c 0
 127 -39 74 16 74 102 c 0xe0
 74 200 139 274 227 274 c 0
EndSplineSet
EndChar

StartChar: quotedbl
Encoding: 2 34 2
Width: 868
Flags: HMW
HStem: 881 561<298 505 307 505 459 649 459 680>
VStem: 317 250<1241 1385> 659 250<1241 1385>
LayerCount: 2
Fore
SplineSet
528 1241 m 2
 377 905 l 2
 367 885 361 881 338 881 c 2
 307 881 l 2
 289 881 283 885 283 897 c 0
 283 899 283 899 287 932 c 2
 317 1241 l 2
 325 1327 333 1353 358 1382 c 0
 389 1419 436 1442 481 1442 c 0
 528 1442 567 1407 567 1364 c 0
 567 1335 559 1311 528 1241 c 2
870 1241 m 2
 719 905 l 2
 711 885 703 881 680 881 c 2
 649 881 l 2
 631 881 625 885 625 897 c 2
 625 905 l 1
 629 932 l 1
 659 1241 l 2
 667 1327 675 1353 700 1382 c 0
 731 1419 778 1442 823 1442 c 0
 870 1442 909 1407 909 1364 c 0
 909 1335 901 1307 870 1241 c 2
EndSplineSet
EndChar

StartChar: numbersign
Encoding: 3 35 3
Width: 1019
Flags: HMW
HStem: -31 43G<129 135 135 182 484 489 489 537> 412 166<118 313 172 258 172 356 414 614 764 836> 768 168<240 434 303 377 303 477 532 733 885 952> 1339 41G<600 662 662 666 963 1010 1010 1015>
LayerCount: 2
Fore
SplineSet
258 412 m 1
 125 412 l 2
 111 412 98 422 98 436 c 0
 98 442 100 451 104 461 c 2
 133 543 l 2
 139 561 158 578 172 578 c 2
 313 578 l 1
 377 768 l 1
 248 768 l 2
 232 768 221 779 221 793 c 0
 221 799 223 807 225 813 c 2
 256 903 l 2
 262 923 280 936 303 936 c 2
 434 936 l 1
 573 1348 l 2
 581 1375 588 1380 600 1380 c 2
 662 1380 l 2
 670 1380 674 1376 674 1366 c 0
 674 1356 674 1349 672 1343 c 2
 532 936 l 1
 791 936 l 1
 928 1337 l 2
 940 1370 947 1380 963 1380 c 2
 1010 1380 l 2
 1020 1380 1026 1374 1026 1362 c 0
 1026 1352 1024 1345 1022 1337 c 2
 885 936 l 1
 1018 936 l 2
 1030 936 1038 927 1038 913 c 0
 1038 909 1038 905 1036 903 c 2
 997 788 l 2
 991 774 981 768 952 768 c 2
 829 768 l 1
 764 578 l 1
 897 578 l 2
 911 578 920 573 920 565 c 0
 920 561 917 555 913 545 c 2
 881 449 l 2
 873 422 859 412 836 412 c 2
 707 412 l 1
 567 0 l 2
 559 -25 553 -31 537 -31 c 2
 489 -31 l 2
 479 -31 469 -22 469 -16 c 0
 469 -12 471 -6 473 2 c 2
 614 412 l 1
 356 412 l 1
 217 0 l 2
 209 -25 202 -31 182 -31 c 2
 135 -31 l 2
 123 -31 117 -24 117 -12 c 0
 117 -8 117 -2 119 2 c 2
 258 412 l 1
414 578 m 1
 670 578 l 1
 733 768 l 1
 477 768 l 1
 414 578 l 1
EndSplineSet
EndChar

StartChar: dollar
Encoding: 4 36 4
Width: 1019
Flags: HW
HStem: -27 100<397 560 397 560>
VStem: 80 229 313 170<920 1126> 711 170<300 313> 807 203
LayerCount: 2
Fore
SplineSet
281 -129 m 2xf0
 313 -14 l 1
 227 15 194 37 147 100 c 0
 104 157 80 219 80 272 c 0
 80 344 120 389 186 389 c 0
 254 389 280 346 309 180 c 0
 319 135 325 123 348 109 c 1
 492 616 l 1
 359 772 313 864 313 975 c 0
 313 1106 385 1237 496 1309 c 0
 555 1350 607 1366 707 1382 c 1
 727 1456 l 2
 735 1481 745 1491 768 1491 c 2
 801 1491 l 2
 813 1491 819 1485 819 1477 c 0
 819 1473 817 1466 815 1458 c 2
 793 1376 l 1
 926 1347 1010 1260 1010 1149 c 0
 1010 1086 970 1042 913 1042 c 0
 856 1042 832 1074 807 1174 c 0xe8
 795 1223 789 1235 762 1270 c 1
 639 829 l 1
 846 585 881 526 881 420 c 0
 881 180 674 -27 434 -27 c 2
 397 -27 l 1
 367 -137 l 2
 357 -174 353 -178 328 -178 c 2
 295 -178 l 2
 283 -178 274 -170 274 -160 c 0
 274 -152 277 -141 281 -129 c 2xf0
565 567 m 1
 428 84 l 1
 457 76 469 74 492 74 c 0
 629 74 711 147 711 268 c 0xf0
 711 358 680 422 565 567 c 1
567 887 m 1
 682 1294 l 1
 623 1292 594 1282 557 1249 c 0
 506 1206 483 1160 483 1094 c 0
 483 1026 499 987 567 887 c 1
EndSplineSet
EndChar

StartChar: percent
Encoding: 5 37 5
Width: 1699
Flags: HW
HStem: -37 84<1168 1225 1168 1308> 580 84<1303 1367> 641 84<431 487 431 572> 1276 84<565 629>
VStem: 207 154<846 894 816 984> 346 109<-57 -57> 705 156<1095 1159 963 1186> 944 154<164 211 136 298> 1335 109<1395 1395> 1442 156<403 468 276 493>
LayerCount: 2
Fore
SplineSet
1335 1395 m 1x9780
 1444 1395 l 1
 455 -57 l 1
 346 -57 l 1
 1335 1395 l 1x9780
1335 664 m 0xd380
 1487 664 1597 547 1597 389 c 0xd340
 1597 164 1413 -37 1202 -37 c 0
 1055 -37 944 82 944 246 c 0
 944 350 999 473 1081 555 c 0
 1155 627 1241 664 1335 664 c 0xd380
1333 580 m 0
 1272 580 1221 537 1174 449 c 0
 1133 371 1098 246 1098 176 c 0
 1098 96 1137 47 1200 47 c 0
 1249 47 1292 74 1327 123 c 0
 1397 219 1442 353 1442 455 c 0
 1442 531 1401 580 1333 580 c 0
598 1360 m 0
 750 1360 860 1241 860 1077 c 0
 860 848 676 641 469 641 c 0
 317 641 207 762 207 930 c 0xbb
 207 1039 262 1165 344 1249 c 0
 418 1323 504 1360 598 1360 c 0
596 1276 m 0
 535 1276 483 1231 436 1141 c 0
 395 1061 360 930 360 858 c 0
 360 774 400 725 463 725 c 0
 512 725 555 752 590 803 c 0
 660 903 705 1043 705 1147 c 0
 705 1225 662 1276 596 1276 c 0
EndSplineSet
Substitution2: "cv04CharacterVariants04 subtable" percent.cv01
EndChar

StartChar: ampersand
Encoding: 6 38 6
Width: 1435
Flags: HMW
HStem: -43 162<687 712> 774 172<792 841 783 851> 1315 82<737 825>
VStem: 152 213<406 458> 397 195<1052 1133 1027 1191> 1069 104<349 406 330 411>
LayerCount: 2
Fore
SplineSet
1473 643 m 1
 1126 543 l 1
 1163 473 1174 436 1174 375 c 0
 1174 285 1136 196 1075 133 c 0
 966 24 795 -43 629 -43 c 0
 353 -43 152 133 152 379 c 0
 152 537 228 676 373 782 c 0
 416 813 461 838 549 881 c 1
 438 940 397 1002 397 1102 c 0
 397 1280 580 1397 852 1397 c 0
 1042 1397 1143 1343 1143 1245 c 0
 1143 1182 1101 1139 1042 1139 c 0
 993 1139 987 1145 930 1235 c 0
 895 1290 854 1315 797 1315 c 0
 678 1315 592 1206 592 1059 c 0
 592 996 610 944 649 913 c 1
 715 936 762 946 805 946 c 0
 877 946 926 913 926 862 c 0
 926 807 885 774 817 774 c 0
 766 774 735 782 649 825 c 2
 627 838 l 1
 471 772 365 619 365 457 c 0
 365 355 411 256 485 199 c 0
 551 152 647 119 727 119 c 0
 805 119 901 152 971 201 c 0
 1037 246 1069 309 1069 389 c 0
 1069 432 1061 459 1036 506 c 1
 743 389 l 1
 702 535 l 1
 1032 631 1182 680 1430 782 c 1
 1473 643 l 1
EndSplineSet
EndChar

StartChar: quoteright
Encoding: 341 8217 7
Width: 528
Flags: HMW
HStem: 852 70<211 223> 1382 41G<412 508>
VStem: 477 162<1071 1265>
LayerCount: 2
Fore
SplineSet
211 852 m 1
 223 922 l 1
 407 973 477 1026 477 1116 c 0
 477 1157 461 1176 412 1196 c 0
 338 1227 317 1252 317 1305 c 0
 317 1375 373 1423 451 1423 c 0
 566 1423 639 1333 639 1196 c 0
 639 1090 586 1010 469 940 c 0
 399 897 332 875 211 852 c 1
EndSplineSet
EndChar

StartChar: parenleft
Encoding: 8 40 8
Width: 604
Flags: HMW
VStem: 80 217<311 463 180 660>
LayerCount: 2
Fore
SplineSet
475 -330 m 1
 408 -377 l 1
 199 -135 80 168 80 455 c 0
 80 867 336 1249 819 1556 c 1
 872 1491 l 1
 671 1356 553 1223 449 1024 c 0
 347 821 297 600 297 326 c 0
 297 35 336 -105 475 -330 c 1
EndSplineSet
EndChar

StartChar: parenright
Encoding: 9 41 9
Width: 604
Flags: HMW
VStem: 348 217<716 868 519 997>
LayerCount: 2
Fore
SplineSet
170 1507 m 1
 238 1556 l 1
 447 1316 565 1012 565 725 c 0
 565 313 305 -76 -174 -377 c 1
 -227 -311 l 1
 -28 -176 93 -43 195 156 c 0
 299 357 348 580 348 852 c 0
 348 1143 309 1286 170 1507 c 1
EndSplineSet
EndChar

StartChar: asterisk
Encoding: 10 42 10
Width: 1019
Flags: HW
HStem: 842 41G<557 557 676 681> 858 242<967 1005 966 1007> 1376 41G<672 740>
VStem: 236 332<764 907 903 1176> 606 240<1314 1341 1297 1350> 623 240<608 644>
LayerCount: 2
Fore
SplineSet
737 1012 m 2x70
 885 1073 l 2
 936 1093 954 1100 977 1100 c 0
 1032 1100 1069 1051 1069 977 c 0
 1069 903 1034 858 979 858 c 0
 954 858 934 865 895 881 c 2
 737 948 l 2
 710 960 711 961 711 975 c 2
 711 987 l 2
 711 999 710 1002 737 1012 c 2x70
623 1104 m 2x34
 608 1264 l 2
 606 1287 606 1307 606 1321 c 0
 606 1378 643 1417 700 1417 c 0
 780 1417 846 1370 846 1313 c 0x38
 846 1282 832 1255 795 1212 c 2
 682 1083 l 2
 666 1067 665 1065 659 1065 c 0
 657 1065 653 1065 649 1067 c 2
 637 1071 l 2
 625 1075 625 1077 623 1104 c 2x34
516 1004 m 2
 360 1042 l 2
 264 1065 236 1088 236 1143 c 0
 236 1209 303 1286 360 1286 c 0
 399 1286 430 1261 465 1202 c 2
 553 1055 l 2
 559 1045 563 1034 563 1030 c 0
 563 1028 561 1024 559 1020 c 2
 551 1010 l 2
 545 1002 543 999 537 999 c 0
 535 999 534 1000 516 1004 c 2
557 883 m 2xb0
 473 745 l 2
 428 669 408 653 365 653 c 0
 306 653 236 731 236 797 c 0
 236 846 270 877 352 895 c 2
 518 934 l 1
 535 936 l 2
 537 938 541 938 543 938 c 0
 547 938 551 936 555 928 c 2
 563 918 l 2
 565 914 567 909 567 905 c 0
 567 901 565 897 557 883 c 2xb0
700 864 m 2
 805 743 l 2
 852 688 862 668 862 637 c 0
 862 580 793 528 715 528 c 0
 656 528 623 569 623 637 c 0xb4
 623 651 623 662 625 674 c 2
 639 844 l 2
 643 873 643 873 657 879 c 2
 668 881 l 2
 672 883 674 883 678 883 c 0
 684 883 686 880 700 864 c 2
EndSplineSet
EndChar

StartChar: plus
Encoding: 11 43 11
Width: 1699
Flags: HMW
HStem: -6 43G<779 786 786 911> 438 166<339 766 348 766 932 1350>
VStem: 766 166<20 438 604 1020>
LayerCount: 2
Fore
SplineSet
766 604 m 1
 766 1020 l 2
 766 1038 772 1047 786 1047 c 2
 911 1047 l 2
 925 1047 932 1038 932 1020 c 2
 932 604 l 1
 1350 604 l 2
 1366 604 1374 598 1374 584 c 2
 1374 459 l 2
 1374 445 1366 438 1350 438 c 2
 932 438 l 1
 932 20 l 2
 932 2 925 -6 911 -6 c 2
 786 -6 l 2
 772 -6 766 2 766 20 c 2
 766 438 l 1
 348 438 l 2
 330 438 322 445 322 459 c 2
 322 584 l 2
 322 598 330 604 348 604 c 2
 766 604 l 1
EndSplineSet
EndChar

StartChar: comma
Encoding: 12 44 12
Width: 528
Flags: HMW
HStem: -285 61<47 61>
VStem: 285 143<-76 128>
LayerCount: 2
Fore
SplineSet
61 -285 m 1
 47 -223 l 1
 211 -178 285 -119 285 -33 c 0
 285 8 268 26 219 49 c 0
 143 80 123 105 123 160 c 0
 123 230 176 276 254 276 c 0
 354 276 428 189 428 68 c 0
 428 -36 366 -139 266 -207 c 0
 211 -244 151 -267 61 -285 c 1
EndSplineSet
EndChar

StartChar: hyphen
Encoding: 13 45 13
Width: 528
Flags: HMW
HStem: 408 147<73 459 92 455>
VStem: 57 438<516 522 522 532 516 538>
LayerCount: 2
Fore
SplineSet
92 555 m 2
 459 555 l 2
 492 555 496 552 496 532 c 2
 496 516 l 1
 494 438 l 2
 494 407 494 408 455 408 c 2
 88 408 l 2
 57 408 57 407 57 444 c 2
 57 522 l 2
 57 553 59 555 92 555 c 2
EndSplineSet
EndChar

StartChar: period
Encoding: 14 46 14
Width: 528
Flags: HMW
HStem: -31 301<222 288>
VStem: 123 266<80 159>
LayerCount: 2
Fore
SplineSet
260 270 m 0
 334 270 389 207 389 123 c 0
 389 37 328 -31 248 -31 c 0
 176 -31 123 33 123 117 c 0
 123 201 184 270 260 270 c 0
EndSplineSet
EndChar

StartChar: slash
Encoding: 15 47 15
Width: 1019
Flags: HMW
HStem: 1382 41G<1087 1237 1237 1237>
VStem: 14 147<-100 -100> 1087 150<1423 1423>
LayerCount: 2
Fore
SplineSet
1087 1423 m 1
 1237 1423 l 1
 162 -100 l 1
 14 -100 l 1
 1087 1423 l 1
EndSplineSet
EndChar

StartChar: zero
Encoding: 16 48 16
Width: 1019
Flags: HMW
HStem: -35 219<440 520> 1151 219<603 674>
VStem: 109 123<439 456> 895 121<859 896>
LayerCount: 2
Fore
SplineSet
707 1370 m 0
 799 1370 873 1339 926 1276 c 0
 985 1202 1016 1093 1016 950 c 0
 1016 768 979 588 909 416 c 0
 788 117 625 -35 416 -35 c 0
 318 -35 242 0 193 68 c 0
 138 144 109 246 109 375 c 0
 109 537 141 707 207 883 c 0
 326 1209 492 1370 707 1370 c 0
639 1151 m 0
 567 1151 501 1126 440 1075 c 0
 374 1020 324 934 283 811 c 0
 248 707 231 598 231 489 c 0
 231 389 254 311 303 256 c 0
 346 209 403 184 477 184 c 0
 604 184 704 252 776 385 c 0
 854 528 895 680 895 842 c 0
 895 951 866 1032 811 1087 c 0
 768 1130 709 1151 639 1151 c 0
EndSplineSet
Substitution2: "onumOldstyleFigureslookup subtable" zero.onum
Substitution2: "supsSuperscriptlookup subtable" zerosuperior
EndChar

StartChar: one
Encoding: 17 49 17
Width: 1019
Flags: HMW
HStem: -10 80<176 231 197 231 197 238 766 783> 1333 41G<829 938 938 938>
LayerCount: 2
Fore
SplineSet
829 1374 m 1
 938 1374 l 1
 657 356 l 2
 624 237 608 164 608 135 c 0
 608 108 620 90 647 82 c 0
 667 76 714 70 782 70 c 0
 802 70 813 63 811 53 c 2
 809 43 l 1
 809 31 l 1
 805 14 l 2
 803 6 801 -2 799 -4 c 0
 797 -8 788 -10 778 -10 c 0
 753 -10 721 -8 680 -6 c 0
 604 -2 531 0 459 0 c 0
 416 0 342 -4 238 -10 c 2
 188 -10 l 2
 163 -10 154 -6 154 0 c 0
 154 2 154 6 156 14 c 2
 164 47 l 2
 166 55 168 64 172 66 c 0
 176 68 189 70 205 70 c 0
 258 70 299 80 330 98 c 0
 353 110 371 131 383 158 c 0
 395 183 408 215 418 256 c 2
 666 1157 l 1
 646 1149 598 1127 524 1092 c 0
 452 1059 411 1040 403 1040 c 0
 399 1040 391 1049 387 1061 c 2
 379 1083 l 1
 373 1092 l 2
 371 1096 369 1102 369 1102 c 2
 369 1104 383 1112 412 1124 c 0
 590 1198 731 1282 829 1374 c 1
EndSplineSet
Substitution2: "onumOldstyleFigureslookup subtable" one.onum
Substitution2: "cv01CharacterVariants01 subtable" one.cv01
Substitution2: "supsSuperscriptlookup subtable" onesuperior
EndChar

StartChar: two
Encoding: 18 50 18
Width: 1019
Flags: HMW
HStem: -10 209<802 889> 1202 172<481 677>
VStem: 752 248<992 1002>
LayerCount: 2
Fore
SplineSet
291 190 m 1
 864 199 l 1
 889 199 l 2
 901 199 907 192 907 184 c 2
 907 184 903 176 899 162 c 2
 848 18 l 2
 844 8 838 -2 836 -4 c 0
 830 -8 821 -10 809 -10 c 0
 795 -10 775 -8 748 -8 c 0
 635 -2 523 0 412 0 c 0
 383 0 287 -2 117 -8 c 0
 90 -8 64 -10 37 -10 c 0
 19 -10 8 -6 8 2 c 0
 8 4 10 15 14 29 c 2
 25 68 l 1
 332 332 l 2
 391 383 461 459 547 559 c 0
 625 649 678 725 709 791 c 0
 738 854 752 916 752 971 c 0
 752 1034 731 1088 690 1133 c 0
 647 1180 590 1202 518 1202 c 0
 444 1202 379 1173 322 1120 c 0
 308 1108 287 1086 260 1053 c 0
 252 1043 246 1036 240 1036 c 0
 236 1036 227 1041 219 1049 c 2
 197 1069 l 2
 189 1077 182 1083 182 1085 c 0
 182 1087 184 1094 188 1098 c 2
 188 1098 193 1104 199 1112 c 0
 211 1130 229 1155 260 1190 c 0
 366 1313 490 1374 629 1374 c 0
 725 1374 806 1347 874 1292 c 0
 911 1263 941 1231 961 1188 c 0
 986 1139 999 1091 999 1044 c 0
 999 940 956 830 870 711 c 0
 813 631 719 535 586 420 c 0
 506 352 438 295 377 252 c 2
 291 190 l 1
EndSplineSet
Substitution2: "onumOldstyleFigureslookup subtable" two.onum
Substitution2: "supsSuperscriptlookup subtable" twosuperior
EndChar

StartChar: three
Encoding: 19 51 19
Width: 1019
Flags: HW
HStem: -35 102<141 366> 657 76 1229 141<510 679>
VStem: 639 258<443 500> 707 236<1027 1160>
LayerCount: 2
Fore
SplineSet
659 807 m 1xe8
 720 784 768 760 801 731 c 0
 864 676 897 602 897 512 c 0
 897 375 827 254 692 152 c 0
 618 97 534 51 446 18 c 0
 350 -17 260 -35 174 -35 c 0
 108 -35 57 -21 18 4 c 0
 -15 24 -31 55 -31 98 c 0
 -31 129 -22 154 -6 174 c 0
 10 194 32 207 61 207 c 0
 88 207 112 196 135 178 c 0
 141 174 162 154 195 121 c 0
 230 84 273 68 328 68 c 0
 404 68 471 97 528 156 c 0
 602 232 639 325 639 444 c 0xf0
 639 555 607 621 539 641 c 0
 514 647 463 655 385 657 c 0
 373 657 362 666 358 678 c 2
 352 705 l 2
 352 709 350 715 350 719 c 0
 350 725 357 731 369 733 c 0
 422 747 473 770 524 799 c 0
 581 834 626 868 657 907 c 0
 690 950 707 1000 707 1055 c 0
 707 1106 693 1149 662 1180 c 0
 631 1213 590 1229 543 1229 c 0
 477 1229 415 1198 358 1137 c 0
 333 1112 317 1100 313 1100 c 0
 309 1100 305 1104 297 1112 c 2
 268 1139 l 2
 260 1147 256 1153 256 1155 c 0
 256 1159 274 1184 313 1223 c 0
 407 1321 516 1370 637 1370 c 0
 721 1370 791 1352 848 1309 c 0
 911 1264 942 1200 942 1120 c 0
 942 1057 926 1006 891 963 c 0
 846 908 765 856 659 807 c 1xe8
EndSplineSet
Substitution2: "onumOldstyleFigureslookup subtable" three.onum
Substitution2: "supsSuperscriptlookup subtable" threesuperior
EndChar

StartChar: four
Encoding: 20 52 20
Width: 1019
Flags: HMW
HStem: -10 43G<446 446 446 664> 367 174<86 598 219 551 219 768 813 930> 1333 41G<868 1001 1001 1012>
VStem: 446 217<-10 -10>
LayerCount: 2
Fore
SplineSet
446 -10 m 1
 551 367 l 1
 96 367 l 2
 76 367 61 367 57 369 c 0
 49 371 45 379 45 387 c 0
 45 389 47 402 51 420 c 2
 61 461 l 2
 67 490 74 508 76 512 c 0
 78 518 88 531 104 547 c 2
 868 1374 l 1
 1001 1374 l 2
 1021 1374 1034 1370 1034 1360 c 0
 1034 1358 1032 1345 1028 1331 c 2
 813 541 l 1
 975 541 l 2
 995 541 1006 534 1006 526 c 0
 1006 520 1003 510 1001 500 c 2
 973 395 l 2
 969 383 965 373 963 371 c 0
 959 369 948 367 930 367 c 2
 768 367 l 1
 664 -10 l 1
 446 -10 l 1
598 541 m 1
 764 1130 l 1
 219 541 l 1
 598 541 l 1
EndSplineSet
Substitution2: "onumOldstyleFigureslookup subtable" four.onum
Substitution2: "supsSuperscriptlookup subtable" foursuperior
EndChar

StartChar: five
Encoding: 21 53 21
Width: 1019
Flags: HMW
HStem: -27 43G<181 210> 1161 197<514 1032 522 997>
VStem: 664 242<488 541>
LayerCount: 2
Fore
SplineSet
514 1161 m 1
 463 1055 l 1
 561 1004 633 965 680 932 c 0
 727 901 770 864 811 821 c 0
 874 755 905 671 905 573 c 0
 905 403 815 260 637 137 c 0
 553 80 458 35 352 2 c 0
 289 -16 233 -27 186 -27 c 0
 176 -27 170 -18 168 -6 c 2
 160 27 l 1
 156 43 l 1
 156 45 l 2
 156 49 162 53 168 55 c 0
 283 88 379 131 457 180 c 0
 520 221 571 275 612 338 c 0
 647 391 664 449 664 510 c 0
 664 571 641 627 596 676 c 0
 557 719 512 755 459 786 c 0
 426 804 387 827 338 854 c 0
 305 870 289 881 289 885 c 2
 303 913 l 1
 522 1358 l 1
 1032 1358 l 2
 1055 1358 1067 1351 1067 1341 c 0
 1067 1339 1063 1331 1057 1313 c 2
 997 1161 l 1
 514 1161 l 1
EndSplineSet
Substitution2: "onumOldstyleFigureslookup subtable" five.onum
Substitution2: "supsSuperscriptlookup subtable" fivesuperior
EndChar

StartChar: six
Encoding: 22 54 22
Width: 1019
Flags: HMW
HStem: -35 82<433 478> 645 102<501 695> 1307 72<995 1034>
VStem: 92 209<323 340 248 525> 702 258<380 483 380 487>
LayerCount: 2
Fore
SplineSet
369 653 m 1
 463 716 557 748 649 748 c 0
 741 748 820 716 879 655 c 0
 934 600 961 526 961 440 c 0
 961 319 917 215 831 127 c 0
 778 72 715 31 641 2 c 0
 578 -23 512 -35 444 -35 c 0
 344 -35 266 -4 209 55 c 0
 131 135 92 247 92 397 c 0
 92 653 205 878 426 1075 c 0
 561 1194 723 1286 913 1354 c 0
 958 1370 989 1378 1001 1378 c 0
 1009 1378 1018 1372 1024 1360 c 2
 1034 1335 l 2
 1038 1325 1042 1319 1042 1317 c 0
 1042 1315 1038 1309 1034 1307 c 0
 1032 1307 1007 1292 958 1272 c 0
 813 1206 684 1114 573 991 c 0
 477 882 410 770 369 653 c 1
535 645 m 0
 467 645 414 618 377 563 c 0
 326 487 301 396 301 285 c 0
 301 211 315 154 342 111 c 0
 369 68 408 47 459 47 c 0
 518 47 571 74 614 131 c 0
 673 207 702 299 702 408 c 0
 702 568 648 645 535 645 c 0
EndSplineSet
Substitution2: "onumOldstyleFigureslookup subtable" six.onum
Substitution2: "supsSuperscriptlookup subtable" sixsuperior
EndChar

StartChar: seven
Encoding: 23 55 23
Width: 1019
Flags: HMW
HStem: -27 43G<322 322> 1151 207<241 1128 365 827>
LayerCount: 2
Fore
SplineSet
1128 1358 m 1
 1143 1307 l 1
 322 -27 l 1
 205 45 l 1
 852 1106 l 2
 862 1120 866 1131 866 1135 c 0
 866 1145 854 1151 827 1151 c 2
 254 1151 l 2
 227 1151 215 1155 215 1165 c 0
 215 1167 221 1178 231 1198 c 2
 299 1327 l 2
 307 1341 315 1352 319 1354 c 0
 323 1356 340 1358 365 1358 c 2
 1128 1358 l 1
EndSplineSet
Substitution2: "onumOldstyleFigureslookup subtable" seven.onum
Substitution2: "supsSuperscriptlookup subtable" sevensuperior
EndChar

StartChar: eight
Encoding: 24 56 24
Width: 1019
Flags: HW
HStem: -35 82<457 516 457 549> 1290 80<645 688>
VStem: 102 172<249 311 249 322> 252 219<964 1120> 696 244<283 312> 856 170<1023 1106>
LayerCount: 2
Fore
SplineSet
731 705 m 1xd4
 760 676 l 1
 780 657 l 2
 833 604 870 561 893 524 c 0
 924 475 940 414 940 340 c 0
 940 225 895 134 807 66 c 0
 719 -2 612 -35 485 -35 c 0
 354 -35 254 2 184 72 c 0
 129 125 102 195 102 281 c 0xe8
 102 363 127 426 176 479 c 0
 227 532 317 591 444 659 c 1
 391 712 352 753 332 782 c 0
 279 850 252 924 252 1004 c 0
 252 1104 284 1187 356 1255 c 0
 395 1294 447 1323 506 1343 c 0
 559 1361 617 1370 674 1370 c 0
 768 1370 848 1347 911 1300 c 0
 989 1243 1026 1167 1026 1073 c 0
 1026 973 979 885 889 811 c 0
 848 778 797 744 731 705 c 1xd4
674 766 m 2
 680 770 686 778 694 784 c 0
 800 868 856 963 856 1069 c 0
 856 1143 836 1200 793 1241 c 0
 758 1274 715 1290 662 1290 c 0
 611 1290 567 1274 532 1241 c 0
 491 1202 471 1151 471 1090 c 0xd4
 471 1037 483 987 512 944 c 0
 541 901 580 856 625 813 c 2
 674 766 l 2
510 600 m 1
 489 590 l 1
 457 571 l 2
 400 538 354 495 319 442 c 0
 288 393 274 340 274 283 c 0
 274 215 295 158 336 113 c 0
 377 70 426 47 487 47 c 0
 544 47 592 63 629 98 c 0
 674 141 696 201 696 281 c 0xe8
 696 344 680 399 649 446 c 0
 626 481 594 518 553 557 c 2
 510 600 l 1
EndSplineSet
Substitution2: "onumOldstyleFigureslookup subtable" eight.onum
Substitution2: "supsSuperscriptlookup subtable" eightsuperior
EndChar

StartChar: nine
Encoding: 25 57 25
Width: 1019
Flags: HMW
HStem: -20 72<90 127> 612 102<446 639> 1311 82<662 702>
VStem: 176 258<873 980> 838 207<811 1117>
LayerCount: 2
Fore
SplineSet
127 -20 m 1
 90 51 l 1
 237 104 377 188 502 303 c 0
 588 385 656 471 705 561 c 0
 723 596 745 646 768 705 c 1
 727 678 695 659 668 647 c 0
 619 624 560 612 494 612 c 0
 400 612 323 641 264 696 c 0
 205 751 176 828 176 920 c 0
 176 1041 219 1147 303 1233 c 0
 350 1282 409 1321 481 1350 c 0
 553 1379 624 1393 698 1393 c 0
 794 1393 875 1359 934 1298 c 0
 1008 1218 1044 1110 1044 965 c 0
 1044 658 893 400 590 193 c 0
 447 97 295 23 127 -20 c 1
680 1311 m 0
 619 1311 565 1282 520 1225 c 0
 463 1151 434 1061 434 952 c 0
 434 792 491 715 604 715 c 0
 674 715 727 740 762 793 c 0
 785 828 803 871 815 920 c 0
 829 973 838 1026 838 1077 c 0
 838 1157 821 1219 786 1262 c 0
 759 1295 725 1311 680 1311 c 0
EndSplineSet
Substitution2: "onumOldstyleFigureslookup subtable" nine.onum
Substitution2: "supsSuperscriptlookup subtable" ninesuperior
EndChar

StartChar: colon
Encoding: 26 58 26
Width: 528
Flags: HW
HStem: -31 301<153 218> 664 301<340 407>
VStem: 53 266<80 159> 242 266<774 852>
LayerCount: 2
Fore
SplineSet
190 270 m 0xe0
 264 270 319 207 319 123 c 0
 319 37 258 -31 178 -31 c 0
 106 -31 53 33 53 117 c 0
 53 201 114 270 190 270 c 0xe0
377 965 m 0
 453 965 508 901 508 817 c 0
 508 731 447 664 367 664 c 0
 295 664 242 727 242 809 c 0xd0
 242 895 303 965 377 965 c 0
EndSplineSet
EndChar

StartChar: semicolon
Encoding: 27 59 27
Width: 528
Flags: HW
HStem: -285 61<18 33> 664 301<319 385>
VStem: 221 264<774 852> 256 143<-76 128>
LayerCount: 2
Fore
SplineSet
33 -285 m 1xd0
 18 -223 l 1
 182 -178 256 -119 256 -33 c 0
 256 8 239 26 190 49 c 0
 114 80 94 105 94 160 c 0
 94 230 147 276 225 276 c 0
 325 276 399 189 399 68 c 0
 399 -36 338 -139 238 -207 c 0
 183 -244 123 -267 33 -285 c 1xd0
356 965 m 0
 430 965 485 901 485 817 c 0
 485 731 424 664 346 664 c 0
 274 664 221 725 221 809 c 0xe0
 221 895 282 965 356 965 c 0
EndSplineSet
EndChar

StartChar: less
Encoding: 28 60 28
Width: 2039
Flags: HW
LayerCount: 2
Fore
SplineSet
1632 1262 m 1
 1632 1069 l 1
 657 633 l 1
 1632 199 l 1
 1632 4 l 1
 408 555 l 1
 408 713 l 1
 1632 1262 l 1
EndSplineSet
EndChar

StartChar: equal
Encoding: 29 61 29
Width: 1699
Flags: HMW
HStem: 254 166<339 1346 348 1346> 584 166<339 1346 348 1346>
LayerCount: 2
Fore
SplineSet
322 274 m 2
 322 399 l 2
 322 413 330 420 348 420 c 2
 1346 420 l 2
 1364 420 1372 413 1372 399 c 2
 1372 274 l 2
 1372 260 1364 254 1346 254 c 2
 348 254 l 2
 330 254 322 260 322 274 c 2
322 604 m 2
 322 729 l 2
 322 743 330 750 348 750 c 2
 1346 750 l 2
 1364 750 1372 743 1372 729 c 2
 1372 604 l 2
 1372 590 1364 584 1346 584 c 2
 348 584 l 2
 330 584 322 590 322 604 c 2
EndSplineSet
EndChar

StartChar: greater
Encoding: 30 62 30
Width: 2039
Flags: HW
LayerCount: 2
Fore
SplineSet
408 1262 m 1
 1632 713 l 1
 1632 555 l 1
 408 4 l 1
 408 199 l 1
 1382 633 l 1
 408 1069 l 1
 408 1262 l 1
EndSplineSet
EndChar

StartChar: question
Encoding: 31 63 31
Width: 792
Flags: HW
HStem: -39 313<297 356> 393 182<526 545> 1280 143<481 690>
VStem: 180 293<89 143> 219 104<646 678 624 761> 760 106<1147 1191 1048 1208>
LayerCount: 2
Fore
SplineSet
535 575 m 0xec
 586 575 623 538 623 485 c 0
 623 430 580 393 510 393 c 0
 367 393 219 563 219 729 c 0
 219 792 241 852 276 891 c 0
 337 957 346 958 590 1036 c 0
 713 1075 760 1114 760 1180 c 0
 760 1237 717 1280 664 1280 c 0
 641 1280 631 1275 584 1257 c 0
 539 1237 502 1227 475 1227 c 0
 422 1227 383 1264 383 1317 c 0
 383 1383 438 1423 524 1423 c 0
 723 1423 866 1286 866 1096 c 0
 866 1000 823 913 745 864 c 0
 708 837 649 817 520 780 c 0
 368 737 324 706 324 649 c 0
 324 598 363 567 426 567 c 0
 438 567 459 569 479 571 c 0
 504 573 519 575 535 575 c 0xec
342 274 m 0
 422 274 473 221 473 139 c 0
 473 39 403 -39 309 -39 c 0
 229 -39 180 10 180 92 c 0xf4
 180 194 252 274 342 274 c 0
EndSplineSet
EndChar

StartChar: at
Encoding: 32 64 32
Width: 1699
Flags: HW
HStem: -322 156<813 935> -39 174<1200 1250 1200 1293> -18 113<720 761> 891 113<989 1036 926 1054> 1163 156<905 1182>
VStem: 18 221<311 497 309 663> 426 217<193 262 174 361> 1573 164<614 823>
LayerCount: 2
Fore
SplineSet
1522 31 m 1xdf
 1614 -35 l 1
 1501 -125 1450 -158 1352 -203 c 0
 1186 -281 1016 -322 854 -322 c 0
 629 -322 408 -241 248 -104 c 0
 101 23 18 209 18 414 c 0
 18 912 457 1319 989 1319 c 0
 1425 1319 1737 1049 1737 668 c 0
 1737 318 1440 -39 1147 -39 c 0xdf
 1063 -39 1014 -4 983 84 c 1
 866 4 805 -18 717 -18 c 0xbf
 549 -18 426 107 426 279 c 0
 426 445 504 645 627 801 c 0
 733 932 860 1004 991 1004 c 0
 1081 1004 1138 966 1212 860 c 1
 1251 950 l 1
 1456 950 l 1
 1174 223 l 2
 1168 205 1163 188 1163 176 c 0
 1163 153 1185 135 1214 135 c 0
 1286 135 1386 201 1456 295 c 0
 1528 395 1573 545 1573 684 c 0
 1573 963 1344 1163 1020 1163 c 0
 791 1163 586 1071 436 899 c 0
 305 745 240 586 240 408 c 0
 240 211 319 57 475 -47 c 0
 592 -125 737 -166 889 -166 c 0
 1090 -166 1276 -108 1522 31 c 1xdf
1022 891 m 0
 956 891 891 834 825 723 c 0
 725 549 643 318 643 207 c 0
 643 141 689 94 752 94 c 0xbf
 815 94 889 155 952 264 c 0
 1056 440 1133 653 1133 768 c 0
 1133 840 1085 891 1022 891 c 0
EndSplineSet
EndChar

StartChar: A
Encoding: 33 65 33
Width: 1511
Flags: HMW
HStem: -6 74 549 102<530 530 530 961 475 530>
LayerCount: 2
Fore
SplineSet
961 549 m 1
 475 549 l 1
 383 379 l 2
 311 244 279 170 279 137 c 0
 279 125 285 110 293 102 c 0
 316 79 316 80 416 68 c 0
 428 66 434 61 434 53 c 0
 434 49 432 39 430 35 c 2
 424 14 l 2
 418 -4 413 -10 399 -10 c 2
 279 -6 l 2
 234 -2 201 0 195 0 c 0
 189 0 156 -2 111 -6 c 2
 -14 -10 l 2
 -34 -10 -43 -4 -43 6 c 0
 -43 10 -43 19 -41 25 c 2
 -37 45 l 2
 -31 68 -29 70 8 70 c 0
 74 74 92 94 205 287 c 2
 883 1444 l 1
 953 1450 1032 1460 1067 1470 c 1
 1241 231 l 2
 1259 86 1272 72 1368 68 c 0
 1415 66 1417 65 1417 55 c 0
 1417 53 1417 45 1415 39 c 2
 1411 16 l 2
 1407 -4 1400 -10 1380 -10 c 0
 1351 -10 1256 -8 1221 -6 c 0
 1164 -2 1122 0 1110 0 c 0
 1098 0 1059 -2 1010 -6 c 0
 973 -8 879 -12 846 -12 c 0
 828 -12 817 -8 817 2 c 0
 817 4 817 4 821 18 c 2
 827 45 l 2
 829 57 832 64 838 68 c 2
 852 72 l 1
 895 72 l 2
 965 74 999 103 999 160 c 0
 999 183 999 182 987 299 c 2
 961 549 l 1
946 649 m 1
 874 1266 l 1
 530 651 l 1
 946 649 l 1
EndSplineSet
EndChar

StartChar: B
Encoding: 34 66 34
Width: 1284
Flags: HW
HStem: -10 74 -10 90<514 642 487 730> 709 92<575 602 575 602> 1364 92<773 876>
VStem: 915 270<339 469 296 499> 1036 236<1074 1219>
LayerCount: 2
Fore
SplineSet
285 1366 m 2xb8
 285 1395 l 2
 287 1415 292 1421 319 1425 c 0
 512 1450 598 1456 745 1456 c 0
 1099 1456 1272 1347 1272 1128 c 0xb4
 1272 1001 1209 897 1100 840 c 0
 1026 803 971 787 840 760 c 1
 967 746 1033 717 1096 651 c 0
 1153 596 1186 512 1186 426 c 0
 1186 166 924 -10 537 -10 c 0x78
 492 -10 434 -8 375 -4 c 0
 316 -2 271 0 244 0 c 0
 213 0 67 -4 47 -6 c 0
 14 -8 -17 -10 -27 -10 c 0
 -41 -10 -45 -6 -45 6 c 2
 -45 16 l 1
 -41 41 l 2
 -39 57 -39 59 -33 63 c 0
 -27 67 -25 68 18 74 c 0
 104 84 127 110 176 272 c 2
 430 1126 l 2
 463 1230 471 1270 471 1303 c 0
 471 1336 449 1354 408 1354 c 0
 392 1354 367 1349 338 1343 c 0
 328 1341 315 1339 309 1339 c 0
 291 1339 285 1348 285 1366 c 2xb8
575 801 m 1
 602 801 l 2
 676 801 738 809 797 825 c 0
 940 868 1036 999 1036 1149 c 0
 1036 1288 953 1364 799 1364 c 0
 748 1364 746 1364 723 1290 c 2
 575 801 l 1
553 709 m 1
 414 221 l 2
 398 162 395 155 395 143 c 0
 395 102 444 80 530 80 c 0
 753 80 915 233 915 444 c 0x78
 915 553 858 643 766 678 c 0
 703 701 651 709 553 709 c 1
EndSplineSet
EndChar

StartChar: C
Encoding: 35 67 35
Width: 1511
Flags: HMW
HStem: -41 90<716 915> 1366 90<889 1104>
VStem: 168 268<425 784 397 855>
LayerCount: 2
Fore
SplineSet
1565 1264 m 1
 1473 1022 l 2
 1463 993 1462 993 1456 993 c 2
 1450 993 l 1
 1436 997 l 1
 1405 1001 l 2
 1385 1005 1378 1010 1378 1020 c 0
 1378 1026 1380 1032 1382 1042 c 0
 1392 1069 1401 1116 1401 1143 c 0
 1401 1211 1370 1257 1300 1300 c 0
 1237 1341 1147 1366 1061 1366 c 0
 717 1366 436 1005 436 563 c 0
 436 231 584 49 848 49 c 0
 993 49 1104 100 1192 211 c 0
 1212 238 1212 238 1278 340 c 0
 1280 346 1286 350 1288 350 c 0
 1290 350 1291 350 1305 346 c 2
 1346 332 l 2
 1356 328 1358 326 1358 322 c 0
 1358 318 1358 317 1352 301 c 2
 1264 55 l 1
 1094 -15 983 -41 848 -41 c 0
 445 -41 168 230 168 621 c 0
 168 1090 547 1456 1032 1456 c 0
 1241 1456 1411 1395 1565 1264 c 1
EndSplineSet
EndChar

StartChar: D
Encoding: 36 68 36
Width: 1585
Flags: HW
HStem: -10 88<642 843 579 937> 1341 92 1364 88<837 1032>
VStem: 1337 268<642 1033>
LayerCount: 2
Fore
SplineSet
215 270 m 2xb0
 451 1055 l 2
 484 1164 500 1241 500 1278 c 0
 500 1325 469 1350 410 1350 c 0
 396 1350 378 1348 362 1346 c 0
 344 1344 329 1341 319 1341 c 0
 309 1341 301 1348 301 1358 c 2
 303 1374 l 1
 311 1401 l 2
 317 1421 330 1428 389 1434 c 0xd0
 493 1444 696 1452 811 1452 c 0
 1356 1452 1606 1257 1606 831 c 0
 1606 342 1211 -10 664 -10 c 0
 621 -10 563 -8 489 -4 c 0
 419 -2 375 0 344 0 c 0
 221 0 112 -4 49 -8 c 0
 39 -10 24 -10 14 -10 c 0
 0 -10 -4 -6 -4 6 c 2
 -4 16 l 1
 0 41 l 2
 2 57 4 59 8 63 c 0
 10 65 14 68 18 68 c 2
 59 70 l 1
 149 90 168 112 215 270 c 2xb0
741 1231 m 2
 471 287 l 2
 440 172 440 172 440 156 c 0
 440 109 518 78 639 78 c 0
 1047 78 1337 409 1337 874 c 0
 1337 1191 1180 1364 885 1364 c 0xb0
 789 1364 778 1354 741 1231 c 2
EndSplineSet
EndChar

StartChar: E
Encoding: 37 69 37
Width: 1284
Flags: HMW
HStem: 0 80<511 777> 709 94<594 756 756 776 569 756> 1337 84
VStem: 1180 90<1122 1145 1126 1145>
LayerCount: 2
Fore
SplineSet
594 803 m 1
 756 803 l 2
 891 803 949 832 1006 934 c 0
 1014 946 1020 950 1036 950 c 2
 1071 950 l 2
 1089 950 1096 946 1096 936 c 0
 1096 930 1093 925 1085 905 c 0
 1054 821 1001 647 981 559 c 0
 975 532 971 528 938 528 c 2
 903 528 l 2
 883 528 877 533 877 543 c 0
 877 549 877 549 887 584 c 0
 897 615 903 639 903 655 c 0
 903 698 878 709 776 709 c 2
 569 709 l 1
 453 287 l 2
 422 166 422 165 422 147 c 0
 422 90 466 80 702 80 c 0
 852 80 914 88 975 119 c 0
 1034 148 1081 193 1116 252 c 0
 1155 318 1157 322 1167 322 c 0
 1171 322 1172 321 1184 315 c 2
 1217 299 l 2
 1233 291 1237 287 1237 279 c 0
 1237 273 1237 273 1227 250 c 2
 1155 86 l 2
 1147 68 1138 48 1130 25 c 0
 1118 -4 1114 -10 1096 -10 c 0
 1090 -10 1069 -10 1053 -8 c 0
 1014 -6 606 0 526 0 c 0
 495 0 452 0 393 -2 c 2
 256 -2 l 1
 74 -6 l 2
 43 -8 12 -10 2 -10 c 0
 -12 -10 -16 -6 -16 6 c 2
 -16 16 l 1
 -12 41 l 2
 -10 57 -10 59 -4 63 c 0
 -2 65 2 68 6 68 c 2
 37 72 l 2
 131 84 154 112 203 270 c 2
 444 1139 l 2
 464 1213 471 1239 471 1264 c 0
 471 1313 438 1333 346 1337 c 0
 299 1341 295 1344 295 1356 c 0
 295 1362 295 1366 297 1372 c 2
 301 1395 l 2
 307 1420 311 1421 338 1421 c 2
 903 1411 l 2
 1046 1411 1225 1415 1280 1419 c 0
 1294 1421 1309 1421 1317 1421 c 0
 1331 1421 1339 1417 1339 1407 c 0
 1339 1403 1339 1403 1333 1380 c 2
 1270 1145 l 2
 1262 1104 1262 1104 1239 1104 c 2
 1206 1104 l 2
 1183 1104 1180 1106 1180 1122 c 2
 1180 1126 l 2
 1182 1151 1182 1176 1182 1190 c 0
 1182 1303 1143 1331 987 1331 c 2
 850 1331 l 2
 756 1331 741 1317 702 1176 c 2
 594 803 l 1
EndSplineSet
EndChar

StartChar: F
Encoding: 38 70 38
Width: 1171
Flags: HMW
HStem: -10 74 709 92<623 809 598 838> 1329 82<836 836 836 838 836 954>
LayerCount: 2
Fore
SplineSet
623 801 m 1
 838 801 l 2
 955 801 965 807 1012 922 c 0
 1020 942 1024 944 1049 944 c 2
 1077 944 l 2
 1097 944 1108 938 1108 924 c 0
 1108 916 1108 916 1081 848 c 0
 1046 758 1007 625 993 541 c 0
 991 527 985 520 973 520 c 0
 969 520 962 520 954 522 c 2
 924 524 l 2
 895 526 891 529 891 539 c 0
 891 543 891 543 901 582 c 0
 911 619 915 637 915 651 c 0
 915 692 887 709 809 709 c 2
 598 709 l 1
 477 270 l 2
 457 194 453 172 453 147 c 0
 453 98 488 76 578 72 c 0
 625 70 629 67 629 55 c 2
 627 39 l 1
 621 18 l 2
 617 -9 613 -10 586 -10 c 0
 568 -10 524 -8 469 -6 c 0
 397 -2 333 0 272 0 c 0
 198 0 172 -2 47 -8 c 0
 33 -10 12 -10 -2 -10 c 0
 -16 -10 -20 -6 -20 6 c 2
 -20 16 l 1
 -16 41 l 2
 -14 55 -12 61 -10 63 c 0
 -6 67 0 68 41 70 c 0
 160 80 178 98 223 270 c 2
 469 1141 l 2
 487 1211 494 1239 494 1264 c 0
 494 1315 461 1333 369 1339 c 0
 322 1341 317 1344 317 1356 c 0
 317 1358 318 1358 322 1372 c 2
 326 1393 l 2
 330 1418 335 1421 358 1421 c 2
 836 1411 l 1
 1171 1417 l 2
 1232 1419 1282 1421 1307 1421 c 0
 1325 1421 1335 1415 1335 1403 c 0
 1335 1397 1331 1381 1327 1358 c 2
 1272 1149 l 2
 1264 1116 1257 1108 1241 1108 c 2
 1231 1108 l 1
 1204 1112 l 2
 1184 1114 1176 1121 1176 1139 c 0
 1176 1151 1176 1162 1178 1174 c 0
 1182 1197 1184 1217 1184 1229 c 0
 1184 1305 1126 1329 954 1329 c 2
 838 1329 l 2
 775 1329 768 1323 741 1229 c 2
 623 801 l 1
EndSplineSet
EndChar

StartChar: G
Encoding: 39 71 39
Width: 1624
Flags: HW
HStem: -41 90<790 952 748 974> 545 84 1366 90<1013 1126>
VStem: 186 270<537 714 431 851> 1460 92<1023 1036> 1475 164<1105 1274>
LayerCount: 2
Fore
SplineSet
1581 545 m 2xf4
 1540 545 l 2
 1466 539 1446 510 1413 377 c 0
 1374 213 1340 99 1309 23 c 1
 1133 -26 1040 -41 907 -41 c 0
 671 -41 500 25 365 166 c 0
 248 289 186 449 186 625 c 0
 186 1078 588 1456 1063 1456 c 0
 1241 1456 1474 1393 1589 1317 c 0
 1624 1292 1638 1278 1638 1270 c 0xf4
 1638 1266 1636 1257 1632 1249 c 2
 1610 1194 l 1
 1552 1036 l 2
 1542 1009 1540 1006 1530 1006 c 0
 1526 1006 1525 1006 1507 1008 c 2
 1481 1012 l 2
 1467 1014 1460 1018 1460 1028 c 0xf8
 1460 1034 1460 1035 1466 1053 c 0
 1472 1076 1475 1096 1475 1114 c 0
 1475 1182 1436 1243 1362 1286 c 0
 1280 1333 1169 1366 1083 1366 c 0
 942 1366 785 1295 672 1176 c 0
 535 1037 457 825 457 602 c 0
 457 260 619 49 877 49 c 0
 1029 49 1108 100 1141 223 c 2
 1176 344 l 2
 1201 434 1208 469 1208 492 c 0
 1208 537 1186 545 1063 547 c 0
 991 547 991 547 991 557 c 0
 991 561 991 561 995 575 c 2
 1001 596 l 2
 1007 623 1013 629 1036 629 c 0
 1071 629 1141 627 1200 623 c 0
 1257 619 1301 616 1317 616 c 0
 1325 616 1344 617 1530 627 c 0
 1553 629 1577 629 1591 629 c 0
 1607 629 1616 622 1616 612 c 0
 1616 608 1616 606 1610 586 c 2
 1606 571 l 2
 1602 555 1599 553 1595 549 c 0
 1593 547 1587 545 1581 545 c 2xf4
EndSplineSet
EndChar

StartChar: H
Encoding: 40 72 40
Width: 1662
Flags: HMW
HStem: -10 74 700 102<612 1212 584 1241> 1339 82
LayerCount: 2
Fore
SplineSet
612 803 m 1
 1241 803 l 1
 1337 1139 l 2
 1364 1227 1366 1239 1366 1264 c 0
 1366 1315 1333 1333 1241 1339 c 0
 1194 1341 1190 1344 1190 1356 c 2
 1192 1372 l 1
 1198 1393 l 2
 1202 1418 1206 1421 1233 1421 c 0
 1249 1421 1254 1421 1350 1415 c 0
 1413 1413 1477 1411 1540 1411 c 0
 1622 1411 1680 1413 1776 1419 c 0
 1790 1421 1804 1421 1810 1421 c 0
 1824 1421 1829 1417 1829 1407 c 2
 1829 1395 l 1
 1825 1370 l 2
 1823 1354 1823 1352 1819 1348 c 0
 1813 1344 1810 1343 1765 1341 c 0
 1661 1331 1638 1305 1591 1139 c 2
 1341 270 l 2
 1321 200 1315 170 1315 145 c 0
 1315 96 1350 76 1438 72 c 0
 1485 70 1489 67 1489 55 c 2
 1487 39 l 1
 1483 18 l 2
 1477 -7 1473 -10 1448 -10 c 0
 1430 -10 1425 -10 1329 -4 c 0
 1266 -2 1203 0 1137 0 c 0
 1051 0 1024 0 903 -8 c 0
 889 -10 874 -10 868 -10 c 0
 854 -10 850 -6 850 6 c 2
 850 16 l 1
 854 41 l 2
 856 57 858 59 862 63 c 0
 868 67 868 68 913 70 c 0
 1017 80 1041 106 1090 270 c 2
 1212 700 l 1
 584 700 l 1
 461 270 l 2
 443 204 434 170 434 145 c 0
 434 96 469 76 557 72 c 0
 604 70 608 67 608 55 c 2
 606 39 l 1
 602 18 l 2
 596 -7 592 -10 567 -10 c 0
 549 -10 545 -10 449 -4 c 0
 386 -2 321 0 258 0 c 0
 178 0 117 -2 23 -8 c 0
 9 -10 -6 -10 -12 -10 c 0
 -26 -10 -31 -6 -31 6 c 2
 -31 16 l 1
 -27 41 l 2
 -25 57 -22 59 -18 63 c 0
 -12 67 -12 68 33 70 c 0
 137 80 160 106 207 270 c 2
 457 1139 l 2
 475 1205 483 1241 483 1264 c 0
 483 1315 450 1333 360 1339 c 0
 313 1341 309 1344 309 1356 c 0
 309 1360 309 1366 311 1372 c 2
 315 1393 l 2
 321 1420 325 1421 352 1421 c 0
 368 1421 373 1421 469 1415 c 0
 532 1413 596 1411 659 1411 c 0
 741 1411 797 1413 895 1419 c 0
 909 1421 924 1421 930 1421 c 0
 944 1421 948 1417 948 1407 c 2
 948 1395 l 1
 944 1370 l 2
 942 1352 942 1352 936 1348 c 0
 930 1344 928 1343 885 1341 c 0
 781 1331 758 1305 711 1139 c 2
 612 803 l 1
EndSplineSet
EndChar

StartChar: I
Encoding: 41 73 41
Width: 792
Flags: HMW
HStem: -10 74 1339 82
LayerCount: 2
Fore
SplineSet
219 270 m 2
 469 1141 l 2
 487 1204 496 1241 496 1264 c 0
 496 1315 463 1333 373 1339 c 0
 326 1341 322 1344 322 1356 c 0
 322 1360 322 1366 324 1372 c 2
 328 1393 l 2
 334 1420 338 1421 365 1421 c 0
 381 1421 385 1421 481 1415 c 0
 544 1413 608 1411 674 1411 c 0
 760 1411 786 1411 907 1419 c 0
 921 1421 938 1421 946 1421 c 0
 960 1421 965 1417 965 1405 c 2
 965 1395 l 1
 961 1370 l 2
 959 1354 958 1352 952 1348 c 0
 948 1344 944 1343 901 1341 c 0
 792 1331 772 1307 723 1141 c 2
 473 270 l 2
 455 207 446 170 446 145 c 0
 446 96 481 76 569 72 c 0
 616 70 621 67 621 55 c 2
 618 39 l 1
 614 18 l 2
 608 -7 605 -10 580 -10 c 0
 562 -10 557 -10 461 -4 c 0
 398 -2 333 0 270 0 c 0
 190 0 129 -2 35 -8 c 0
 21 -10 6 -10 0 -10 c 0
 -14 -10 -18 -6 -18 6 c 2
 -18 16 l 1
 -14 41 l 2
 -12 57 -10 59 -6 63 c 0
 0 67 0 68 45 70 c 0
 149 80 172 106 219 270 c 2
EndSplineSet
EndChar

StartChar: J
Encoding: 42 74 42
Width: 718
Flags: HMW
HStem: -477 119<-122 63> 1339 82<301 322>
VStem: -238 225
LayerCount: 2
Fore
SplineSet
170 115 m 2
 436 1139 l 2
 456 1217 461 1237 461 1262 c 0
 461 1315 420 1337 322 1339 c 0
 281 1339 270 1344 270 1358 c 0
 270 1360 270 1366 272 1372 c 2
 276 1393 l 2
 280 1418 284 1421 309 1421 c 0
 346 1421 368 1421 442 1417 c 0
 514 1413 576 1411 631 1411 c 0
 697 1411 778 1413 864 1419 c 0
 878 1421 893 1421 899 1421 c 0
 915 1421 920 1413 918 1395 c 2
 913 1370 l 2
 911 1354 909 1350 907 1346 c 2
 899 1343 l 1
 858 1341 l 2
 752 1329 733 1307 690 1139 c 2
 440 184 l 2
 381 -45 310 -221 244 -309 c 0
 156 -424 58 -477 -63 -477 c 0
 -180 -477 -238 -432 -238 -338 c 0
 -238 -254 -195 -209 -115 -209 c 0
 -41 -209 -26 -223 -12 -311 c 0
 -8 -342 10 -358 37 -358 c 0
 90 -358 100 -331 123 -141 c 0
 135 -37 145 21 170 115 c 2
EndSplineSet
EndChar

StartChar: K
Encoding: 43 75 43
Width: 1472
Flags: HMW
HStem: -10 80<3 24> 1341 80<336 389>
LayerCount: 2
Fore
SplineSet
659 678 m 1
 547 598 l 1
 446 248 l 2
 419 160 420 160 420 137 c 0
 420 94 454 72 526 72 c 0
 573 72 575 69 575 57 c 0
 575 53 575 53 573 41 c 2
 569 16 l 2
 565 -7 561 -10 541 -10 c 0
 516 -10 489 -8 397 -4 c 0
 346 -2 308 0 279 0 c 0
 256 0 217 -2 168 -4 c 0
 96 -8 35 -10 12 -10 c 0
 -8 -10 -14 -6 -14 8 c 2
 -14 8 -14 25 -12 29 c 2
 -12 43 l 2
 -8 66 -6 70 12 70 c 0
 143 70 179 111 240 334 c 2
 459 1124 l 2
 488 1247 487 1248 487 1266 c 0
 487 1295 467 1321 434 1331 c 0
 411 1339 412 1339 340 1341 c 0
 332 1341 328 1346 328 1352 c 0
 328 1356 328 1356 332 1368 c 2
 340 1395 l 2
 346 1418 351 1421 371 1421 c 0
 408 1421 459 1419 537 1415 c 0
 586 1413 625 1411 643 1411 c 0
 666 1411 703 1413 754 1415 c 0
 815 1419 890 1421 915 1421 c 0
 938 1421 946 1417 946 1405 c 0
 946 1401 946 1401 942 1391 c 2
 938 1366 l 2
 934 1352 930 1345 922 1341 c 0
 916 1339 915 1339 874 1337 c 0
 768 1331 756 1319 713 1169 c 2
 588 745 l 1
 1059 1130 l 1
 1221 1277 1221 1278 1221 1303 c 0
 1221 1328 1183 1343 1130 1343 c 0
 1091 1341 1083 1344 1083 1354 c 0
 1083 1356 1085 1368 1087 1370 c 2
 1096 1399 l 2
 1102 1415 1110 1421 1128 1421 c 0
 1165 1421 1221 1419 1368 1411 c 1
 1468 1417 1546 1421 1573 1421 c 0
 1589 1421 1597 1413 1597 1401 c 2
 1597 1401 1597 1397 1595 1391 c 2
 1593 1372 l 2
 1591 1356 1589 1352 1585 1348 c 2
 1575 1343 l 1
 1538 1335 l 2
 1491 1327 1423 1286 1323 1208 c 2
 854 829 l 1
 1206 201 l 2
 1269 88 1282 76 1333 68 c 0
 1362 64 1364 63 1364 53 c 0
 1364 49 1364 43 1362 35 c 2
 1358 16 l 2
 1352 -7 1348 -10 1323 -10 c 0
 1300 -10 1233 -8 1198 -6 c 0
 1151 -2 1114 0 1108 0 c 0
 1098 0 1058 -2 1001 -6 c 2
 836 -10 l 2
 822 -10 815 -6 815 4 c 2
 815 16 l 1
 819 45 l 2
 823 59 825 64 831 68 c 0
 833 70 840 70 854 70 c 2
 905 72 l 2
 946 74 963 86 963 117 c 0
 963 137 955 158 922 215 c 2
 659 678 l 1
EndSplineSet
EndChar

StartChar: L
Encoding: 44 76 44
Width: 1284
Flags: HMW
HStem: -10 78<10 12 10 12> 1339 82
LayerCount: 2
Fore
SplineSet
203 270 m 2
 457 1141 l 2
 488 1237 487 1239 487 1266 c 0
 487 1315 455 1333 365 1339 c 0
 318 1341 313 1344 313 1356 c 2
 315 1372 l 1
 319 1393 l 2
 325 1418 331 1421 358 1421 c 0
 374 1421 418 1419 473 1417 c 0
 545 1413 611 1411 674 1411 c 0
 752 1411 780 1413 909 1419 c 0
 921 1421 944 1421 956 1421 c 0
 970 1421 977 1413 975 1395 c 2
 971 1370 l 2
 969 1343 964 1341 909 1341 c 0
 794 1335 772 1311 717 1141 c 2
 473 330 l 2
 436 197 436 197 436 174 c 0
 436 104 502 78 672 78 c 0
 824 78 940 96 1010 133 c 0
 1069 164 1077 172 1171 315 c 0
 1175 321 1182 326 1186 326 c 0
 1190 326 1198 323 1206 319 c 2
 1235 307 l 2
 1249 301 1253 297 1253 291 c 0
 1253 285 1249 274 1245 266 c 2
 1143 29 l 2
 1129 -4 1123 -10 1100 -10 c 0
 1067 -10 741 -4 524 0 c 2
 383 -2 l 1
 233 -2 l 1
 76 -6 l 2
 45 -8 16 -10 8 -10 c 0
 -6 -10 -10 -6 -10 6 c 2
 -10 16 l 1
 -6 41 l 2
 -4 57 -4 59 2 63 c 0
 4 65 8 68 12 68 c 2
 47 72 l 2
 135 88 156 114 203 270 c 2
EndSplineSet
EndChar

StartChar: M
Encoding: 45 77 45
Width: 1775
Flags: HMW
HStem: -10 82<323 344 1548 1567> 1339 72
LayerCount: 2
Fore
SplineSet
690 -6 m 1
 639 -6 l 1
 547 1008 l 1
 248 246 l 2
 230 199 219 160 219 135 c 0
 219 92 256 72 328 72 c 0
 363 72 371 67 371 53 c 0
 371 49 371 43 369 33 c 2
 365 14 l 2
 363 -4 354 -10 334 -10 c 0
 311 -10 282 -8 223 -4 c 0
 186 -2 159 0 141 0 c 0
 129 0 98 -2 57 -4 c 0
 2 -8 -53 -10 -78 -10 c 0
 -94 -10 -100 -6 -100 8 c 2
 -100 20 l 1
 -96 47 l 2
 -94 57 -92 61 -90 63 c 0
 -86 65 -82 68 -76 68 c 2
 -27 74 l 2
 55 86 80 115 133 246 c 2
 207 426 l 1
 289 627 l 1
 524 1208 l 1
 489 1327 467 1341 311 1339 c 0
 297 1339 289 1346 291 1354 c 2
 293 1370 l 1
 295 1384 l 2
 299 1409 303 1413 328 1413 c 2
 391 1413 l 1
 512 1415 l 1
 655 1417 l 2
 673 1419 695 1419 705 1419 c 0
 738 1419 741 1415 745 1368 c 2
 821 377 l 1
 1483 1411 l 1
 1675 1411 l 2
 1741 1411 1772 1413 1831 1417 c 0
 1849 1419 1870 1419 1882 1419 c 0
 1896 1419 1903 1415 1903 1405 c 2
 1903 1386 l 1
 1898 1368 l 2
 1894 1345 1889 1341 1823 1339 c 0
 1729 1337 1706 1315 1677 1184 c 2
 1452 258 l 2
 1429 172 1430 172 1430 152 c 0
 1430 103 1472 74 1548 72 c 0
 1593 72 1599 69 1599 55 c 0
 1599 49 1599 49 1595 37 c 2
 1587 12 l 2
 1581 -4 1575 -10 1559 -10 c 0
 1514 -10 1431 -8 1384 -6 c 0
 1329 -2 1288 0 1278 0 c 0
 1266 0 1224 -2 1165 -6 c 2
 1001 -10 l 2
 987 -10 981 -6 981 2 c 2
 981 18 l 1
 985 43 l 2
 987 61 987 62 993 66 c 0
 995 68 1002 70 1006 72 c 2
 1055 72 l 2
 1135 76 1157 98 1188 221 c 2
 1419 1135 l 1
 690 -6 l 1
EndSplineSet
EndChar

StartChar: N
Encoding: 46 78 46
Width: 1624
Flags: HMW
HStem: -10 80<1 20> 1341 80<264 266 1376 1378>
LayerCount: 2
Fore
SplineSet
1167 -10 m 1
 561 1087 l 1
 358 389 l 2
 331 295 309 186 309 145 c 0
 309 88 338 74 442 70 c 0
 481 68 487 67 487 57 c 0
 487 53 485 41 483 37 c 2
 477 14 l 2
 471 -9 469 -10 451 -10 c 0
 437 -10 437 -10 240 0 c 1
 143 -4 l 2
 106 -8 33 -10 8 -10 c 0
 -6 -10 -10 -8 -10 4 c 0
 -10 10 -10 14 -8 18 c 2
 -2 45 l 2
 0 61 2 64 10 68 c 2
 20 70 l 1
 70 72 l 2
 142 82 160 107 201 252 c 2
 496 1229 l 1
 441 1313 387 1339 266 1341 c 0
 248 1341 240 1346 240 1356 c 0
 240 1360 240 1360 242 1374 c 2
 246 1393 l 2
 250 1418 254 1421 274 1421 c 0
 292 1421 329 1419 362 1417 c 0
 405 1413 434 1411 457 1411 c 0
 471 1411 528 1413 606 1419 c 2
 670 1421 l 1
 1260 328 l 1
 1466 1059 l 2
 1491 1143 1509 1235 1509 1268 c 0
 1509 1319 1473 1343 1397 1341 c 0
 1356 1341 1348 1344 1348 1360 c 2
 1350 1378 l 1
 1354 1395 l 2
 1358 1415 1362 1421 1378 1421 c 2
 1438 1419 l 2
 1491 1415 1570 1411 1595 1411 c 0
 1615 1411 1714 1415 1749 1419 c 2
 1798 1421 l 2
 1816 1421 1821 1415 1821 1397 c 2
 1819 1370 l 2
 1819 1350 1814 1345 1800 1343 c 0
 1679 1331 1646 1296 1599 1122 c 2
 1327 190 l 1
 1419 12 l 2
 1423 6 1423 6 1423 4 c 0
 1423 -4 1413 -10 1399 -10 c 2
 1167 -10 l 1
EndSplineSet
EndChar

StartChar: O
Encoding: 47 79 47
Width: 1699
Flags: HMW
HStem: -41 90<684 880 684 1057> 1366 90<934 1129>
VStem: 154 268<419 693 408 862> 1397 268<745 998 554 1024>
LayerCount: 2
Fore
SplineSet
1008 1456 m 0
 1407 1456 1665 1198 1665 799 c 0
 1665 310 1307 -41 807 -41 c 0
 399 -41 154 211 154 627 c 0
 154 1098 525 1456 1008 1456 c 0
1004 1366 m 0
 865 1366 745 1311 649 1202 c 0
 508 1046 422 809 422 578 c 0
 422 238 559 49 809 49 c 0
 950 49 1084 112 1178 225 c 0
 1315 389 1397 626 1397 864 c 0
 1397 1183 1256 1366 1004 1366 c 0
EndSplineSet
EndChar

StartChar: P
Encoding: 48 80 48
Width: 1284
Flags: HW
HStem: -10 74 616 90<826 866> 1325 90 1360 92<804 908>
VStem: 1049 283<990 1184 916 1191>
LayerCount: 2
Fore
SplineSet
233 270 m 2xd8
 471 1174 l 2
 485 1227 492 1261 492 1288 c 0
 492 1325 473 1346 436 1346 c 0
 430 1346 417 1343 403 1339 c 0
 366 1331 342 1325 328 1325 c 0xe8
 320 1325 313 1329 313 1339 c 0
 313 1343 315 1352 317 1360 c 2xd8
 322 1382 l 2
 326 1405 332 1411 352 1415 c 0xe8
 463 1438 616 1452 772 1452 c 0
 1151 1452 1331 1321 1331 1047 c 0
 1331 787 1157 616 893 616 c 0
 760 616 651 637 651 662 c 0
 651 664 653 674 655 680 c 2
 666 707 l 2
 670 719 678 725 686 725 c 0
 690 725 696 723 702 721 c 0
 733 713 768 707 793 707 c 0
 940 707 1049 875 1049 1106 c 0
 1049 1276 979 1360 838 1360 c 0
 770 1360 764 1354 721 1194 c 2
 475 270 l 2
 448 176 449 176 449 147 c 0
 449 96 486 76 584 72 c 0
 627 72 635 67 635 55 c 0
 635 49 635 45 633 39 c 2
 629 18 l 2
 625 -9 621 -10 588 -10 c 0
 570 -10 516 -8 467 -6 c 0
 397 -2 338 0 291 0 c 0
 228 0 201 -2 70 -8 c 0
 56 -10 35 -10 23 -10 c 0
 9 -10 4 -6 4 6 c 2
 4 16 l 1
 8 41 l 2
 10 55 12 61 14 63 c 0
 18 67 23 68 66 70 c 0
 170 80 190 104 233 270 c 2xd8
EndSplineSet
EndChar

StartChar: Q
Encoding: 49 81 49
Width: 1697
Flags: HMW
HStem: -479 90<1414 1448> 1366 90<936 1062>
VStem: 154 268<556 638 480 698> 1397 266<787 897 707 949>
LayerCount: 2
Fore
SplineSet
1004 -23 m 1
 1094 -146 1155 -225 1182 -256 c 0
 1260 -344 1356 -389 1473 -389 c 0
 1500 -389 1530 -383 1567 -375 c 0
 1571 -375 1575 -373 1579 -373 c 0
 1585 -373 1589 -377 1589 -383 c 2
 1587 -395 l 1
 1585 -426 l 2
 1585 -440 1583 -451 1577 -453 c 0
 1548 -469 1491 -479 1405 -479 c 0
 1260 -479 1147 -448 1063 -385 c 0
 1008 -342 950 -274 887 -182 c 0
 842 -119 808 -77 788 -59 c 0
 776 -49 756 -43 729 -39 c 0
 637 -25 569 -8 526 6 c 0
 483 20 440 45 399 76 c 0
 319 135 258 211 215 303 c 0
 172 395 154 497 154 614 c 0
 154 782 194 932 276 1065 c 0
 356 1194 465 1294 604 1364 c 0
 729 1425 865 1456 1008 1456 c 0
 1209 1456 1370 1395 1493 1270 c 0
 1608 1151 1663 996 1663 799 c 0
 1663 615 1618 450 1524 313 c 0
 1403 139 1229 26 1004 -23 c 1
1004 1366 m 0
 865 1366 745 1311 649 1202 c 0
 583 1128 531 1042 494 946 c 0
 447 823 422 700 422 575 c 0
 422 385 465 244 551 152 c 0
 614 82 700 47 809 47 c 0
 907 47 995 76 1077 133 c 0
 1169 196 1248 297 1307 434 c 0
 1366 569 1397 712 1397 862 c 0
 1397 1036 1358 1169 1278 1257 c 0
 1212 1331 1121 1366 1004 1366 c 0
EndSplineSet
Substitution2: "swshSwashlookup subtable" Q.swsh
EndChar

StartChar: R
Encoding: 50 82 50
Width: 1511
Flags: HW
HStem: -10 82<1 53> 711 92<592 719 612 623> 1339 43G<311 321> 1364 88<845 990 815 991>
VStem: 1155 260<1083 1191 1035 1224>
LayerCount: 2
Fore
SplineSet
592 711 m 1xe8
 463 272 l 2
 440 194 434 172 434 145 c 0
 434 96 467 78 559 72 c 0
 616 70 618 69 618 55 c 2
 616 39 l 1
 612 18 l 2
 606 -9 602 -10 571 -10 c 0
 555 -10 508 -8 449 -4 c 0
 388 -2 327 0 270 0 c 0
 198 0 98 -4 35 -8 c 0
 25 -10 12 -10 8 -10 c 0
 -6 -10 -10 -6 -10 6 c 2
 -10 16 l 1
 -6 41 l 2
 -4 57 -4 59 2 63 c 0
 4 65 10 68 12 68 c 2
 53 72 l 2
 145 88 166 112 213 272 c 2
 442 1053 l 2
 489 1217 496 1241 496 1278 c 0
 496 1325 467 1348 406 1348 c 0
 390 1348 374 1347 360 1343 c 0
 340 1341 323 1339 317 1339 c 0xe8
 305 1339 299 1346 299 1354 c 0
 299 1356 299 1356 305 1372 c 2
 311 1397 l 2
 317 1420 332 1426 389 1432 c 0
 500 1442 735 1452 895 1452 c 0xd8
 1085 1452 1190 1433 1280 1382 c 0
 1366 1333 1415 1243 1415 1139 c 0
 1415 932 1233 768 954 721 c 1
 1022 705 1045 665 1147 399 c 0
 1241 149 1282 90 1366 78 c 0
 1403 72 1407 69 1407 57 c 0
 1407 53 1407 51 1403 35 c 2
 1397 10 l 2
 1393 -6 1386 -10 1372 -10 c 0
 1362 -10 1345 -10 1331 -8 c 0
 1278 -2 1245 0 1229 0 c 0
 1206 0 1162 -4 1133 -6 c 0
 1119 -8 1104 -10 1096 -10 c 0
 1061 -10 1043 12 1016 82 c 2
 834 555 l 2
 783 686 750 711 623 711 c 2
 592 711 l 1xe8
612 803 m 1
 719 803 l 2
 866 803 958 823 1030 870 c 0
 1110 923 1155 1022 1155 1145 c 0
 1155 1303 1083 1364 899 1364 c 0xd8
 790 1364 776 1352 739 1229 c 2
 612 803 l 1
EndSplineSet
EndChar

StartChar: S
Encoding: 51 83 51
Width: 1019
Flags: HW
HStem: -41 90<394 498 357 590> 1366 90<660 790>
VStem: 43 147<69 240> 117 86 266 223<1079 1090> 682 236<232 331> 920 88 936 143<1184 1335>
LayerCount: 2
Fore
SplineSet
981 1085 m 2xce
 942 1096 l 2
 926 1102 920 1106 920 1114 c 2xce
 922 1126 l 2
 932 1153 936 1174 936 1194 c 0
 936 1294 850 1366 729 1366 c 0
 590 1366 489 1270 489 1135 c 0
 489 1024 533 947 680 795 c 0
 864 602 918 504 918 350 c 0
 918 114 732 -41 449 -41 c 0
 340 -41 190 -10 88 33 c 0
 55 47 43 60 43 78 c 0xed
 43 88 45 92 55 121 c 0
 59 137 64 152 68 164 c 2
 98 258 l 2
 102 274 113 318 117 338 c 0
 119 348 123 352 131 352 c 0
 135 352 135 352 147 350 c 2
 180 346 l 2
 200 342 205 340 205 332 c 2
 203 313 l 2xdc
 195 278 190 249 190 229 c 0
 190 127 291 49 424 49 c 0
 571 49 682 147 682 274 c 0
 682 387 635 467 465 649 c 0
 313 809 266 899 266 1034 c 0
 266 1145 311 1251 391 1331 c 0
 477 1415 588 1456 733 1456 c 0
 852 1456 967 1423 1047 1364 c 0
 1070 1350 1079 1339 1079 1331 c 0xed
 1079 1325 1075 1313 1065 1288 c 0
 1034 1206 1014 1137 1008 1094 c 0
 1006 1084 1003 1081 997 1081 c 0
 995 1081 991 1081 981 1085 c 2xce
EndSplineSet
EndChar

StartChar: T
Encoding: 52 84 52
Width: 1396
Flags: HMW
HStem: -10 74 1319 100<483 1352 551 725 1186 1260 1260 1315>
VStem: 315 96<1470 1504> 1440 90<1128 1149 1139 1149>
LayerCount: 2
Fore
SplineSet
725 1319 m 2
 545 1319 l 2
 422 1319 393 1302 334 1200 c 0
 305 1153 303 1151 291 1151 c 0
 264 1151 219 1172 219 1182 c 0
 219 1188 221 1192 223 1198 c 2
 229 1217 l 1
 315 1470 l 2
 327 1509 327 1509 352 1509 c 2
 391 1509 l 2
 407 1509 412 1507 412 1501 c 0
 412 1499 412 1493 410 1489 c 0
 406 1475 406 1468 406 1460 c 0
 406 1425 430 1419 551 1419 c 2
 1352 1419 l 2
 1467 1419 1493 1430 1526 1489 c 0
 1534 1505 1538 1509 1546 1509 c 0
 1550 1509 1551 1509 1565 1507 c 2
 1597 1503 l 2
 1613 1501 1618 1497 1618 1491 c 0
 1618 1487 1618 1487 1610 1458 c 2
 1530 1149 l 2
 1520 1108 1519 1106 1505 1106 c 0
 1470 1106 1440 1116 1440 1128 c 2
 1440 1139 l 1
 1442 1151 l 1
 1448 1204 l 2
 1450 1220 1452 1233 1452 1241 c 0
 1454 1292 1407 1319 1315 1319 c 2
 1260 1319 l 2
 1113 1319 1096 1309 1063 1196 c 2
 799 270 l 2
 781 207 772 170 772 147 c 0
 772 98 809 76 897 72 c 0
 944 70 948 67 948 55 c 0
 948 51 948 45 946 39 c 2
 942 18 l 2
 936 -7 932 -10 905 -10 c 0
 887 -10 845 -8 788 -6 c 0
 716 -2 651 0 588 0 c 0
 508 0 479 -2 350 -8 c 0
 336 -10 315 -10 303 -10 c 0
 287 -10 283 -2 285 16 c 2
 289 41 l 2
 291 57 291 59 295 63 c 0
 301 67 309 70 348 70 c 0
 465 78 486 100 537 270 c 2
 805 1198 l 2
 817 1241 825 1276 825 1288 c 0
 825 1313 807 1319 725 1319 c 2
EndSplineSet
EndChar

StartChar: U
Encoding: 53 85 53
Width: 1662
Flags: HMW
HStem: -43 102<720 892> 1339 82<1374 1388>
VStem: 233 252<253 369>
LayerCount: 2
Fore
SplineSet
680 1139 m 2
 545 672 l 2
 504 527 485 426 485 340 c 0
 485 166 614 59 825 59 c 0
 1106 59 1250 205 1350 592 c 2
 1458 1012 l 2
 1507 1231 1507 1231 1507 1266 c 0
 1507 1313 1467 1339 1393 1339 c 0
 1350 1339 1346 1342 1346 1350 c 0
 1346 1354 1348 1360 1350 1368 c 2
 1358 1399 l 2
 1362 1417 1366 1421 1382 1421 c 0
 1392 1421 1423 1419 1452 1417 c 0
 1503 1415 1579 1411 1599 1411 c 2
 1753 1417 l 2
 1780 1419 1800 1421 1812 1421 c 0
 1824 1421 1833 1415 1833 1405 c 0
 1833 1403 1833 1394 1831 1386 c 2
 1829 1376 l 2
 1823 1345 1818 1341 1798 1339 c 0
 1694 1339 1655 1298 1616 1151 c 2
 1456 553 l 2
 1393 315 1325 178 1229 92 c 0
 1133 2 987 -43 797 -43 c 0
 451 -43 233 101 233 332 c 0
 233 406 264 547 338 807 c 2
 434 1139 l 2
 457 1217 461 1237 461 1264 c 0
 461 1313 430 1335 348 1339 c 0
 303 1341 299 1342 299 1354 c 0
 299 1358 301 1362 305 1374 c 2
 315 1395 l 2
 325 1418 330 1421 348 1421 c 0
 360 1421 375 1421 391 1419 c 0
 454 1415 592 1411 645 1411 c 0
 706 1411 725 1411 860 1419 c 0
 878 1421 899 1421 915 1421 c 0
 927 1421 934 1417 934 1411 c 0
 934 1409 932 1403 930 1395 c 2
 924 1370 l 2
 920 1358 915 1350 911 1348 c 0
 907 1344 897 1341 860 1341 c 0
 751 1333 727 1307 680 1139 c 2
EndSplineSet
EndChar

StartChar: V
Encoding: 54 86 54
Width: 1511
Flags: HMW
HStem: -43 43G<657 731 657 657> 1343 78
LayerCount: 2
Fore
SplineSet
731 -43 m 1
 657 -43 l 1
 381 1190 l 2
 356 1319 340 1339 264 1343 c 0
 213 1341 207 1344 207 1354 c 0
 207 1358 207 1368 209 1374 c 2
 213 1399 l 2
 215 1419 219 1421 252 1421 c 0
 277 1421 350 1417 399 1415 c 0
 448 1413 474 1411 494 1411 c 2
 774 1421 l 2
 786 1421 795 1417 795 1409 c 2
 793 1401 l 1
 793 1389 l 1
 786 1366 l 2
 782 1346 779 1341 752 1339 c 0
 701 1341 684 1339 666 1329 c 0
 641 1319 625 1288 625 1253 c 0
 625 1224 635 1153 645 1100 c 2
 815 283 l 1
 1309 1124 l 2
 1358 1206 1380 1257 1380 1288 c 0
 1380 1321 1343 1341 1286 1341 c 0
 1237 1343 1233 1344 1233 1354 c 0
 1233 1358 1233 1358 1237 1376 c 2
 1243 1401 l 2
 1247 1417 1256 1421 1274 1421 c 0
 1301 1421 1372 1419 1403 1417 c 0
 1448 1413 1481 1411 1485 1411 c 0
 1594 1417 1652 1421 1679 1421 c 0
 1693 1421 1700 1417 1700 1407 c 2
 1700 1391 l 1
 1698 1370 l 2
 1696 1352 1689 1345 1671 1343 c 0
 1567 1329 1554 1319 1448 1147 c 2
 731 -43 l 1
EndSplineSet
EndChar

StartChar: W
Encoding: 55 87 55
Width: 2039
Flags: HMW
HStem: -43 43G<639 729 639 639 1204 1288 1204 1204> 1341 80<705 709 825 827 1683 1683 1855 1880>
LayerCount: 2
Fore
SplineSet
809 262 m 1
 1049 657 l 1
 918 1221 l 2
 893 1327 882 1339 827 1341 c 0
 804 1341 803 1344 803 1354 c 0
 803 1362 803 1366 805 1376 c 2
 809 1397 l 2
 811 1415 818 1421 834 1421 c 0
 859 1421 921 1419 952 1417 c 0
 997 1413 1028 1411 1032 1411 c 0
 1157 1419 1222 1421 1251 1421 c 0
 1261 1421 1266 1419 1266 1413 c 0
 1266 1409 1264 1403 1262 1393 c 2
 1257 1374 l 2
 1255 1358 1251 1352 1247 1350 c 2
 1233 1346 l 1
 1208 1343 l 2
 1163 1341 1135 1323 1135 1292 c 0
 1135 1282 1135 1280 1149 1212 c 2
 1210 940 l 1
 1352 1176 l 2
 1377 1219 1399 1270 1399 1290 c 0
 1399 1321 1374 1337 1323 1337 c 0
 1313 1339 1311 1340 1311 1348 c 0
 1311 1352 1313 1362 1315 1368 c 2
 1321 1399 l 2
 1325 1415 1332 1421 1346 1421 c 0
 1364 1421 1425 1419 1448 1417 c 0
 1485 1413 1511 1411 1513 1411 c 0
 1615 1419 1659 1421 1694 1421 c 0
 1706 1421 1712 1417 1712 1407 c 2
 1710 1384 l 1
 1706 1364 l 2
 1704 1354 1700 1347 1694 1343 c 2
 1683 1341 l 1
 1645 1337 l 2
 1579 1331 1556 1313 1501 1223 c 2
 1235 809 l 1
 1368 252 l 1
 1870 1104 l 2
 1915 1180 1950 1261 1950 1292 c 0
 1950 1331 1927 1341 1839 1341 c 0
 1831 1341 1827 1346 1827 1352 c 0
 1827 1354 1827 1358 1829 1362 c 2
 1831 1370 l 1
 1837 1395 l 2
 1841 1415 1848 1421 1864 1421 c 0
 1897 1421 1954 1417 2056 1411 c 1
 2130 1417 l 2
 2153 1419 2220 1421 2238 1421 c 0
 2250 1421 2255 1417 2255 1409 c 0
 2255 1407 2253 1401 2251 1393 c 2
 2245 1364 l 2
 2239 1348 2234 1343 2220 1339 c 0
 2132 1319 2101 1289 2013 1139 c 2
 1288 -43 l 1
 1204 -43 l 1
 1075 537 l 1
 729 -43 l 1
 639 -43 l 1
 352 1194 l 2
 327 1305 317 1316 229 1341 c 0
 221 1343 219 1346 219 1352 c 2
 221 1372 l 1
 229 1401 l 2
 231 1417 238 1421 254 1421 c 0
 274 1421 333 1419 485 1411 c 1
 580 1415 l 2
 631 1419 690 1421 719 1421 c 0
 733 1421 737 1419 737 1409 c 0
 737 1403 737 1403 733 1391 c 2
 729 1366 l 2
 725 1354 723 1348 719 1346 c 2
 709 1341 l 1
 678 1341 l 2
 619 1337 588 1311 588 1264 c 0
 588 1241 602 1153 612 1106 c 2
 809 262 l 1
EndSplineSet
EndChar

StartChar: X
Encoding: 56 88 56
Width: 1472
Flags: HMW
HStem: -10 80<-23 -23 -23 -12 1318 1343> 1341 80<286 323 840 848>
LayerCount: 2
Fore
SplineSet
705 676 m 1
 506 1163 l 2
 440 1325 420 1343 293 1341 c 0
 279 1341 272 1350 272 1360 c 0
 272 1364 274 1370 276 1378 c 2
 283 1399 l 2
 287 1417 293 1421 309 1421 c 0
 336 1421 438 1419 475 1417 c 0
 536 1413 580 1411 590 1411 c 0
 602 1411 645 1413 702 1417 c 0
 743 1419 827 1421 852 1421 c 0
 868 1421 874 1417 874 1403 c 0
 874 1399 874 1390 872 1384 c 2
 870 1364 l 2
 868 1354 864 1345 860 1343 c 2
 848 1341 l 1
 815 1341 l 2
 764 1341 729 1315 729 1280 c 0
 729 1260 739 1229 768 1155 c 2
 887 854 l 1
 1167 1151 l 2
 1239 1225 1264 1261 1264 1290 c 0
 1264 1327 1231 1342 1133 1348 c 0
 1125 1348 1120 1352 1120 1358 c 2
 1122 1376 l 1
 1128 1401 l 2
 1132 1417 1139 1421 1153 1421 c 2
 1305 1417 l 2
 1354 1413 1389 1411 1397 1411 c 0
 1401 1411 1434 1413 1479 1417 c 2
 1610 1421 l 2
 1624 1421 1630 1417 1630 1409 c 0
 1630 1407 1630 1407 1628 1389 c 2
 1624 1370 l 2
 1620 1345 1617 1343 1599 1341 c 0
 1501 1329 1441 1292 1337 1188 c 2
 930 762 l 1
 1145 227 l 2
 1204 80 1219 70 1350 70 c 0
 1362 68 1368 65 1368 57 c 0
 1368 55 1368 55 1364 35 c 2
 1362 14 l 2
 1360 -4 1351 -10 1335 -10 c 0
 1300 -10 1239 -8 1057 0 c 1
 926 -6 l 1
 825 -8 l 1
 764 -10 l 1
 760 -10 l 2
 752 -10 748 -8 748 -2 c 0
 748 0 748 0 752 14 c 2
 760 47 l 2
 762 59 764 61 764 61 c 2
 768 69 772 70 819 70 c 0
 882 70 913 92 913 135 c 0
 913 160 899 203 856 309 c 2
 743 586 l 1
 463 276 l 2
 365 170 344 142 344 115 c 0
 344 92 381 74 434 72 c 0
 475 72 481 69 481 59 c 0
 481 57 481 55 477 37 c 2
 471 16 l 2
 465 -9 461 -10 436 -10 c 2
 379 -8 l 1
 299 -4 l 2
 260 -2 229 0 213 0 c 0
 197 0 164 -2 119 -4 c 0
 78 -6 0 -10 -25 -10 c 0
 -39 -10 -45 -6 -45 2 c 0
 -45 4 -45 8 -43 12 c 2
 -39 25 l 1
 -33 49 l 2
 -29 65 -27 68 -23 70 c 2
 -14 74 l 1
 33 76 l 2
 113 82 193 138 330 281 c 2
 705 676 l 1
EndSplineSet
EndChar

StartChar: Y
Encoding: 57 89 57
Width: 1511
Flags: HMW
HStem: -10 78<306 311 306 343> 1339 82
LayerCount: 2
Fore
SplineSet
864 760 m 1
 1221 1139 l 2
 1297 1219 1323 1257 1323 1290 c 0
 1323 1323 1289 1339 1221 1341 c 0
 1176 1343 1171 1346 1171 1360 c 0
 1171 1364 1172 1364 1176 1374 c 2
 1180 1401 l 2
 1182 1417 1186 1421 1202 1421 c 2
 1335 1417 l 2
 1384 1413 1421 1411 1425 1411 c 0
 1552 1419 1614 1421 1649 1421 c 0
 1661 1421 1665 1419 1665 1411 c 2
 1665 1411 1665 1409 1663 1391 c 2
 1659 1362 l 2
 1655 1346 1652 1341 1636 1339 c 0
 1546 1319 1487 1280 1399 1180 c 2
 915 659 l 1
 809 270 l 2
 786 194 782 172 782 147 c 0
 782 94 811 80 922 70 c 0
 936 70 942 63 942 55 c 0
 942 53 940 47 938 39 c 2
 934 18 l 2
 930 -7 923 -10 905 -10 c 0
 895 -10 884 -10 870 -8 c 0
 804 -4 661 0 612 0 c 0
 567 0 516 -2 461 -6 c 0
 383 -10 377 -10 309 -10 c 0
 295 -10 291 -6 291 6 c 2
 291 16 l 1
 295 41 l 2
 297 64 301 68 311 68 c 2
 350 70 l 1
 401 74 l 2
 512 80 530 100 573 270 c 2
 662 629 l 1
 446 1217 l 2
 413 1313 394 1333 324 1337 c 0
 265 1339 264 1340 264 1350 c 0
 264 1354 266 1360 268 1372 c 2
 274 1399 l 2
 280 1417 285 1421 305 1421 c 2
 485 1417 l 2
 542 1413 584 1411 592 1411 c 0
 602 1411 643 1413 698 1417 c 0
 741 1419 819 1423 844 1423 c 0
 858 1423 864 1419 864 1409 c 0
 864 1405 864 1399 862 1391 c 2
 856 1366 l 2
 850 1339 848 1339 793 1339 c 0
 730 1339 696 1319 696 1278 c 0
 696 1266 696 1266 729 1153 c 2
 864 760 l 1
EndSplineSet
EndChar

StartChar: Z
Encoding: 58 90 58
Width: 1359
Flags: HMW
HStem: 0 98 1333 92<504 1354 651 1059>
VStem: 242 82
LayerCount: 2
Fore
SplineSet
1059 1333 m 1
 573 1333 l 2
 434 1333 371 1297 324 1188 c 0
 318 1174 313 1169 301 1169 c 0
 297 1169 287 1172 283 1174 c 2
 258 1184 l 2
 246 1190 242 1194 242 1202 c 0
 242 1206 242 1209 246 1217 c 2
 352 1516 l 1
 418 1516 l 1
 492 1434 512 1425 651 1425 c 2
 1354 1425 l 2
 1377 1425 1382 1423 1382 1413 c 0
 1382 1407 1374 1392 1360 1372 c 2
 436 137 l 2
 418 117 418 117 418 111 c 0
 418 103 430 98 463 98 c 2
 815 100 l 2
 952 102 993 107 1024 121 c 0
 1044 133 1065 150 1081 168 c 0
 1099 193 1112 211 1122 229 c 2
 1159 289 l 2
 1177 318 1188 328 1196 328 c 2
 1210 326 l 1
 1235 315 l 2
 1249 311 1257 303 1257 293 c 0
 1257 289 1255 280 1251 270 c 0
 1220 194 1189 92 1171 18 c 0
 1167 -7 1161 -10 1145 -10 c 2
 1022 -8 l 2
 940 -4 677 0 616 0 c 2
 252 -6 l 2
 197 -8 152 -10 123 -10 c 0
 92 -10 78 0 78 18 c 0
 78 28 88 45 111 76 c 2
 1059 1333 l 1
EndSplineSet
EndChar

StartChar: bracketleft
Encoding: 59 91 59
Width: 604
Flags: HMW
HStem: -319 74<332 336 332 332> 1421 76
LayerCount: 2
Fore
SplineSet
-111 -289 m 1
 412 1462 l 2
 420 1493 424 1497 444 1497 c 0
 452 1497 483 1495 520 1493 c 0
 536 1491 555 1491 580 1491 c 0
 631 1491 688 1493 727 1495 c 0
 768 1499 807 1501 827 1501 c 0
 833 1501 838 1499 838 1493 c 0
 838 1489 838 1489 834 1477 c 2
 823 1434 l 2
 821 1428 817 1423 813 1423 c 2
 803 1421 l 1
 786 1421 l 1
 702 1421 l 2
 589 1421 580 1413 543 1288 c 2
 141 -70 l 2
 112 -162 113 -161 113 -184 c 0
 113 -209 125 -228 150 -236 c 0
 168 -244 179 -246 285 -246 c 2
 344 -246 l 2
 367 -246 367 -246 367 -252 c 0
 367 -254 366 -254 362 -266 c 2
 350 -301 l 2
 344 -317 344 -319 336 -319 c 2
 332 -319 l 2
 297 -317 158 -313 115 -313 c 0
 49 -313 49 -314 -68 -322 c 0
 -78 -324 -92 -324 -102 -324 c 0
 -112 -324 -117 -321 -117 -313 c 2
 -115 -301 l 1
 -111 -289 l 1
EndSplineSet
EndChar

StartChar: backslash
Encoding: 60 92 60
Width: 1019
Flags: HMW
HStem: 1413 41G<352 438 438 451>
VStem: 324 514
LayerCount: 2
Fore
SplineSet
352 1454 m 2
 438 1454 l 2
 463 1454 469 1448 475 1425 c 2
 831 -8 l 2
 835 -20 838 -33 838 -37 c 0
 838 -43 829 -47 809 -47 c 2
 737 -47 l 2
 704 -47 688 -39 684 -16 c 2
 328 1419 l 2
 326 1427 324 1436 324 1440 c 0
 324 1448 336 1454 352 1454 c 2
EndSplineSet
EndChar

StartChar: bracketright
Encoding: 61 93 61
Width: 604
Flags: HMW
HStem: -322 76 1421 74<296 317 315 317 315 367>
LayerCount: 2
Fore
SplineSet
760 1464 m 1
 240 -287 l 2
 230 -318 228 -322 205 -322 c 0
 199 -322 168 -319 131 -317 c 0
 113 -315 97 -315 70 -315 c 0
 27 -315 -35 -317 -76 -319 c 0
 -117 -321 -158 -324 -174 -324 c 0
 -182 -324 -186 -321 -186 -315 c 0
 -186 -313 -186 -313 -184 -301 c 2
 -172 -258 l 2
 -170 -252 -168 -250 -164 -248 c 2
 -154 -246 l 1
 -135 -246 l 1
 -51 -246 l 2
 60 -246 69 -238 106 -113 c 2
 510 1245 l 2
 539 1335 539 1335 539 1360 c 0
 539 1385 527 1403 502 1411 c 0
 482 1419 471 1421 367 1421 c 2
 307 1421 l 2
 284 1421 285 1421 285 1427 c 0
 285 1429 285 1430 289 1442 c 2
 301 1477 l 2
 305 1493 307 1495 315 1495 c 2
 317 1495 l 2
 354 1493 494 1489 537 1489 c 0
 605 1489 604 1489 719 1497 c 0
 731 1499 746 1499 754 1499 c 0
 764 1499 768 1495 768 1489 c 2
 766 1477 l 1
 760 1464 l 1
EndSplineSet
EndChar

StartChar: asciicircum
Encoding: 62 94 62
Width: 1019
Flags: HMW
HStem: 993 543<98 571 451 924>
VStem: 451 121<1536 1536>
LayerCount: 2
Fore
SplineSet
539 1174 m 2
 512 1200 l 1
 502 1190 493 1182 483 1174 c 0
 387 1068 264 1009 98 993 c 1
 98 1085 l 1
 284 1179 439 1376 451 1536 c 1
 571 1536 l 1
 581 1378 738 1179 924 1085 c 1
 924 993 l 1
 760 1007 633 1070 539 1174 c 2
EndSplineSet
EndChar

StartChar: underscore
Encoding: 63 95 63
Width: 1019
Flags: HMW
HStem: -512 104<-2 1022 -2 1022>
LayerCount: 2
Fore
SplineSet
-2 -408 m 1
 1022 -408 l 1
 1022 -512 l 1
 -2 -512 l 1
 -2 -408 l 1
EndSplineSet
EndChar

StartChar: quoteleft
Encoding: 340 8216 64
Width: 528
Flags: HMW
HStem: 1356 68<662 674>
VStem: 246 162<1012 1204>
LayerCount: 2
Fore
SplineSet
674 1423 m 1
 662 1356 l 1
 484 1309 408 1249 408 1159 c 0
 408 1120 424 1099 473 1079 c 0
 547 1048 567 1026 567 971 c 0
 567 901 512 852 434 852 c 0
 319 852 246 942 246 1081 c 0
 246 1185 299 1267 416 1335 c 0
 486 1378 553 1400 674 1423 c 1
EndSplineSet
EndChar

StartChar: a
Encoding: 65 97 65
Width: 1056
Flags: HMW
HStem: -39 182<150 368> 743 131
VStem: 57 209<207 286> 578 205<33 232>
LayerCount: 2
Fore
SplineSet
965 299 m 1
 1012 258 l 1
 881 61 770 -39 682 -39 c 0
 621 -39 578 2 578 63 c 0
 578 118 577 119 651 340 c 0
 657 356 664 377 668 395 c 1
 584 274 561 241 510 178 c 0
 406 45 282 -39 190 -39 c 0
 108 -39 57 27 57 129 c 0
 57 442 467 874 764 874 c 0
 784 874 805 872 850 864 c 1
 911 950 918 954 969 954 c 0
 1016 954 1042 946 1042 934 c 0
 1042 930 1040 917 1036 911 c 2
 901 575 l 2
 821 374 782 256 782 209 c 0
 782 178 799 156 819 156 c 0
 848 156 869 174 965 299 c 1
676 743 m 0
 604 747 496 677 406 573 c 0
 322 471 266 342 266 240 c 0
 266 174 289 143 334 143 c 0
 402 143 465 205 582 383 c 0
 678 524 750 657 750 690 c 0
 750 721 721 741 676 743 c 0
EndSplineSet
Substitution2: "smcpLowercasetoSmallCapitalslookup subtable" a.smcp
EndChar

StartChar: b
Encoding: 66 98 66
Width: 1132
Flags: HMW
HStem: -39 119<372 453> 883 41G<823 954> 1440 63<264 283>
VStem: 864 223<627 694>
LayerCount: 2
Fore
SplineSet
694 1567 m 1
 358 512 l 1
 555 776 747 924 899 924 c 0
 1010 924 1087 838 1087 717 c 0
 1087 377 637 -39 268 -39 c 0
 151 -39 74 23 74 115 c 0
 74 168 90 249 123 358 c 2
 324 1024 l 2
 373 1186 414 1349 414 1378 c 0
 414 1423 387 1436 264 1440 c 1
 283 1503 l 1
 451 1526 496 1536 678 1583 c 1
 694 1567 l 1
776 762 m 0
 696 768 586 688 467 541 c 0
 363 408 303 289 295 197 c 0
 289 131 338 80 406 80 c 0
 512 80 639 189 756 379 c 0
 830 502 864 590 864 664 c 0
 864 725 833 758 776 762 c 0
EndSplineSet
Substitution2: "smcpLowercasetoSmallCapitalslookup subtable" b.smcp
EndChar

StartChar: c
Encoding: 67 99 67
Width: 868
Flags: HMW
HStem: -39 143<412 447> 844 80<524 612>
VStem: 70 221<258 457 258 458> 672 223<705 768>
LayerCount: 2
Fore
SplineSet
713 231 m 1
 760 193 l 1
 635 25 527 -39 369 -39 c 0
 183 -39 70 86 70 291 c 0
 70 625 338 924 635 924 c 0
 789 924 895 848 895 739 c 0
 895 669 848 623 778 623 c 0
 704 623 672 659 672 745 c 0
 672 790 670 805 662 817 c 0
 652 831 625 844 600 844 c 0
 448 844 291 582 291 332 c 0
 291 185 354 104 469 104 c 0
 555 104 615 135 713 231 c 1
EndSplineSet
Substitution2: "smcpLowercasetoSmallCapitalslookup subtable" c.smcp
EndChar

StartChar: d
Encoding: 68 100 68
Width: 1132
Flags: HMW
HStem: -39 162<344 351> 842 82<623 699> 1438 68<801 823>
VStem: 641 199<27 189>
LayerCount: 2
Fore
SplineSet
1024 307 m 1
 1077 268 l 1
 911 22 844 -39 731 -39 c 0
 674 -39 641 -4 641 57 c 0
 641 100 641 100 682 254 c 1
 690 295 l 1
 528 43 426 -39 276 -39 c 0
 145 -39 66 61 66 229 c 0
 66 583 367 924 680 924 c 0
 733 924 770 916 840 889 c 1
 911 1137 l 2
 970 1340 971 1339 971 1368 c 0
 971 1421 942 1434 801 1438 c 1
 823 1505 l 1
 966 1519 1076 1542 1217 1581 c 1
 1239 1563 l 1
 885 377 l 2
 865 311 840 201 840 178 c 0
 840 155 850 143 866 143 c 0
 901 143 928 172 1024 307 c 1
664 842 m 0
 582 842 497 788 436 696 c 0
 352 569 295 400 287 248 c 0
 283 170 316 123 373 123 c 0
 447 123 522 177 600 281 c 0
 694 410 786 629 786 729 c 0
 786 795 736 842 664 842 c 0
EndSplineSet
Substitution2: "smcpLowercasetoSmallCapitalslookup subtable" d.smcp
EndChar

StartChar: e
Encoding: 69 101 69
Width: 868
Flags: HMW
HStem: -39 131<409 449> 844 80<566 620>
VStem: 68 223<237 315 237 358> 688 186<698 750>
LayerCount: 2
Fore
SplineSet
700 213 m 1
 743 176 l 1
 620 16 527 -39 371 -39 c 0
 181 -39 68 75 68 270 c 0
 68 446 143 627 274 762 c 0
 378 871 498 924 635 924 c 0
 780 924 874 850 874 735 c 0
 874 635 803 544 672 483 c 0
 588 444 463 417 303 403 c 1
 293 354 291 332 291 299 c 0
 291 174 359 92 459 92 c 0
 539 92 610 127 700 213 c 1
313 485 m 1
 383 489 436 500 483 516 c 0
 600 559 688 655 688 741 c 0
 688 757 682 778 666 811 c 0
 654 831 633 844 606 844 c 0
 510 844 393 702 313 485 c 1
EndSplineSet
Substitution2: "smcpLowercasetoSmallCapitalslookup subtable" e.smcp
EndChar

StartChar: f
Encoding: 70 102 70
Width: 604
Flags: HMW
HStem: -522 123<-20 -17> 768 92<86 264 123 246 500 659> 1483 90<699 731>
LayerCount: 2
Fore
SplineSet
481 768 m 1
 350 186 l 2
 248 -263 77 -522 -113 -522 c 0
 -176 -522 -215 -487 -215 -430 c 0
 -215 -373 -174 -324 -127 -324 c 0
 -100 -324 -78 -338 -49 -375 c 0
 -35 -391 -24 -399 -16 -399 c 0
 13 -399 61 -258 94 -74 c 2
 246 768 l 1
 98 768 l 2
 73 768 70 770 70 780 c 0
 70 782 70 787 72 791 c 2
 76 807 l 1
 84 836 l 2
 90 861 90 860 123 860 c 2
 264 860 l 1
 268 880 270 902 274 920 c 0
 307 1110 309 1118 342 1202 c 0
 440 1450 582 1573 770 1573 c 0
 883 1573 969 1516 969 1440 c 0
 969 1389 926 1346 877 1346 c 0
 838 1346 815 1364 788 1419 c 0
 770 1460 744 1483 719 1483 c 0
 680 1483 626 1433 608 1380 c 0
 563 1257 547 1186 500 860 c 1
 682 860 l 2
 705 860 709 858 709 850 c 0
 709 846 709 845 705 831 c 2
 698 797 l 2
 692 768 692 768 659 768 c 2
 481 768 l 1
EndSplineSet
Substitution2: "smcpLowercasetoSmallCapitalslookup subtable" f.smcp
EndChar

StartChar: g
Encoding: 71 103 71
Width: 983
Flags: HW
HStem: -553 82<292 445 292 526> 252 80 748 131<991 1025> 844 80<535 592 435 605>
VStem: -82 180<-337 -243 -343 -240> 139 197<473 515 436 651> 186 195<49 184> 631 221<-356 -267> 682 207<493 735>
LayerCount: 2
Fore
SplineSet
770 860 m 1xdc
 991 877 l 2
 1011 879 1012 879 1018 879 c 0
 1032 879 1042 870 1042 858 c 0
 1042 854 1040 845 1034 827 c 2
 1014 774 l 2
 1006 751 1001 748 991 748 c 2
 965 750 l 1
 848 756 l 1
 881 688 889 657 889 600 c 0xec80
 889 385 727 260 442 252 c 1
 397 219 381 199 381 170 c 0
 381 127 411 105 571 35 c 0
 690 -20 739 -49 780 -90 c 0
 827 -141 852 -200 852 -268 c 0
 852 -446 674 -553 379 -553 c 0
 203 -553 61 -514 -25 -442 c 0
 -62 -411 -82 -364 -82 -309 c 0
 -82 -170 6 -102 276 -39 c 1
 210 0 186 29 186 70 c 0xeb
 186 125 222 170 326 246 c 2
 358 270 l 1
 202 325 139 404 139 543 c 0
 139 760 317 924 553 924 c 0
 631 924 678 911 770 860 c 1xdc
569 844 m 0xdc80
 499 844 444 801 399 713 c 0
 358 635 336 549 336 481 c 0
 336 391 385 332 463 332 c 0
 520 332 567 363 606 424 c 0
 655 502 682 596 682 686 c 0
 682 784 641 844 569 844 c 0xdc80
354 -84 m 1
 172 -135 98 -195 98 -291 c 0
 98 -395 213 -471 371 -471 c 0
 521 -471 631 -403 631 -309 c 0xc9
 631 -225 553 -162 354 -84 c 1
EndSplineSet
Substitution2: "smcpLowercasetoSmallCapitalslookup subtable" g.smcp
EndChar

StartChar: h
Encoding: 72 104 72
Width: 1132
Flags: HMW
HStem: -39 131<518 663> 780 143<758 968> 1440 66<305 305 305 348>
VStem: 47 215 852 223<638 714>
LayerCount: 2
Fore
SplineSet
291 1440 m 1
 305 1505 l 1
 407 1515 540 1542 690 1581 c 1
 715 1571 l 1
 623 1251 l 1
 567 1063 l 2
 553 1012 538 962 522 913 c 0
 510 878 497 842 487 807 c 2
 379 459 l 1
 504 645 525 672 580 731 c 0
 699 860 809 924 918 924 c 0
 1018 924 1075 843 1075 700 c 0
 1075 555 1004 365 885 195 c 0
 779 41 664 -39 551 -39 c 0
 485 -39 440 -2 440 53 c 0
 440 108 481 152 530 152 c 0
 557 152 579 142 604 117 c 0
 627 97 631 92 645 92 c 0
 680 92 729 162 764 262 c 0
 813 409 852 592 852 684 c 0
 852 743 832 780 797 780 c 0
 719 780 619 688 502 512 c 0
 420 389 297 157 262 63 c 0
 239 6 231 -12 221 -18 c 0
 213 -26 190 -29 139 -29 c 0
 71 -29 47 -21 47 2 c 0
 47 14 47 16 182 430 c 0
 211 520 235 606 258 686 c 2
 377 1098 l 2
 408 1207 440 1347 440 1372 c 0
 440 1423 406 1440 291 1440 c 1
EndSplineSet
Substitution2: "smcpLowercasetoSmallCapitalslookup subtable" h.smcp
EndChar

StartChar: i
Encoding: 73 105 73
Width: 641
Flags: HW
HStem: -39 170<164 367> 739 184<234 449> 1192 260<482 554 482 555>
VStem: 57 465<672 850> 389 260<1286 1357>
LayerCount: 2
Fore
SplineSet
537 287 m 1xf0
 586 246 l 1
 441 58 312 -39 201 -39 c 0
 127 -39 76 7 76 68 c 0
 76 115 92 166 201 436 c 0
 262 594 291 679 291 702 c 0
 291 722 274 739 254 739 c 0
 215 739 187 719 109 639 c 0
 105 635 100 633 96 633 c 0
 94 633 92 635 84 641 c 2
 66 659 l 2
 60 665 57 670 57 674 c 0
 57 678 64 688 82 711 c 0
 191 840 324 924 414 924 c 0
 484 924 522 885 522 815 c 0
 522 747 514 721 410 457 c 0
 394 414 393 414 377 375 c 2
 322 233 l 2
 312 210 307 190 307 176 c 0
 307 151 328 131 348 131 c 0
 385 131 422 162 537 287 c 1xf0
518 1452 m 0
 590 1452 649 1395 649 1323 c 0
 649 1249 592 1192 518 1192 c 0
 446 1192 389 1251 389 1321 c 0xe8
 389 1393 446 1452 518 1452 c 0
EndSplineSet
Substitution2: "smcpLowercasetoSmallCapitalslookup subtable" i.smcp
EndChar

StartChar: j
Encoding: 74 106 74
Width: 604
Flags: HW
HStem: -553 117<-124 12> 739 184<289 481> 1192 260<506 578>
VStem: 338 229<690 841> 412 260<1286 1357>
LayerCount: 2
Fore
SplineSet
59 -336 m 2xf0
 311 573 l 2
 329 639 338 680 338 700 c 0
 338 720 321 739 303 739 c 0
 274 739 227 706 168 645 c 0
 145 622 139 616 133 616 c 0
 131 616 131 617 121 627 c 2
 102 645 l 2
 92 653 92 655 92 657 c 0
 92 667 138 719 201 782 c 0
 301 886 366 924 442 924 c 0
 520 924 567 879 567 803 c 0
 567 748 559 707 483 424 c 0
 391 80 356 -21 268 -203 c 0
 155 -441 39 -553 -92 -553 c 0
 -155 -553 -203 -508 -203 -449 c 0
 -203 -394 -170 -354 -121 -354 c 0
 -84 -354 -64 -371 -31 -418 c 0
 -23 -430 -14 -436 -2 -436 c 0
 27 -436 36 -422 59 -336 c 2xf0
541 1452 m 0
 615 1452 672 1395 672 1323 c 0
 672 1249 615 1192 541 1192 c 0
 471 1192 412 1251 412 1321 c 0xe8
 412 1393 471 1452 541 1452 c 0
EndSplineSet
Substitution2: "smcpLowercasetoSmallCapitalslookup subtable" j.smcp
EndChar

StartChar: k
Encoding: 75 107 75
Width: 1095
Flags: HMW
HStem: -39 143<752 900> 793 131<756 951> 1442 63<299 317>
VStem: 870 197<670 729>
LayerCount: 2
Fore
SplineSet
299 1442 m 1
 317 1505 l 1
 346 1509 l 1
 518 1538 l 2
 547 1542 625 1558 713 1583 c 1
 735 1567 l 1
 463 672 l 1
 531 740 555 762 594 797 c 0
 688 881 793 924 899 924 c 0
 1003 924 1067 859 1067 750 c 0
 1067 590 908 480 629 449 c 1
 678 416 704 376 743 274 c 0
 792 145 826 104 877 104 c 0
 924 104 973 143 1024 223 c 1
 1061 190 l 1
 957 20 881 -39 770 -39 c 0
 733 -39 697 -26 674 -6 c 0
 617 43 603 72 535 262 c 0
 482 407 461 437 395 451 c 1
 272 51 l 2
 249 -23 244 -27 168 -27 c 0
 98 -27 61 -13 61 12 c 0
 61 30 131 246 221 512 c 0
 256 618 283 699 295 748 c 2
 422 1208 l 2
 461 1349 461 1350 461 1370 c 0
 461 1423 426 1440 299 1442 c 1
412 516 m 1
 451 516 l 2
 725 516 870 581 870 702 c 0
 870 755 844 793 807 793 c 0
 705 793 545 680 412 516 c 1
EndSplineSet
Substitution2: "smcpLowercasetoSmallCapitalslookup subtable" k.smcp
EndChar

StartChar: l
Encoding: 76 108 76
Width: 604
Flags: HMW
HStem: -35 170<168 356> 1438 63<256 268>
VStem: 80 223<54 211>
LayerCount: 2
Fore
SplineSet
508 281 m 1
 557 240 l 1
 375 27 295 -35 201 -35 c 0
 135 -35 80 20 80 88 c 0
 80 139 109 262 164 446 c 2
 362 1094 l 2
 407 1246 426 1323 426 1360 c 0
 426 1417 383 1436 256 1438 c 1
 268 1501 l 1
 528 1536 543 1538 686 1581 c 1
 709 1559 l 1
 568 1145 303 244 303 178 c 0
 303 151 315 135 338 135 c 0
 375 135 381 140 508 281 c 1
EndSplineSet
Substitution2: "smcpLowercasetoSmallCapitalslookup subtable" l.smcp
EndChar

StartChar: m
Encoding: 77 109 77
Width: 1662
Flags: HMW
HStem: -27 31G 780 143
VStem: 291 184<644 844> 793 207<683 829> 1331 215
LayerCount: 2
Fore
SplineSet
131 618 m 1
 84 647 l 1
 160 815 273 924 373 924 c 0
 441 924 475 883 475 805 c 0
 475 752 469 710 446 618 c 1
 471 649 l 1
 537 735 l 2
 625 850 746 924 852 924 c 0
 938 924 999 869 999 791 c 0
 999 771 993 731 983 686 c 2
 975 641 l 2
 979 645 1022 692 1106 780 c 0
 1190 872 1300 924 1413 924 c 0
 1491 924 1546 868 1546 788 c 0
 1546 720 1522 641 1448 457 c 0
 1387 307 1364 236 1364 193 c 0
 1364 162 1376 145 1403 145 c 0
 1432 145 1485 197 1546 281 c 1
 1591 233 l 1
 1456 53 1337 -39 1235 -39 c 0
 1167 -39 1122 8 1122 76 c 0
 1122 133 1145 204 1225 399 c 0
 1297 569 1331 678 1331 719 c 0
 1331 752 1303 780 1266 780 c 0
 1188 780 1073 674 983 518 c 0
 938 436 846 215 801 80 c 0
 766 -24 766 -27 705 -27 c 0
 629 -27 580 -13 580 12 c 0
 580 16 586 39 590 53 c 2
 741 489 l 2
 768 565 793 665 793 700 c 0
 793 745 762 780 721 780 c 0
 651 780 577 702 487 532 c 0
 428 415 315 152 276 33 c 0
 262 -16 246 -27 193 -27 c 0
 113 -27 74 -13 74 18 c 0
 74 30 80 58 86 74 c 2
 215 401 l 2
 250 491 291 628 291 659 c 0
 291 692 273 715 246 715 c 0
 209 715 170 679 131 618 c 1
EndSplineSet
Substitution2: "smcpLowercasetoSmallCapitalslookup subtable" m.smcp
EndChar

StartChar: n
Encoding: 78 110 78
Width: 1132
Flags: HW
HStem: -39 182<673 890> 780 143
VStem: 313 186<633 847> 602 233<39 203> 811 221<719 827>
LayerCount: 2
Fore
SplineSet
154 616 m 1xe8
 109 653 l 1
 175 757 192 784 231 831 c 0
 278 888 340 924 395 924 c 0
 461 924 500 883 500 811 c 0
 500 782 491 727 479 670 c 2
 467 618 l 1
 539 704 563 733 600 772 c 0
 690 866 803 924 903 924 c 0
 973 924 1032 863 1032 793 c 0xe8
 1032 730 1020 690 930 467 c 0
 871 324 836 217 836 188 c 0
 836 161 851 143 874 143 c 0
 905 143 928 164 1006 252 c 2
 1026 279 l 1
 1071 236 l 1
 905 29 816 -39 705 -39 c 0
 642 -39 602 4 602 74 c 0xf0
 602 137 635 239 762 571 c 0
 797 659 811 706 811 731 c 0
 811 741 811 741 793 766 c 0
 781 780 780 780 766 780 c 0
 660 780 529 613 418 334 c 2
 313 74 l 2
 305 56 299 36 293 18 c 0
 279 -21 266 -27 217 -27 c 0
 135 -27 94 -13 94 16 c 0
 94 26 98 57 102 63 c 2
 231 381 l 2
 276 492 313 614 313 651 c 0
 313 688 293 713 264 713 c 0
 231 713 205 690 154 616 c 1xe8
EndSplineSet
Substitution2: "smcpLowercasetoSmallCapitalslookup subtable" n.smcp
EndChar

StartChar: o
Encoding: 79 111 79
Width: 980
Flags: HMW
HStem: -39 78<366 428 366 539> 848 76<590 590>
VStem: 76 221<228 272 146 500> 690 221<597 659 389 731>
LayerCount: 2
Fore
SplineSet
590 924 m 0
 780 924 911 770 911 549 c 0
 911 230 678 -39 399 -39 c 0
 202 -39 76 113 76 344 c 0
 76 655 316 924 590 924 c 0
590 848 m 0
 531 850 471 800 420 702 c 0
 354 573 297 344 297 201 c 0
 297 92 331 39 399 39 c 0
 456 39 512 80 559 158 c 0
 629 273 690 518 690 676 c 0
 690 787 656 844 590 848 c 0
EndSplineSet
Substitution2: "smcpLowercasetoSmallCapitalslookup subtable" o.smcp
EndChar

StartChar: p
Encoding: 80 112 80
Width: 1132
Flags: HMW
HStem: -553 78<332 371> -39 82<470 528> 823 100<665 943>
VStem: 858 223<565 675>
LayerCount: 2
Fore
SplineSet
375 831 m 1
 428 1008 l 2
 451 1082 456 1087 526 1087 c 0
 606 1087 629 1080 629 1049 c 0
 629 1033 628 1030 612 983 c 2
 580 881 l 1
 738 916 796 924 872 924 c 0
 1013 924 1081 833 1081 647 c 0
 1081 483 1012 315 883 176 c 0
 756 35 607 -39 451 -39 c 0
 406 -39 375 -34 309 -20 c 1
 246 -238 l 2
 238 -271 227 -303 217 -332 c 0
 209 -359 203 -385 203 -399 c 0
 203 -454 242 -473 367 -475 c 0
 375 -475 379 -477 379 -481 c 0
 379 -485 379 -486 373 -506 c 2
 367 -532 l 2
 363 -548 358 -553 344 -553 c 0
 319 -553 319 -553 213 -545 c 0
 168 -543 127 -541 92 -541 c 0
 39 -541 39 -541 -96 -551 c 0
 -108 -553 -133 -553 -143 -553 c 0
 -153 -553 -160 -549 -160 -543 c 0
 -160 -541 -160 -540 -156 -522 c 2
 -152 -494 l 2
 -148 -476 -143 -471 -127 -471 c 0
 -27 -475 15 -424 74 -217 c 2
 350 739 l 1
 266 708 209 684 96 631 c 1
 68 696 l 1
 117 723 155 741 223 768 c 2
 375 831 l 1
555 801 m 1
 424 348 l 2
 385 219 381 205 381 164 c 0
 381 92 432 43 508 43 c 0
 580 43 649 82 700 154 c 0
 794 281 858 465 858 610 c 0
 858 739 788 823 682 823 c 0
 647 823 621 819 555 801 c 1
EndSplineSet
Substitution2: "smcpLowercasetoSmallCapitalslookup subtable" p.smcp
EndChar

StartChar: q
Encoding: 81 113 81
Width: 1095
Flags: HMW
HStem: -553 82<813 842> -39 100<325 335> 883 41G<569 777 1036 1057 1057 1067>
VStem: 827 256<611 916>
LayerCount: 2
Fore
SplineSet
512 -340 m 2
 700 266 l 1
 548 55 412 -39 258 -39 c 0
 141 -39 59 58 59 193 c 0
 59 549 405 924 733 924 c 0
 821 924 869 897 924 817 c 1
 1008 923 1007 924 1036 924 c 2
 1057 924 l 2
 1077 924 1083 921 1083 911 c 0
 1083 907 1083 907 1073 870 c 2
 786 -90 l 2
 743 -240 715 -360 715 -399 c 0
 715 -448 746 -467 836 -471 c 0
 848 -471 854 -475 854 -481 c 0
 854 -485 854 -486 850 -504 c 2
 842 -530 l 2
 838 -550 835 -553 823 -553 c 0
 803 -553 781 -553 754 -551 c 0
 705 -547 600 -543 571 -543 c 0
 540 -543 493 -545 391 -551 c 0
 371 -553 348 -553 336 -553 c 0
 324 -553 315 -549 315 -541 c 2
 315 -541 315 -534 317 -526 c 2
 324 -494 l 2
 326 -476 330 -473 350 -471 c 0
 459 -465 479 -449 512 -340 c 2
731 844 m 0
 661 848 561 765 467 618 c 0
 358 452 289 285 281 166 c 0
 277 105 303 61 346 61 c 0
 516 61 827 493 827 729 c 0
 827 797 790 840 731 844 c 0
EndSplineSet
Substitution2: "smcpLowercasetoSmallCapitalslookup subtable" q.smcp
EndChar

StartChar: r
Encoding: 82 114 82
Width: 792
Flags: HMW
HStem: -27 43G<161 224> 727 197
VStem: 268 182<614 826>
LayerCount: 2
Fore
SplineSet
113 625 m 1
 68 651 l 1
 166 846 244 924 342 924 c 0
 412 924 451 872 451 780 c 0
 451 735 446 706 426 604 c 2
 416 557 l 1
 440 596 l 1
 502 707 l 2
 582 854 668 924 766 924 c 0
 825 924 864 886 864 829 c 0
 864 741 827 682 774 682 c 0
 756 682 740 687 705 705 c 0
 670 721 651 727 639 727 c 0
 580 727 486 586 412 383 c 2
 305 88 l 2
 266 -12 254 -27 195 -27 c 0
 127 -27 82 -6 82 27 c 0
 82 45 88 73 98 100 c 0
 243 497 268 579 268 649 c 0
 268 690 252 715 223 715 c 0
 192 715 180 707 123 637 c 2
 113 625 l 1
EndSplineSet
Substitution2: "smcpLowercasetoSmallCapitalslookup subtable" r.smcp
EndChar

StartChar: s
Encoding: 83 115 83
Width: 679
Flags: HMW
HStem: -39 100<300 302> 807 117<338 521>
VStem: 131 139<549 746> 424 168<137 332>
LayerCount: 2
Fore
SplineSet
106 197 m 0
 141 197 162 184 209 131 c 0
 256 76 280 61 319 61 c 0
 376 61 424 109 424 166 c 0
 424 217 391 262 287 358 c 0
 158 473 131 512 131 586 c 0
 131 762 293 924 469 924 c 0
 573 924 647 873 647 799 c 0
 647 748 621 715 578 715 c 0
 543 715 514 727 463 762 c 0
 416 797 391 807 362 807 c 0
 313 807 270 768 270 725 c 0
 270 694 295 657 350 606 c 2
 496 469 l 2
 570 399 592 360 592 303 c 0
 592 135 397 -39 207 -39 c 0
 113 -39 31 29 31 109 c 0
 31 160 63 197 106 197 c 0
EndSplineSet
Substitution2: "smcpLowercasetoSmallCapitalslookup subtable" s.smcp
EndChar

StartChar: t
Encoding: 84 116 84
Width: 641
Flags: HMW
HStem: -39 160<190 394> 770 92<127 293 162 264 494 649>
VStem: 82 227<55 190>
LayerCount: 2
Fore
SplineSet
553 258 m 1
 602 219 l 1
 473 35 367 -39 236 -39 c 0
 146 -39 82 16 82 94 c 0
 82 133 82 133 162 416 c 2
 264 770 l 1
 139 770 l 2
 114 770 109 772 109 786 c 2
 111 807 l 1
 115 834 l 2
 119 859 125 862 162 862 c 2
 293 862 l 1
 332 999 l 2
 369 1126 381 1141 455 1141 c 0
 533 1141 563 1129 563 1100 c 0
 563 1088 563 1087 549 1044 c 2
 494 862 l 1
 664 862 l 2
 689 862 694 858 694 844 c 0
 694 838 694 829 692 823 c 2
 686 799 l 2
 682 772 678 770 649 770 c 2
 465 770 l 1
 340 317 l 2
 313 219 309 203 309 178 c 0
 309 143 330 121 365 121 c 0
 424 121 473 158 553 258 c 1
EndSplineSet
Substitution2: "smcpLowercasetoSmallCapitalslookup subtable" t.smcp
EndChar

StartChar: u
Encoding: 85 117 85
Width: 1095
Flags: HMW
HStem: -39 178<686 882> 741 182<241 446>
VStem: 606 225<24 196>
LayerCount: 2
Fore
SplineSet
1008 279 m 1
 1059 236 l 1
 905 35 815 -39 719 -39 c 0
 653 -39 606 -2 606 49 c 0
 606 84 631 178 662 260 c 2
 760 514 l 2
 783 575 785 585 793 610 c 2
 535 252 l 1
 365 35 276 -39 180 -39 c 0
 127 -39 88 -6 88 35 c 0
 88 78 107 141 193 383 c 0
 275 614 289 659 289 690 c 0
 289 723 275 741 252 741 c 0
 229 741 215 729 154 657 c 2
 139 641 l 1
 90 678 l 1
 252 875 316 924 414 924 c 0
 480 924 524 884 524 831 c 0
 524 772 504 707 406 455 c 0
 394 422 383 391 371 360 c 0
 357 325 344 289 330 252 c 0
 320 232 315 211 315 199 c 0
 315 183 328 170 342 170 c 0
 373 170 450 251 559 401 c 0
 639 510 809 768 848 838 c 0
 881 897 901 913 946 913 c 0
 1014 913 1059 893 1059 858 c 0
 1059 840 1059 840 1034 772 c 2
 868 326 l 2
 848 271 831 207 831 184 c 0
 831 159 848 139 868 139 c 0
 895 139 922 164 1008 279 c 1
EndSplineSet
Substitution2: "smcpLowercasetoSmallCapitalslookup subtable" u.smcp
EndChar

StartChar: v
Encoding: 86 118 86
Width: 1171
Flags: HW
HStem: -39 182<555 590> 752 158<524 532> 752 172<312 313 313 352 312 532>
VStem: 72 106<516 680> 268 172<127 388> 989 141<555 809>
LayerCount: 2
Fore
SplineSet
532 752 m 1xdc
 313 752 l 2
 258 752 241 749 221 739 c 0
 194 727 178 697 178 664 c 0
 178 644 180 641 207 627 c 0
 240 609 254 584 254 549 c 0
 254 496 215 455 164 455 c 0
 111 455 72 492 72 541 c 0
 72 621 125 742 203 846 c 0
 246 901 285 924 340 924 c 0xbc
 365 924 403 921 444 915 c 0
 483 911 512 909 537 909 c 0
 560 909 590 911 625 915 c 0
 648 919 670 922 680 922 c 0
 707 922 725 915 725 907 c 0
 725 903 719 891 709 877 c 2
 637 778 l 2
 510 604 440 447 440 330 c 0
 440 224 510 143 600 143 c 0
 696 143 801 205 877 307 c 0
 945 397 989 512 989 598 c 0
 989 661 979 680 918 737 c 0
 902 753 891 778 891 803 c 0
 891 871 940 922 1006 922 c 0
 1086 922 1130 862 1130 756 c 0
 1130 609 1063 426 942 248 c 0
 811 55 670 -39 510 -39 c 0
 367 -39 268 58 268 197 c 0
 268 328 346 490 532 752 c 1xdc
EndSplineSet
Substitution2: "smcpLowercasetoSmallCapitalslookup subtable" v.smcp
EndChar

StartChar: w
Encoding: 87 119 87
Width: 1585
Flags: HW
HStem: -39 180<419 628 1021 1030> 752 158<311 544> 762 162
VStem: 57 106<521 681> 254 172<126 390> 760 121<302 479> 1077 92<706 720> 1427 143<502 809>
LayerCount: 2
Fore
SplineSet
520 752 m 1xdf
 311 752 l 2xdf
 241 752 222 749 199 735 c 0
 179 723 164 695 164 668 c 0
 164 648 170 639 190 627 c 0
 229 602 240 586 240 553 c 0
 240 496 200 453 145 453 c 0
 92 453 57 492 57 551 c 0
 57 623 108 736 186 840 c 0
 233 903 272 924 338 924 c 0xbf
 361 924 397 922 432 918 c 0
 475 912 510 909 530 909 c 0xdf
 557 909 588 912 621 918 c 0
 641 922 662 924 672 924 c 0
 692 924 709 915 709 905 c 0
 709 897 704 888 688 868 c 2
 625 784 l 2
 502 622 426 449 426 332 c 0
 426 219 496 141 596 141 c 0
 659 141 700 160 768 213 c 1
 762 266 760 290 760 313 c 0
 760 465 838 714 922 829 c 0
 969 895 1014 924 1071 924 c 0
 1134 924 1169 874 1169 782 c 0
 1169 628 1110 508 913 256 c 1
 952 174 992 141 1051 141 c 0
 1227 141 1427 391 1427 612 c 0
 1427 661 1416 684 1350 745 c 0
 1336 759 1327 778 1327 803 c 0
 1327 871 1380 924 1448 924 c 0xbf
 1524 924 1571 860 1571 758 c 0
 1571 588 1473 354 1321 170 c 0
 1215 39 1086 -39 975 -39 c 0
 883 -39 817 17 788 121 c 1
 645 -16 600 -39 487 -39 c 0
 350 -39 254 58 254 195 c 0
 254 308 286 391 399 573 c 0
 456 667 477 697 520 752 c 1xdf
891 336 m 1
 1002 481 1077 626 1077 700 c 0
 1077 739 1057 762 1022 762 c 0xbf
 985 762 961 739 934 690 c 0
 903 627 881 522 881 436 c 0
 881 401 883 381 891 336 c 1
EndSplineSet
Substitution2: "smcpLowercasetoSmallCapitalslookup subtable" w.smcp
EndChar

StartChar: x
Encoding: 88 120 88
Width: 980
Flags: HW
HStem: -39 143<605 780> -37 160<36 167> 762 162<224 380> 780 143
LayerCount: 2
Fore
SplineSet
909 262 m 1x90
 965 229 l 1
 859 20 790 -39 657 -39 c 0x90
 553 -39 504 14 463 172 c 2
 428 309 l 1
 324 166 l 2
 224 25 144 -37 66 -37 c 0
 7 -37 -27 0 -27 63 c 0
 -27 118 8 160 51 160 c 0
 71 160 82 156 117 133 c 0
 125 127 137 123 143 123 c 0
 190 123 279 213 379 369 c 2
 399 401 l 1
 358 553 l 2
 321 692 283 762 242 762 c 0
 207 762 188 739 145 641 c 1
 86 662 l 1
 164 855 230 924 332 924 c 0x60
 428 924 485 858 528 694 c 2
 553 602 l 1
 614 684 l 2
 710 807 746 846 795 879 c 0
 844 910 883 924 926 924 c 0
 979 924 1016 880 1016 819 c 0
 1016 749 983 702 934 702 c 0
 907 702 891 713 868 748 c 0
 852 777 845 780 831 780 c 0
 790 780 748 737 623 571 c 2
 575 508 l 1
 633 295 l 2
 670 156 703 104 754 104 c 0
 807 104 839 139 909 262 c 1x90
EndSplineSet
Substitution2: "smcpLowercasetoSmallCapitalslookup subtable" x.smcp
EndChar

StartChar: y
Encoding: 89 121 89
Width: 1019
Flags: HMW
HStem: -553 160<28 198> 739 182<266 291>
VStem: 408 205<88 88 88 302> 836 166<552 826>
LayerCount: 2
Fore
SplineSet
92 559 m 1
 31 578 l 1
 111 818 203 922 330 922 c 0
 430 922 510 834 553 676 c 0
 592 531 596 479 612 88 c 1
 729 285 l 2
 803 408 836 506 836 598 c 0
 836 645 827 682 807 735 c 0
 787 784 782 798 782 821 c 0
 782 880 830 924 893 924 c 0
 965 924 1001 874 1001 778 c 0
 1001 649 905 420 733 141 c 0
 481 -265 198 -553 53 -553 c 0
 2 -553 -37 -508 -37 -451 c 0
 -37 -396 0 -356 51 -356 c 0
 80 -356 92 -360 145 -385 c 0
 157 -391 166 -393 172 -393 c 0
 223 -393 328 -295 373 -205 c 0
 398 -152 408 -72 408 104 c 0
 408 499 344 739 238 739 c 0
 177 739 147 702 92 559 c 1
EndSplineSet
Substitution2: "smcpLowercasetoSmallCapitalslookup subtable" y.smcp
EndChar

StartChar: z
Encoding: 90 122 90
Width: 868
Flags: HMW
HStem: 0 88<248 248 248 342> 817 88<361 430 343 517>
VStem: 78 57<664 680> 731 66
LayerCount: 2
Fore
SplineSet
926 907 m 1
 928 868 l 1
 248 88 l 1
 328 84 418 82 475 82 c 0
 620 82 665 111 731 244 c 0
 737 254 742 258 750 258 c 0
 754 258 756 258 764 256 c 2
 778 252 l 2
 792 248 797 244 797 238 c 0
 797 232 796 232 784 203 c 2
 702 -10 l 1
 516 -2 409 0 274 0 c 0
 165 0 93 -2 -57 -8 c 1
 -59 35 l 1
 616 813 l 1
 569 817 544 817 489 817 c 0
 233 817 186 797 135 664 c 1
 78 680 l 1
 172 985 l 1
 223 985 l 1
 239 913 256 905 430 905 c 2
 926 907 l 1
EndSplineSet
Substitution2: "smcpLowercasetoSmallCapitalslookup subtable" z.smcp
EndChar

StartChar: braceleft
Encoding: 91 123 91
Width: 1019
Flags: HW
HStem: -483 84<711 725>
VStem: 244 274<-220 -166 -237 -157> 395 248<245 316> 545 268
LayerCount: 2
Fore
SplineSet
176 483 m 1xa0
 193 567 l 1
 355 626 424 665 479 733 c 0
 528 790 545 844 545 932 c 0
 545 940 545 968 543 999 c 0
 541 1034 541 1062 541 1085 c 0
 541 1210 590 1308 690 1384 c 0
 813 1478 934 1519 1180 1550 c 1
 1161 1466 l 1
 885 1360 823 1290 813 1073 c 0x90
 801 741 725 655 350 524 c 1
 567 448 643 381 643 260 c 0xa0
 643 213 629 159 588 57 c 0
 537 -74 518 -138 518 -195 c 0xc0
 518 -279 563 -323 725 -399 c 1
 711 -483 l 1
 537 -460 473 -442 395 -395 c 0xa0
 299 -338 244 -260 244 -180 c 0xc0
 244 -133 262 -82 309 18 c 0
 372 149 395 215 395 274 c 0
 395 358 338 413 176 483 c 1xa0
EndSplineSet
EndChar

StartChar: bar
Encoding: 92 124 92
Width: 1019
Flags: HMW
VStem: 457 104<-512 1536 -512 1536>
LayerCount: 2
Fore
SplineSet
457 1536 m 1
 561 1536 l 1
 561 -512 l 1
 457 -512 l 1
 457 1536 l 1
EndSplineSet
EndChar

StartChar: braceright
Encoding: 93 125 93
Width: 1019
Flags: HW
HStem: 1466 84<377 391>
VStem: 289 270 459 248<751 822 751 830> 584 274<1233 1287 1224 1304>
LayerCount: 2
Fore
SplineSet
926 584 m 1xa0
 909 500 l 1
 745 441 678 402 621 334 c 0
 572 277 555 223 555 135 c 0
 555 127 555 99 557 68 c 0
 559 33 559 5 559 -18 c 0
 559 -143 510 -241 412 -317 c 0
 289 -411 168 -452 -78 -483 c 1
 -59 -399 l 1
 217 -293 279 -223 289 -6 c 0xc0
 301 324 377 412 752 543 c 1
 537 617 459 686 459 807 c 0xa0
 459 854 473 908 514 1008 c 0
 567 1143 584 1205 584 1262 c 0x90
 584 1346 537 1390 377 1466 c 1
 391 1550 l 1
 563 1527 629 1509 707 1462 c 0xa0
 803 1405 858 1327 858 1247 c 0x90
 858 1200 840 1149 793 1049 c 0
 730 918 707 852 707 793 c 0
 707 709 766 654 926 584 c 1xa0
EndSplineSet
EndChar

StartChar: asciitilde
Encoding: 94 126 94
Width: 2039
Flags: HW
HStem: 1270 129<1197 1210> 1354 125<826 834>
LayerCount: 2
Fore
SplineSet
1401 1501 m 1x80
 1438 1479 l 1x40
 1368 1350 1261 1270 1159 1270 c 0x80
 1122 1270 1096 1276 985 1313 c 0
 889 1346 858 1354 809 1354 c 0
 748 1354 714 1336 653 1266 c 0
 647 1260 641 1251 637 1245 c 2
 600 1268 l 1
 684 1411 775 1479 879 1479 c 0x40
 920 1479 955 1471 1055 1436 c 0
 1141 1407 1178 1399 1217 1399 c 0
 1285 1399 1346 1431 1401 1501 c 1x80
EndSplineSet
EndChar

StartChar: exclamdown
Encoding: 96 161 95
Width: 528
Flags: HW
HStem: 645 313<187 257>
VStem: -225 322<-413 -215> 76 293<770 837>
LayerCount: 2
Fore
SplineSet
131 526 m 1xc0
 190 508 l 1
 96 -215 l 2
 69 -430 22 -506 -82 -506 c 0
 -162 -506 -225 -449 -225 -377 c 0
 -225 -334 -207 -272 -162 -166 c 2
 131 526 l 1xc0
233 958 m 0
 317 958 369 905 369 819 c 0
 369 721 301 645 213 645 c 0
 129 645 76 702 76 786 c 0xa0
 76 886 141 958 233 958 c 0
EndSplineSet
EndChar

StartChar: cent
Encoding: 97 162 96
Width: 1019
Flags: HMW
HStem: -33 43G<411 416 416 455> 209 98<549 580> 1327 41G<827 864 864 869>
VStem: 201 207<540 644 540 689> 819 199<914 1128>
LayerCount: 2
Fore
SplineSet
406 6 m 2
 469 215 l 1
 377 235 338 256 293 303 c 0
 234 366 201 457 201 555 c 0
 201 823 461 1101 733 1128 c 1
 791 1323 l 2
 805 1368 804 1368 827 1368 c 2
 864 1368 l 2
 874 1368 883 1362 883 1356 c 0
 883 1350 878 1335 874 1319 c 2
 819 1128 l 1
 940 1116 1018 1044 1018 942 c 0
 1018 887 981 850 922 850 c 0
 859 850 827 887 819 979 c 0
 813 1018 811 1026 793 1042 c 1
 580 307 l 1
 662 313 696 331 772 403 c 0
 778 409 787 414 791 414 c 0
 797 414 803 410 809 406 c 2
 829 383 l 2
 835 377 838 373 838 369 c 0
 838 353 790 305 739 270 c 0
 673 227 627 211 549 209 c 1
 489 2 l 2
 481 -27 473 -33 455 -33 c 2
 416 -33 l 2
 406 -33 401 -26 401 -18 c 0
 401 -12 404 -2 406 6 c 2
506 342 m 1
 707 1036 l 1
 607 997 567 967 512 891 c 0
 440 793 408 696 408 592 c 0
 408 488 436 414 506 342 c 1
EndSplineSet
Substitution2: "cv02CharacterVariants02 subtable" cent.cv01
EndChar

StartChar: sterling
Encoding: 98 163 97
Width: 1019
Flags: HW
HStem: -31 180<671 828> 287 205 647 92<178 305 178 307 494 745> 1249 92<712 761>
VStem: 307 186<739 739> 809 184<1084 1208> 877 86<200 226>
LayerCount: 2
Fore
SplineSet
745 647 m 1xfc
 475 647 l 1
 420 471 391 383 342 258 c 1
 477 246 559 227 729 168 c 0
 760 156 791 150 811 150 c 0
 846 150 877 182 877 217 c 0
 877 235 868 252 856 264 c 0
 840 280 840 281 756 287 c 0
 682 293 633 336 633 395 c 0
 633 450 678 492 737 492 c 0
 854 492 963 366 963 233 c 0xfa
 963 88 845 -31 700 -31 c 0
 641 -31 600 -14 524 39 c 0
 393 131 378 139 315 166 c 1
 258 35 184 -31 90 -31 c 0
 43 -31 10 2 10 49 c 0
 10 92 33 141 70 180 c 0
 119 233 164 252 258 258 c 1
 291 356 295 393 305 647 c 1
 178 647 l 1
 178 739 l 1
 307 739 l 1
 319 921 332 983 369 1069 c 0
 441 1241 577 1341 737 1341 c 0
 884 1341 993 1245 993 1118 c 0
 993 1050 948 999 893 999 c 0
 840 999 795 1047 795 1104 c 0
 795 1118 797 1135 803 1155 c 0
 807 1171 809 1184 809 1194 c 0
 809 1223 778 1249 743 1249 c 0
 680 1249 635 1196 590 1073 c 0
 561 991 553 960 494 739 c 1
 745 739 l 1
 745 647 l 1xfc
EndSplineSet
EndChar

StartChar: fraction
Encoding: 358 8260 98
Width: 227
Flags: HMW
HStem: -14 43G<-418 -408 -408 -369> 1329 41G<680 741 741 752>
LayerCount: 2
Fore
SplineSet
-406 51 m 2
 602 1309 l 2
 608 1319 615 1327 623 1333 c 0
 648 1368 647 1370 680 1370 c 2
 741 1370 l 2
 761 1370 770 1366 770 1358 c 0
 770 1350 770 1350 741 1309 c 2
 -272 43 l 2
 -313 -6 -313 -6 -317 -10 c 0
 -323 -14 -330 -14 -369 -14 c 2
 -408 -14 l 2
 -428 -14 -438 -10 -438 0 c 0
 -438 8 -433 16 -406 51 c 2
EndSplineSet
EndChar

StartChar: yen
Encoding: 100 165 99
Width: 1019
Flags: HMW
HStem: -12 74 283 80<193 430 213 412 664 848> 504 80<274 471 252 496> 1321 84<242 274>
LayerCount: 2
Fore
SplineSet
193 283 m 1
 213 362 l 1
 430 362 l 1
 471 504 l 1
 252 504 l 1
 274 584 l 1
 496 584 l 1
 508 633 l 1
 340 1180 l 2
 313 1268 311 1270 301 1286 c 0
 295 1296 289 1303 281 1307 c 2
 242 1321 l 2
 236 1325 229 1336 229 1346 c 0
 229 1350 229 1354 231 1358 c 2
 238 1382 l 2
 242 1400 250 1405 270 1405 c 0
 278 1405 295 1403 311 1401 c 0
 358 1397 422 1393 463 1393 c 0
 504 1393 602 1399 635 1403 c 0
 649 1405 664 1405 672 1405 c 0
 682 1405 690 1401 688 1393 c 2
 686 1386 l 1
 684 1360 l 2
 678 1337 672 1331 647 1329 c 0
 590 1321 551 1297 551 1268 c 0
 551 1260 551 1260 569 1186 c 2
 678 752 l 1
 922 1182 l 2
 959 1250 963 1256 963 1272 c 0
 963 1297 942 1313 909 1317 c 0
 870 1321 862 1323 862 1337 c 0
 862 1341 862 1348 864 1354 c 2
 870 1376 l 2
 874 1394 883 1403 901 1403 c 0
 905 1403 914 1403 920 1401 c 0
 973 1395 1010 1393 1049 1393 c 0
 1084 1393 1110 1395 1180 1401 c 0
 1188 1403 1194 1403 1200 1403 c 0
 1210 1403 1217 1399 1217 1391 c 0
 1217 1385 1216 1378 1214 1370 c 2
 1204 1333 l 2
 1198 1315 1196 1313 1169 1309 c 0
 1118 1301 1089 1274 1034 1182 c 2
 756 698 l 1
 727 586 l 1
 932 586 l 1
 909 504 l 1
 705 504 l 1
 664 362 l 1
 870 362 l 1
 848 283 l 1
 643 283 l 1
 618 190 l 2
 610 161 606 137 606 123 c 0
 606 90 629 75 705 61 c 0
 717 59 721 57 721 51 c 0
 721 47 721 47 715 33 c 2
 707 6 l 2
 703 -8 698 -12 686 -12 c 0
 678 -12 657 -10 637 -8 c 0
 598 -2 569 0 520 0 c 0
 459 0 369 -4 336 -8 c 0
 318 -10 301 -12 289 -12 c 0
 277 -12 268 -6 268 6 c 2
 268 8 l 1
 270 33 l 2
 272 45 272 47 274 49 c 0
 276 53 279 55 285 57 c 2
 322 70 l 2
 357 82 371 107 391 195 c 2
 412 283 l 1
 193 283 l 1
EndSplineSet
EndChar

StartChar: florin
Encoding: 289 402 100
Width: 1019
Flags: HMW
HStem: -522 123<63 193> 811 94<298 477 326 463 686 836> 1485 90<906 932>
LayerCount: 2
Fore
SplineSet
463 811 m 1
 307 811 l 2
 289 811 283 813 283 823 c 2
 283 838 l 1
 291 879 l 2
 293 897 303 905 326 905 c 2
 477 905 l 1
 543 1200 579 1301 655 1403 c 0
 741 1520 842 1575 971 1575 c 0
 1086 1575 1174 1516 1174 1438 c 0
 1174 1389 1132 1348 1083 1348 c 0
 1044 1348 1024 1366 995 1421 c 0
 970 1466 948 1485 915 1485 c 0
 845 1485 805 1438 770 1313 c 0
 750 1245 749 1245 686 905 c 1
 860 905 l 2
 872 905 883 895 881 883 c 2
 874 836 l 2
 872 820 859 811 836 811 c 2
 666 811 l 1
 537 188 l 2
 492 -25 432 -205 373 -309 c 0
 291 -448 196 -522 96 -522 c 0
 30 -522 -10 -485 -10 -424 c 0
 -10 -371 29 -324 74 -324 c 0
 101 -324 125 -338 154 -375 c 0
 168 -391 178 -399 188 -399 c 0
 196 -399 207 -389 217 -371 c 0
 237 -328 242 -316 289 -74 c 2
 463 811 l 1
EndSplineSet
EndChar

StartChar: section
Encoding: 102 167 101
Width: 1019
Flags: HMW
HStem: -522 119<496 515> 1323 119<519 565>
VStem: 106 127<932 1020 932 1060> 322 127<1047 1249> 621 127<-311 -104> 834 127<-53 35>
LayerCount: 2
Fore
SplineSet
272 -223 m 0
 315 -223 348 -237 377 -268 c 0
 383 -276 401 -303 430 -352 c 0
 453 -387 479 -403 512 -403 c 0
 580 -403 621 -352 621 -270 c 0
 621 -170 596 -109 494 43 c 0
 211 461 106 696 106 915 c 0
 106 1204 346 1442 637 1442 c 0
 791 1442 897 1374 897 1278 c 0
 897 1217 849 1169 786 1169 c 0
 737 1169 708 1188 647 1262 c 0
 610 1307 584 1323 547 1323 c 0
 492 1323 449 1278 449 1221 c 0
 449 1137 519 985 662 756 c 0
 816 508 852 446 891 346 c 0
 940 225 961 132 961 23 c 0
 961 -129 904 -265 795 -371 c 0
 676 -488 594 -522 436 -522 c 0
 254 -522 141 -455 141 -346 c 0
 141 -274 196 -223 272 -223 c 0
715 -332 m 1
 801 -230 834 -141 834 -16 c 0
 834 86 809 172 748 285 c 0
 736 308 677 397 575 557 c 0
 403 827 322 1000 322 1094 c 0
 322 1131 330 1180 344 1239 c 1
 258 1126 233 1067 233 973 c 0
 233 891 254 811 303 700 c 0
 356 581 356 581 549 276 c 0
 694 47 748 -65 748 -143 c 0
 748 -190 738 -256 715 -332 c 1
EndSplineSet
EndChar

StartChar: currency
Encoding: 99 164 102
Width: 1019
Flags: HMW
HStem: 217 205<510 613> 981 205<519 617 519 638>
VStem: 78 205<650 743> 840 205<649 751 649 778>
LayerCount: 2
Fore
SplineSet
18 1098 m 1
 150 1231 l 1
 283 1102 l 1
 396 1163 471 1186 567 1186 c 0
 667 1186 740 1163 838 1102 c 1
 971 1231 l 1
 1102 1098 l 1
 965 967 l 1
 1022 875 1044 800 1044 700 c 0
 1044 598 1024 530 965 438 c 1
 1102 305 l 1
 971 176 l 1
 840 303 l 1
 734 237 665 217 561 217 c 0
 459 217 392 237 283 303 c 1
 150 176 l 1
 18 305 l 1
 154 438 l 1
 99 536 78 604 78 696 c 0
 78 790 97 858 154 967 c 1
 18 1098 l 1
561 981 m 0
 409 981 283 857 283 707 c 0
 283 547 405 422 559 422 c 0
 715 422 840 546 840 700 c 0
 840 856 715 981 561 981 c 0
EndSplineSet
EndChar

StartChar: quotesingle
Encoding: 7 39 103
Width: 528
Flags: HMW
HStem: 881 561<337 544 346 544>
VStem: 356 250<1241 1385>
LayerCount: 2
Fore
SplineSet
567 1241 m 2
 416 905 l 2
 406 885 400 881 377 881 c 2
 346 881 l 2
 328 881 322 885 322 897 c 0
 322 899 322 899 326 932 c 2
 356 1241 l 2
 364 1327 372 1353 397 1382 c 0
 428 1419 475 1442 520 1442 c 0
 567 1442 606 1407 606 1364 c 0
 606 1335 598 1311 567 1241 c 2
EndSplineSet
EndChar

StartChar: quotedblleft
Encoding: 343 8220 104
Width: 868
Flags: HMW
HStem: 1356 68<643 655>
VStem: 227 162<1012 1204> 653 162<1011 1204>
LayerCount: 2
Fore
SplineSet
1081 1423 m 1
 1069 1356 l 1
 889 1307 815 1249 815 1159 c 0
 815 1120 830 1102 881 1079 c 0
 955 1048 975 1026 975 971 c 0
 975 901 920 852 842 852 c 0
 727 852 653 942 653 1079 c 0
 653 1185 706 1267 823 1335 c 0
 895 1378 962 1400 1081 1423 c 1
655 1423 m 1
 643 1356 l 1
 465 1309 389 1249 389 1159 c 0
 389 1120 406 1099 455 1079 c 0
 529 1048 549 1026 549 971 c 0
 549 901 494 852 416 852 c 0
 301 852 227 942 227 1081 c 0
 227 1185 280 1267 397 1335 c 0
 467 1378 534 1400 655 1423 c 1
EndSplineSet
EndChar

StartChar: guillemotleft
Encoding: 106 171 105
Width: 868
Flags: HW
LayerCount: 2
Fore
SplineSet
784 840 m 1
 834 809 l 1
 580 479 l 1
 778 150 l 1
 731 119 l 1
 375 465 l 1
 369 496 l 1
 784 840 l 1
467 840 m 1
 518 809 l 1
 262 479 l 1
 461 150 l 1
 414 119 l 1
 59 465 l 1
 53 496 l 1
 467 840 l 1
EndSplineSet
EndChar

StartChar: guilsinglleft
Encoding: 354 8249 106
Width: 528
Flags: HMW
VStem: 47 459<465 809>
LayerCount: 2
Fore
SplineSet
455 840 m 1
 506 809 l 1
 252 479 l 1
 449 150 l 1
 401 119 l 1
 47 465 l 1
 41 496 l 1
 455 840 l 1
EndSplineSet
EndChar

StartChar: guilsinglright
Encoding: 355 8250 107
Width: 528
Flags: HMW
VStem: -4 459<150 494>
LayerCount: 2
Fore
SplineSet
47 119 m 1
 -4 150 l 1
 252 479 l 1
 53 809 l 1
 100 840 l 1
 455 494 l 1
 461 463 l 1
 47 119 l 1
EndSplineSet
EndChar

StartChar: fi
Encoding: 640 64257 108
Width: 1138
Flags: HMW
HStem: -522 123<14 17> -39 170<735 937> 768 92<121 297 158 281 532 684 684 727> 883 41G<971 1019> 1483 90<791 811>
LayerCount: 2
Fore
SplineSet
516 768 m 1
 385 188 l 2
 281 -263 112 -522 -78 -522 c 0
 -141 -522 -180 -487 -180 -430 c 0
 -180 -373 -139 -324 -92 -324 c 0
 -65 -324 -43 -338 -14 -375 c 0
 0 -391 10 -399 18 -399 c 0
 47 -399 96 -258 129 -74 c 2
 281 768 l 1
 133 768 l 2
 108 768 104 770 104 780 c 0
 104 782 104 787 106 791 c 2
 111 807 l 1
 119 836 l 2
 125 861 125 860 158 860 c 2
 297 860 l 1
 328 1044 l 2
 355 1204 428 1348 532 1450 c 0
 618 1532 727 1573 854 1573 c 0
 1016 1573 1149 1488 1149 1386 c 0
 1149 1339 1106 1300 1055 1300 c 0
 1008 1300 977 1321 932 1380 c 0
 879 1452 833 1483 788 1483 c 0
 737 1483 682 1446 647 1389 c 0
 629 1358 612 1301 598 1225 c 2
 532 860 l 1
 684 860 l 2
 770 860 805 868 889 903 c 0
 922 915 956 924 985 924 c 0
 1053 924 1092 883 1092 815 c 0
 1092 747 1083 719 981 457 c 0
 963 414 962 414 948 375 c 0
 932 338 914 288 891 233 c 0
 881 210 877 190 877 176 c 0
 877 151 897 131 920 131 c 0
 955 131 1000 170 1106 287 c 1
 1157 246 l 1
 1012 58 881 -39 772 -39 c 0
 698 -39 647 7 647 68 c 0
 647 115 653 135 770 436 c 0
 842 626 860 680 860 707 c 0
 860 760 845 768 743 768 c 2
 516 768 l 1
EndSplineSet
Ligature2: "ligaStandardLigatureslookup subtable" f i
EndChar

StartChar: fl
Encoding: 641 64258 109
Width: 1138
Flags: HMW
HStem: -522 123<8 11> -35 170<723 911> 768 92<115 293 152 274 528 688> 1483 90<728 761>
VStem: 635 223<54 212>
LayerCount: 2
Fore
SplineSet
293 860 m 1
 303 920 l 2
 336 1110 338 1118 371 1202 c 0
 469 1450 611 1573 797 1573 c 0
 871 1573 914 1559 961 1520 c 1
 1088 1538 1114 1542 1243 1579 c 1
 1264 1559 l 1
 1114 1115 858 243 858 180 c 0
 858 151 870 135 893 135 c 0
 930 135 946 150 1063 281 c 1
 1112 240 l 1
 936 31 850 -35 756 -35 c 0
 690 -35 635 20 635 88 c 0
 635 139 662 251 721 446 c 2
 918 1094 l 2
 959 1229 981 1321 981 1354 c 0
 981 1362 981 1370 979 1382 c 1
 956 1355 936 1346 905 1346 c 0
 866 1346 844 1364 819 1419 c 0
 799 1460 775 1483 748 1483 c 0
 709 1483 657 1433 637 1380 c 0
 592 1255 575 1186 528 860 c 1
 711 860 l 2
 734 860 737 858 737 850 c 0
 737 846 737 845 733 831 c 2
 727 797 l 2
 721 768 721 768 688 768 c 2
 510 768 l 1
 379 188 l 2
 275 -263 106 -522 -84 -522 c 0
 -147 -522 -186 -487 -186 -430 c 0
 -186 -373 -145 -324 -98 -324 c 0
 -71 -324 -49 -338 -20 -375 c 0
 -6 -391 4 -399 12 -399 c 0
 41 -399 90 -258 123 -74 c 2
 274 768 l 1
 127 768 l 2
 102 768 98 770 98 780 c 0
 98 782 98 787 100 791 c 2
 104 807 l 1
 113 836 l 2
 119 861 119 860 152 860 c 2
 293 860 l 1
EndSplineSet
Ligature2: "ligaStandardLigatureslookup subtable" f l
EndChar

StartChar: endash
Encoding: 337 8211 110
Width: 1019
Flags: HMW
HStem: 408 147<122 926 141 922>
LayerCount: 2
Fore
SplineSet
141 555 m 2
 926 555 l 2
 957 555 965 550 963 532 c 2
 961 516 l 1
 961 438 l 2
 961 407 961 408 922 408 c 2
 137 408 l 2
 106 408 106 407 106 444 c 2
 106 522 l 2
 106 553 108 555 141 555 c 2
EndSplineSet
EndChar

StartChar: dagger
Encoding: 346 8224 111
Width: 1019
Flags: HW
HStem: 797 279<185 242 850 905> 1401 41G<514 588>
VStem: 418 266<1284 1347> 514 61<-473 -473>
LayerCount: 2
Fore
SplineSet
514 -473 m 2xd0
 498 -168 l 2
 473 223 469 283 455 371 c 0
 443 434 430 479 385 596 c 1
 494 735 514 784 524 903 c 1
 350 823 270 797 213 797 c 0
 141 797 88 856 88 936 c 0
 88 1014 147 1075 223 1075 c 0
 284 1075 364 1047 522 969 c 1
 434 1202 418 1256 418 1311 c 0
 418 1383 477 1442 551 1442 c 0
 625 1442 684 1383 684 1313 c 0xe0
 684 1256 668 1202 580 969 c 1
 732 1047 809 1075 868 1075 c 0
 942 1075 999 1014 999 936 c 0
 999 856 949 797 879 797 c 0
 822 797 741 823 571 903 c 1
 579 837 584 809 596 774 c 0
 604 754 600 763 610 743 c 0
 633 706 655 670 678 637 c 2
 702 598 l 1
 696 573 688 549 680 522 c 0
 629 364 621 299 592 -174 c 2
 575 -473 l 2
 573 -502 563 -518 545 -518 c 0
 525 -518 516 -504 514 -473 c 2xd0
EndSplineSet
Substitution2: "cv03CharacterVariants03 subtable" dagger.cv01
EndChar

StartChar: daggerdbl
Encoding: 347 8225 112
Width: 1019
Flags: HMW
HStem: -20 279<180 234 170 247 846 900> 797 279<180 233 846 899> 1401 41G<502 575>
VStem: 406 270<-293 -228>
LayerCount: 2
Fore
SplineSet
381 598 m 1
 481 737 502 784 512 903 c 1
 338 823 262 797 205 797 c 0
 135 797 84 856 84 936 c 0
 84 1014 143 1075 217 1075 c 0
 278 1075 356 1047 510 969 c 1
 422 1202 406 1256 406 1311 c 0
 406 1385 465 1442 539 1442 c 0
 613 1442 672 1385 672 1313 c 0
 672 1256 655 1202 567 969 c 1
 721 1047 801 1075 862 1075 c 0
 936 1075 995 1014 995 936 c 0
 995 856 944 797 874 797 c 0
 817 797 743 823 567 903 c 1
 581 778 584 774 668 649 c 0
 678 631 688 614 698 598 c 1
 692 584 686 569 680 553 c 0
 606 391 587 328 567 152 c 1
 739 232 817 258 874 258 c 0
 944 258 995 199 995 119 c 0
 995 41 936 -20 864 -20 c 0
 803 -20 727 6 571 84 c 1
 661 -152 676 -201 676 -256 c 0
 676 -330 617 -387 541 -387 c 0
 465 -387 406 -330 406 -256 c 0
 406 -201 422 -147 510 84 c 1
 354 6 276 -20 217 -20 c 0
 143 -20 84 41 84 119 c 0
 84 199 135 258 205 258 c 0
 264 258 340 232 512 152 c 1
 492 332 469 410 381 598 c 1
EndSplineSet
EndChar

StartChar: periodcentered
Encoding: -1 183 113
Width: 111
VWidth: 1000
Flags: MW
HStem: 252 147<66 98.5>
VStem: 18 130<306 344.5>
LayerCount: 2
Fore
SplineSet
84 399 m 0
 121 399 148 368 148 327 c 0
 148 285 118 252 79 252 c 0
 44 252 18 283 18 324 c 0
 18 365 48 399 84 399 c 0
EndSplineSet
Validated: 1
EndChar

StartChar: paragraph
Encoding: 117 182 114
Width: 1019
Flags: HW
HStem: 1442 84<684 999 860 999 860 860>
VStem: 154 530<974 1117> 604 80<-326 571 571 571> 780 80<-326 1442 -326 1442>
LayerCount: 2
Fore
SplineSet
999 1526 m 1xd0
 999 1442 l 1
 860 1442 l 1
 860 -326 l 1
 780 -326 l 1
 780 1442 l 1
 684 1442 l 1
 684 -326 l 1
 604 -326 l 1
 604 571 l 1xb0
 444 604 369 637 295 707 c 0
 205 793 154 909 154 1038 c 0
 154 1196 231 1341 358 1419 c 0
 471 1491 618 1526 811 1526 c 2
 999 1526 l 1xd0
EndSplineSet
EndChar

StartChar: bullet
Encoding: 348 8226 115
Width: 1019
Flags: HMW
HStem: 362 743<412 614>
VStem: 139 743<633 837 632 840>
LayerCount: 2
Fore
SplineSet
516 1106 m 0
 717 1106 883 938 883 735 c 0
 883 528 717 362 512 362 c 0
 305 362 139 528 139 737 c 0
 139 942 307 1106 516 1106 c 0
EndSplineSet
EndChar

StartChar: quotesinglbase
Encoding: 342 8218 116
Width: 528
Flags: HMW
HStem: -301 68<-123 -111>
VStem: 143 162<-82 112>
LayerCount: 2
Fore
SplineSet
-123 -301 m 1
 -111 -233 l 1
 69 -184 143 -127 143 -37 c 0
 143 2 127 23 78 43 c 0
 4 74 -16 99 -16 152 c 0
 -16 222 39 270 119 270 c 0
 232 270 305 180 305 43 c 0
 305 -63 252 -145 135 -213 c 0
 63 -256 -4 -278 -123 -301 c 1
EndSplineSet
EndChar

StartChar: quotedblbase
Encoding: 345 8222 117
Width: 868
Flags: HMW
HStem: -295 68<-164 -152>
VStem: 102 162<-38 -11> 561 162<-38 -11>
LayerCount: 2
Fore
SplineSet
-164 -295 m 1
 -152 -227 l 1
 28 -180 102 -123 102 -31 c 0
 102 8 88 26 37 49 c 0
 -37 80 -57 103 -57 158 c 0
 -57 228 -2 276 78 276 c 0
 191 276 264 186 264 49 c 0
 264 -125 112 -246 -164 -295 c 1
295 -295 m 1
 307 -227 l 1
 487 -178 561 -121 561 -31 c 0
 561 8 545 26 496 49 c 0
 420 80 401 103 401 158 c 0
 401 228 457 276 537 276 c 0
 650 276 723 186 723 49 c 0
 723 -125 571 -246 295 -295 c 1
EndSplineSet
EndChar

StartChar: quotedblright
Encoding: 344 8221 118
Width: 868
Flags: HMW
HStem: 852 70<147 160> 1382 41G<348 444 807 903>
VStem: 414 162<1071 1265> 872 162<1071 1265>
LayerCount: 2
Fore
SplineSet
147 852 m 1
 160 922 l 1
 344 973 414 1026 414 1116 c 0
 414 1157 397 1176 348 1196 c 0
 274 1227 254 1252 254 1305 c 0
 254 1375 309 1423 387 1423 c 0
 502 1423 575 1333 575 1196 c 0
 575 1090 523 1010 406 940 c 0
 336 897 268 875 147 852 c 1
606 852 m 1
 618 922 l 1
 804 973 872 1026 872 1116 c 0
 872 1155 856 1176 807 1196 c 0
 733 1227 713 1250 713 1305 c 0
 713 1375 768 1423 846 1423 c 0
 961 1423 1034 1333 1034 1196 c 0
 1034 1090 981 1010 866 940 c 0
 794 897 727 875 606 852 c 1
EndSplineSet
EndChar

StartChar: guillemotright
Encoding: 122 187 119
Width: 868
Flags: HW
LayerCount: 2
Fore
SplineSet
74 119 m 1
 23 150 l 1
 276 479 l 1
 80 809 l 1
 127 840 l 1
 481 494 l 1
 487 463 l 1
 74 119 l 1
389 119 m 1
 338 150 l 1
 594 479 l 1
 395 809 l 1
 442 840 l 1
 799 494 l 1
 803 463 l 1
 389 119 l 1
EndSplineSet
EndChar

StartChar: ellipsis
Encoding: 349 8230 120
Width: 1699
Flags: HMW
HStem: -31 270<175 234 730 790 1283 1342>
VStem: 88 233<70 141> 643 233<71 141> 1196 233<70 141>
LayerCount: 2
Fore
SplineSet
209 240 m 0
 272 240 322 183 322 109 c 0
 322 31 269 -31 201 -31 c 0
 138 -31 88 26 88 104 c 0
 88 178 141 240 209 240 c 0
764 240 m 0
 827 240 877 183 877 109 c 0
 877 33 824 -31 756 -31 c 0
 693 -31 643 26 643 104 c 0
 643 178 696 240 764 240 c 0
1317 240 m 0
 1380 240 1430 183 1430 109 c 0
 1430 31 1377 -31 1309 -31 c 0
 1246 -31 1196 26 1196 104 c 0
 1196 178 1249 240 1317 240 c 0
EndSplineSet
EndChar

StartChar: perthousand
Encoding: 350 8240 121
Width: 2340
Flags: HW
HStem: -27 84<1086 1143 1086 1227 1811 1868> 590 84<1222 1284 1947 2009> 641 84<429 485 429 570> 1276 84<563 627>
VStem: 205 154<846 894 816 984> 324 111<-57 -57> 702 156<1095 1159 963 1186> 862 154<174 222 147 364> 1313 111<1395 1395> 1360 156<414 478 287 501> 1587 154<174 222 147 365> 2085 156<414 478 287 501>
LayerCount: 2
Fore
SplineSet
1253 674 m 0xd370
 1405 674 1516 557 1516 399 c 0
 1516 174 1331 -27 1122 -27 c 0
 972 -27 862 92 862 256 c 0
 862 471 1050 674 1253 674 c 0xd370
1253 590 m 0
 1190 590 1139 549 1092 459 c 0
 1051 381 1016 256 1016 188 c 0
 1016 106 1055 57 1118 57 c 0
 1167 57 1210 84 1245 133 c 0
 1315 231 1360 363 1360 465 c 0
 1360 537 1314 590 1253 590 c 0
1978 674 m 0
 2130 674 2241 557 2241 399 c 0
 2241 174 2056 -27 1847 -27 c 0
 1695 -27 1587 92 1587 256 c 0
 1587 473 1775 674 1978 674 c 0
1978 590 m 0
 1915 590 1864 549 1817 459 c 0
 1776 383 1741 256 1741 188 c 0
 1741 106 1780 57 1843 57 c 0
 1892 57 1935 84 1970 133 c 0
 2040 231 2085 363 2085 465 c 0
 2085 537 2039 590 1978 590 c 0
1313 1395 m 1x97b0
 1423 1395 l 1
 434 -57 l 1
 324 -57 l 1
 1313 1395 l 1x97b0
596 1360 m 0
 748 1360 858 1241 858 1077 c 0
 858 848 674 641 467 641 c 0
 315 641 205 762 205 930 c 0xbb30
 205 1039 260 1165 342 1249 c 0
 416 1323 502 1360 596 1360 c 0
594 1276 m 0
 533 1276 481 1231 434 1141 c 0xb730
 393 1061 358 930 358 858 c 0
 358 774 398 725 461 725 c 0
 510 725 553 752 588 803 c 0
 658 903 702 1043 702 1147 c 0
 702 1225 660 1276 594 1276 c 0
EndSplineSet
EndChar

StartChar: questiondown
Encoding: 126 191 122
Width: 792
Flags: HW
HStem: -506 143<12 221> 352 174<159 307> 645 313<346 406>
VStem: -164 106<-273 -229 -290 -129> 229 293<776 829> 379 104<241 272 158 295>
LayerCount: 2
Fore
SplineSet
276 352 m 0xf4
 262 352 248 350 223 348 c 0
 203 346 184 344 168 344 c 0
 117 344 80 381 80 434 c 0
 80 489 125 526 193 526 c 0
 336 526 483 356 483 188 c 0
 483 127 461 66 426 27 c 0
 367 -34 348 -43 115 -119 c 0
 -10 -158 -57 -196 -57 -262 c 0
 -57 -317 -14 -362 39 -362 c 0
 59 -362 72 -358 119 -338 c 0
 164 -320 198 -309 227 -309 c 0
 280 -309 319 -346 319 -399 c 0
 319 -462 264 -506 178 -506 c 0
 -21 -506 -164 -368 -164 -178 c 0
 -164 -80 -121 4 -43 55 c 0
 -4 80 59 104 182 139 c 0
 334 182 379 211 379 270 c 0
 379 319 337 352 276 352 c 0xf4
393 958 m 0
 473 958 522 909 522 827 c 0
 522 725 450 645 360 645 c 0
 280 645 229 698 229 778 c 0xf8
 229 880 299 958 393 958 c 0
EndSplineSet
EndChar

StartChar: grave
Encoding: 64 96 123
Width: 1019
Flags: HMW
HStem: 1063 467<404 731>
VStem: 334 451<1105 1479>
LayerCount: 2
Fore
SplineSet
778 1098 m 2
 752 1073 l 2
 746 1067 735 1063 727 1063 c 0
 721 1063 714 1067 702 1077 c 0
 636 1143 530 1237 436 1317 c 0
 366 1374 334 1419 334 1458 c 0
 334 1499 377 1530 432 1530 c 0
 493 1530 535 1501 582 1421 c 0
 662 1284 672 1270 764 1141 c 0
 784 1110 784 1110 784 1106 c 0
 784 1104 782 1100 778 1098 c 2
EndSplineSet
EndChar

StartChar: acute
Encoding: 115 180 124
Width: 1019
Flags: HMW
HStem: 1063 467<625 951>
VStem: 571 451<1106 1479>
LayerCount: 2
Fore
SplineSet
604 1073 m 2
 578 1098 l 2
 574 1100 571 1104 571 1108 c 0
 571 1110 572 1112 592 1141 c 0
 682 1266 690 1278 774 1421 c 0
 821 1501 863 1530 924 1530 c 0
 979 1530 1022 1499 1022 1458 c 0
 1022 1419 990 1374 920 1317 c 0
 811 1225 694 1120 653 1077 c 0
 643 1067 635 1063 629 1063 c 0
 621 1063 610 1067 604 1073 c 2
EndSplineSet
EndChar

StartChar: circumflex
Encoding: 291 710 125
Width: 1019
Flags: HMW
HStem: 1063 532<407 793 724 893>
VStem: 870 68<1085 1098>
LayerCount: 2
Fore
SplineSet
870 1085 m 2
 805 1214 l 2
 766 1294 760 1304 752 1339 c 0
 750 1347 745 1370 739 1401 c 1
 696 1348 665 1311 645 1288 c 2
 479 1126 l 2
 463 1112 448 1095 434 1081 c 0
 422 1067 416 1063 408 1063 c 0
 406 1063 401 1065 397 1067 c 2
 373 1087 l 2
 369 1091 367 1096 367 1100 c 0
 367 1104 369 1110 373 1116 c 2
 383 1130 l 1
 590 1458 l 2
 658 1564 695 1595 754 1595 c 0
 832 1595 879 1534 895 1407 c 2
 938 1102 l 1
 938 1098 l 2
 938 1090 934 1083 926 1079 c 2
 905 1067 l 2
 899 1065 895 1063 891 1063 c 0
 885 1063 876 1071 870 1085 c 2
EndSplineSet
EndChar

StartChar: tilde
Encoding: 298 732 126
Width: 1019
Flags: HW
HStem: 1094 172<800 802> 1262 172<570 580> 1378 41G<951 957>
VStem: 381 623<1140 1394>
LayerCount: 2
Fore
SplineSet
420 1114 m 1x50
 389 1126 l 2
 385 1128 381 1135 381 1145 c 0
 381 1168 411 1247 446 1313 c 0
 483 1387 545 1434 596 1434 c 0x50
 647 1434 685 1403 748 1315 c 0
 771 1280 791 1266 809 1266 c 0
 848 1266 883 1303 934 1401 c 0
 942 1413 948 1419 954 1419 c 0
 960 1419 967 1417 971 1415 c 2
 995 1405 l 2
 1001 1403 1004 1397 1004 1391 c 0
 1004 1364 967 1273 932 1214 c 0
 887 1140 827 1094 776 1094 c 0xb0
 729 1094 694 1122 645 1200 c 0
 616 1245 594 1262 565 1262 c 0
 528 1262 492 1224 467 1163 c 0
 451 1122 445 1116 420 1114 c 1x50
EndSplineSet
EndChar

StartChar: macron
Encoding: 110 175 127
Width: 1019
Flags: HMW
HStem: 1202 117<420 954 451 922>
VStem: 420 535<1202 1319>
LayerCount: 2
Fore
SplineSet
420 1202 m 1
 451 1319 l 1
 954 1319 l 1
 922 1202 l 1
 420 1202 l 1
EndSplineSet
EndChar

StartChar: breve
Encoding: 294 728 128
Width: 1019
Flags: HMW
HStem: 1075 92<692 772> 1307 41G<510 598 598 598 940 1026 1026 1026>
VStem: 510 88<1317 1348>
LayerCount: 2
Fore
SplineSet
510 1348 m 1
 598 1348 l 1
 602 1227 649 1167 735 1167 c 0
 821 1167 883 1221 940 1348 c 1
 1026 1348 l 1
 1001 1272 985 1239 952 1196 c 0
 893 1118 815 1075 729 1075 c 0
 631 1075 555 1133 524 1231 c 0
 512 1266 510 1287 510 1348 c 1
EndSplineSet
EndChar

StartChar: dotaccent
Encoding: 295 729 129
Width: 1019
Flags: HMW
HStem: 1133 270<693 756>
VStem: 606 233<1230 1305>
LayerCount: 2
Fore
SplineSet
727 1403 m 0
 793 1403 840 1348 840 1270 c 0
 840 1190 791 1133 721 1133 c 0
 653 1133 606 1188 606 1266 c 0
 606 1344 659 1403 727 1403 c 0
EndSplineSet
EndChar

StartChar: dieresis
Encoding: 103 168 130
Width: 1019
Flags: HMW
HStem: 1133 270<472 535 863 926>
VStem: 385 233<1230 1305> 776 233<1230 1305>
LayerCount: 2
Fore
SplineSet
506 1403 m 0
 572 1403 618 1348 618 1270 c 0
 618 1190 570 1133 500 1133 c 0
 432 1133 385 1188 385 1266 c 0
 385 1344 438 1403 506 1403 c 0
897 1403 m 0
 963 1403 1010 1348 1010 1270 c 0
 1010 1190 961 1133 891 1133 c 0
 823 1133 776 1188 776 1266 c 0
 776 1344 829 1403 897 1403 c 0
EndSplineSet
EndChar

StartChar: ring
Encoding: 296 730 131
Width: 1019
Flags: HMW
HStem: 1038 96<690 756 690 782> 1370 96<692 757>
VStem: 510 96<1222 1286 1222 1313> 842 96<1220 1285>
LayerCount: 2
Fore
SplineSet
723 1466 m 0
 842 1466 938 1370 938 1253 c 0
 938 1132 842 1038 723 1038 c 0
 604 1038 510 1134 510 1255 c 0
 510 1370 608 1466 723 1466 c 0
725 1370 m 0
 659 1370 606 1316 606 1255 c 0
 606 1187 657 1135 723 1135 c 0
 789 1135 842 1185 842 1253 c 0
 842 1316 788 1370 725 1370 c 0
EndSplineSet
EndChar

StartChar: cedilla
Encoding: 119 184 132
Width: 1019
Flags: HMW
HStem: -371 78<410 446>
VStem: 514 129<-241 -200>
LayerCount: 2
Fore
SplineSet
502 49 m 1
 551 41 l 1
 485 -66 l 1
 585 -72 643 -116 643 -190 c 0
 643 -290 523 -371 371 -371 c 0
 297 -371 258 -350 258 -311 c 0
 258 -280 280 -258 307 -258 c 0
 321 -258 322 -258 365 -283 c 0
 379 -289 397 -293 422 -293 c 0
 473 -293 514 -260 514 -221 c 0
 514 -178 480 -158 412 -158 c 0
 402 -158 395 -158 387 -160 c 2
 360 -162 l 2
 346 -162 330 -156 330 -150 c 0
 330 -144 336 -136 354 -113 c 2
 502 49 l 1
EndSplineSet
EndChar

StartChar: hungarumlaut
Encoding: 299 733 133
Width: 1019
Flags: HMW
HStem: 1063 467<451 777 719 812>
LayerCount: 2
Fore
SplineSet
430 1073 m 2
 403 1098 l 2
 399 1100 397 1104 397 1108 c 0
 397 1110 398 1112 418 1141 c 0
 508 1266 516 1278 600 1421 c 0
 647 1501 689 1530 750 1530 c 0
 805 1530 848 1499 848 1458 c 0
 848 1419 815 1374 745 1317 c 0
 636 1225 520 1120 479 1077 c 0
 469 1067 461 1063 455 1063 c 0
 447 1063 436 1067 430 1073 c 2
784 1073 m 2
 758 1098 l 2
 754 1100 752 1104 752 1106 c 0
 752 1110 751 1110 860 1266 c 1
 954 1421 l 2
 1001 1501 1043 1530 1104 1530 c 0
 1159 1530 1202 1499 1202 1458 c 0
 1202 1419 1170 1374 1100 1317 c 0
 991 1225 906 1147 834 1077 c 0
 822 1067 815 1063 809 1063 c 0
 801 1063 790 1067 784 1073 c 2
EndSplineSet
EndChar

StartChar: ogonek
Encoding: 297 731 134
Width: 1019
Flags: HMW
HStem: -373 106<608 660 608 684>
VStem: 412 117<-190 -134> 565 125<55 55>
LayerCount: 2
Fore
SplineSet
565 55 m 1
 690 55 l 1
 559 -54 528 -94 528 -160 c 0
 528 -221 575 -266 641 -266 c 0
 680 -266 693 -262 756 -227 c 0
 762 -223 768 -221 774 -221 c 0
 799 -221 823 -247 823 -272 c 0
 823 -321 729 -373 639 -373 c 0
 514 -373 412 -283 412 -172 c 0
 412 -96 430 -68 565 55 c 1
EndSplineSet
EndChar

StartChar: caron
Encoding: 292 711 135
Width: 1019
Flags: HMW
HStem: 1063 532<572 742>
VStem: 528 68<1556 1573>
LayerCount: 2
Fore
SplineSet
596 1573 m 2
 662 1444 l 2
 703 1360 705 1352 713 1317 c 0
 715 1311 721 1286 727 1255 c 1
 782 1325 801 1350 821 1368 c 2
 987 1532 l 2
 1003 1544 1018 1559 1032 1577 c 0
 1044 1591 1051 1595 1057 1595 c 0
 1061 1595 1065 1593 1067 1591 c 2
 1094 1569 l 2
 1098 1567 1100 1560 1100 1556 c 0
 1100 1554 1098 1548 1094 1542 c 2
 877 1200 l 2
 809 1094 772 1063 713 1063 c 0
 635 1063 587 1124 571 1249 c 2
 528 1556 l 2
 528 1568 531 1571 541 1579 c 2
 561 1589 l 2
 567 1593 571 1595 573 1595 c 0
 581 1595 590 1587 596 1573 c 2
EndSplineSet
EndChar

StartChar: emdash
Encoding: 338 8212 136
Width: 1699
Flags: HMW
HStem: 408 147<118 1616 137 1612>
LayerCount: 2
Fore
SplineSet
137 555 m 2
 1616 555 l 2
 1647 555 1653 551 1653 535 c 2
 1653 516 l 1
 1651 438 l 2
 1651 407 1651 408 1612 408 c 2
 133 408 l 2
 102 408 102 407 102 444 c 2
 102 522 l 2
 102 553 104 555 137 555 c 2
EndSplineSet
EndChar

StartChar: AE
Encoding: 133 198 137
Width: 2000
Flags: HMW
HStem: -10 88 711 92<733 971 666 993> 1331 80<1434 1481 1481 1590 1432 1616>
VStem: 1808 90<1122 1145 1126 1145>
LayerCount: 2
Fore
SplineSet
1225 803 m 1
 1384 803 l 2
 1521 803 1571 828 1634 934 c 0
 1642 946 1649 950 1665 950 c 2
 1700 950 l 2
 1718 950 1724 946 1724 936 c 0
 1724 930 1722 925 1714 905 c 0
 1685 827 1635 665 1608 559 c 0
 1604 532 1598 528 1567 528 c 2
 1532 528 l 2
 1512 528 1505 533 1505 543 c 0
 1505 547 1507 553 1509 559 c 0
 1525 612 1532 635 1532 655 c 0
 1532 698 1507 709 1405 709 c 2
 1202 709 l 1
 1083 287 l 2
 1052 166 1053 166 1053 150 c 0
 1053 95 1126 78 1382 78 c 0
 1591 78 1685 123 1751 252 c 0
 1784 318 1786 322 1798 322 c 0
 1800 322 1800 321 1812 315 c 2
 1845 299 l 2
 1861 291 1866 287 1866 279 c 0
 1866 275 1865 275 1855 250 c 2
 1784 86 l 2
 1776 68 1767 48 1759 25 c 0
 1747 -6 1742 -10 1724 -10 c 0
 1718 -10 1697 -10 1681 -8 c 0
 1640 -6 1235 0 1155 0 c 0
 1122 0 1081 0 1024 -2 c 2
 887 -2 l 1
 737 -6 l 2
 692 -8 651 -10 643 -10 c 0
 631 -10 623 -4 625 6 c 2
 627 16 l 1
 631 41 l 2
 633 57 633 57 635 59 c 0
 639 67 645 68 690 72 c 0
 780 80 794 96 827 217 c 2
 971 711 l 1
 666 711 l 1
 313 305 l 2
 233 213 190 148 190 115 c 0
 190 84 217 72 287 70 c 0
 336 70 342 67 342 55 c 0
 342 51 342 51 338 39 c 2
 330 16 l 2
 322 -4 315 -10 299 -10 c 0
 274 -10 274 -10 172 -4 c 0
 139 -2 112 0 96 0 c 0
 82 0 76 0 -63 -8 c 0
 -86 -10 -103 -10 -113 -10 c 0
 -125 -10 -129 -6 -129 6 c 0
 -129 10 -129 13 -127 25 c 2
 -121 49 l 2
 -119 63 -111 70 -84 74 c 0
 -10 80 4 92 125 244 c 2
 887 1159 l 2
 932 1216 952 1253 952 1284 c 0
 952 1307 938 1325 913 1331 c 0
 893 1337 889 1337 811 1339 c 0
 770 1341 768 1342 768 1354 c 0
 768 1360 768 1364 770 1376 c 2
 774 1397 l 2
 778 1417 785 1421 805 1421 c 2
 889 1419 l 2
 930 1417 1370 1411 1493 1411 c 0
 1688 1411 1843 1415 1909 1419 c 0
 1923 1421 1938 1421 1946 1421 c 0
 1960 1421 1968 1417 1968 1407 c 0
 1968 1405 1968 1401 1966 1395 c 2
 1962 1378 l 1
 1898 1145 l 2
 1890 1108 1890 1108 1888 1106 c 0
 1884 1104 1882 1104 1868 1104 c 2
 1833 1104 l 2
 1813 1104 1808 1106 1808 1122 c 2
 1808 1126 l 2
 1810 1151 1810 1176 1810 1188 c 0
 1810 1237 1798 1273 1778 1296 c 0
 1753 1323 1716 1331 1616 1331 c 2
 1481 1331 l 2
 1387 1331 1374 1317 1333 1176 c 2
 1225 803 l 1
993 803 m 1
 1139 1325 l 1
 733 803 l 1
 993 803 l 1
EndSplineSet
EndChar

StartChar: ordfeminine
Encoding: 105 170 138
Width: 868
Flags: HMW
HStem: 672 119<284 433> 872 41G<839 845>
VStem: 205 170<834 912> 565 164<731 864>
LayerCount: 2
Fore
SplineSet
852 909 m 2
 872 889 l 2
 876 887 879 883 879 879 c 0
 879 869 854 832 821 791 c 0
 758 715 696 672 647 672 c 0
 600 672 565 707 565 756 c 0
 565 783 570 806 586 874 c 1
 445 710 395 672 319 672 c 0
 247 672 205 727 205 819 c 0
 205 1005 381 1229 600 1327 c 0
 655 1350 698 1358 784 1358 c 1
 797 1372 l 2
 805 1382 811 1386 821 1384 c 2
 829 1382 l 1
 895 1378 l 2
 905 1378 911 1370 911 1360 c 0
 911 1352 907 1340 895 1315 c 0
 838 1198 729 887 729 842 c 0
 729 830 735 821 745 821 c 0
 755 821 773 833 793 862 c 0
 826 905 834 913 844 913 c 0
 846 913 848 913 852 909 c 2
662 1257 m 0
 547 1265 375 1022 375 852 c 0
 375 815 389 791 412 791 c 0
 455 791 530 883 618 1049 c 0
 681 1164 696 1198 696 1227 c 0
 696 1245 685 1255 662 1257 c 0
EndSplineSet
EndChar

StartChar: Lslash
Encoding: 237 321 139
Width: 1284
Flags: HMW
HStem: -10 78<10 12 10 12> 844 41G<948 948> 1339 82
LayerCount: 2
Fore
SplineSet
328 698 m 1
 457 1141 l 2
 488 1237 487 1239 487 1266 c 0
 487 1315 455 1333 365 1339 c 0
 318 1341 313 1344 313 1356 c 2
 315 1372 l 1
 319 1393 l 2
 325 1418 331 1421 358 1421 c 0
 374 1421 418 1419 473 1417 c 0
 545 1413 611 1411 674 1411 c 0
 752 1411 780 1413 909 1419 c 0
 921 1421 944 1421 956 1421 c 0
 970 1421 977 1413 975 1395 c 2
 971 1370 l 2
 969 1343 964 1341 909 1341 c 0
 794 1335 770 1311 717 1141 c 2
 610 782 l 1
 948 885 l 1
 918 762 l 1
 573 657 l 1
 473 330 l 2
 436 197 436 197 436 174 c 0
 436 104 502 78 672 78 c 0
 824 78 940 96 1010 133 c 0
 1069 164 1077 172 1171 315 c 0
 1175 321 1182 326 1186 326 c 0
 1190 326 1198 323 1206 319 c 2
 1235 307 l 2
 1249 301 1253 297 1253 291 c 0
 1253 285 1249 274 1245 266 c 2
 1143 29 l 2
 1129 -4 1123 -10 1100 -10 c 0
 1067 -10 741 -4 524 0 c 2
 383 -2 l 1
 233 -2 l 1
 76 -6 l 2
 45 -8 16 -10 8 -10 c 0
 -6 -10 -10 -6 -10 6 c 2
 -10 16 l 1
 -6 41 l 2
 -4 57 -4 59 2 63 c 0
 4 65 8 68 12 68 c 2
 47 72 l 2
 135 88 156 114 203 270 c 2
 291 573 l 1
 84 512 l 1
 121 637 l 1
 328 698 l 1
EndSplineSet
EndChar

StartChar: Oslash
Encoding: 151 216 140
Width: 1699
Flags: HMW
HStem: -41 90<752 890 752 1068> 1366 90<944 1082>
VStem: 156 268<516 684 509 856> 1415 268<744 900 555 909>
LayerCount: 2
Fore
SplineSet
188 -18 m 2
 330 133 l 1
 213 256 156 417 156 614 c 0
 156 1097 522 1456 1016 1456 c 0
 1180 1456 1321 1415 1432 1337 c 1
 1579 1497 l 2
 1591 1511 1595 1513 1599 1513 c 0
 1605 1513 1606 1513 1622 1499 c 2
 1653 1470 l 2
 1667 1458 1669 1454 1669 1450 c 0
 1669 1446 1669 1446 1642 1415 c 2
 1511 1272 l 1
 1630 1143 1683 1000 1683 801 c 0
 1683 309 1321 -41 815 -41 c 0
 651 -41 517 -4 408 70 c 1
 260 -88 l 2
 242 -108 235 -115 229 -115 c 0
 225 -115 225 -114 211 -100 c 2
 182 -74 l 2
 166 -58 166 -55 166 -51 c 0
 166 -47 165 -47 188 -18 c 2
465 283 m 1
 1327 1223 l 1
 1253 1319 1151 1366 1014 1366 c 0
 875 1366 751 1311 653 1202 c 0
 508 1040 424 807 424 561 c 0
 424 457 436 371 465 283 c 1
1380 1128 m 1
 516 190 l 1
 592 94 686 49 817 49 c 0
 962 49 1098 112 1192 223 c 0
 1331 387 1415 626 1415 862 c 0
 1415 956 1403 1048 1380 1128 c 1
EndSplineSet
EndChar

StartChar: OE
Encoding: 252 338 141
Width: 2115
Flags: HW
HStem: -41 92<720 860> -4 84<1415 1574> 709 94<1417 1581 1581 1602 1393 1581> 1333 80<1624 1891 1718 1815> 1362 92<1023 1081 946 1169>
VStem: 141 297<409 695 409 696> 2007 90<1122 1145 1128 1145>
LayerCount: 2
Fore
SplineSet
1417 803 m 1x36
 1581 803 l 2
 1718 803 1770 830 1831 934 c 0
 1839 948 1846 950 1862 950 c 2
 1896 950 l 2
 1912 950 1919 946 1919 936 c 0
 1919 930 1917 925 1909 905 c 0
 1874 811 1829 659 1804 559 c 0
 1798 530 1794 528 1763 528 c 2
 1729 528 l 2
 1709 528 1702 533 1702 543 c 0
 1702 547 1704 553 1706 559 c 0
 1724 622 1729 635 1729 655 c 0
 1729 698 1704 709 1602 709 c 2
 1393 709 l 1
 1274 287 l 2
 1243 166 1243 165 1243 147 c 0
 1243 90 1284 80 1536 80 c 0
 1769 80 1868 121 1944 252 c 0
 1983 320 1985 322 1995 322 c 0
 1999 322 1999 321 2011 315 c 2
 2044 299 l 2
 2060 291 2064 287 2064 279 c 0
 2064 273 2064 273 2054 250 c 2
 1982 86 l 2
 1974 68 1966 48 1958 25 c 0
 1946 -6 1941 -10 1923 -10 c 0
 1917 -10 1898 -10 1880 -8 c 0
 1831 -6 1634 -4 1513 -4 c 0x76
 1316 -4 1258 -8 1008 -33 c 0
 947 -39 888 -41 831 -41 c 0
 401 -41 141 195 141 580 c 0
 141 813 233 1030 401 1190 c 0
 573 1352 830 1454 1063 1454 c 0xae
 1100 1454 1157 1450 1233 1442 c 0
 1419 1422 1597 1413 1839 1413 c 0
 1943 1413 2058 1415 2107 1419 c 0
 2121 1421 2136 1421 2144 1421 c 0
 2158 1421 2167 1417 2167 1407 c 0
 2167 1403 2167 1403 2161 1380 c 2
 2097 1145 l 2
 2089 1110 2089 1110 2087 1108 c 0
 2085 1106 2080 1104 2066 1104 c 2
 2034 1104 l 2
 2011 1104 2007 1108 2007 1122 c 2
 2007 1128 l 2
 2009 1153 2009 1178 2009 1190 c 0
 2009 1305 1971 1333 1815 1333 c 2
 1671 1333 l 2
 1577 1333 1565 1319 1524 1178 c 2
 1417 803 l 1x36
1047 266 m 2
 1272 1063 l 2
 1299 1153 1307 1194 1307 1225 c 0
 1307 1311 1233 1362 1106 1362 c 0
 940 1362 786 1304 680 1202 c 0
 528 1055 438 821 438 569 c 0
 438 247 594 51 846 51 c 0xae
 907 51 950 65 977 94 c 0
 1004 123 1014 147 1047 266 c 2
EndSplineSet
EndChar

StartChar: ordmasculine
Encoding: 121 186 142
Width: 868
Flags: HMW
HStem: 672 61<459 506 459 586> 1321 61<593 639>
VStem: 238 170<870 910 818 1008> 692 170<1145 1188 996 1235>
LayerCount: 2
Fore
SplineSet
612 1382 m 0
 755 1382 862 1266 862 1110 c 0
 862 883 684 672 487 672 c 0
 342 672 238 788 238 952 c 0
 238 1063 299 1200 383 1284 c 0
 449 1345 530 1382 612 1382 c 0
612 1321 m 0
 573 1321 541 1293 504 1227 c 0
 455 1137 408 960 408 860 c 0
 408 776 434 733 483 733 c 0
 528 733 563 768 606 854 c 0
 657 960 692 1098 692 1192 c 0
 692 1278 665 1321 612 1321 c 0
EndSplineSet
EndChar

StartChar: ae
Encoding: 165 230 143
Width: 1435
Flags: HW
HStem: -39 131<968 1008> -39 182<158 376> 743 131 844 80<1152 1182>
VStem: 66 209<207 286> 627 223<236 269> 1245 188<679 770>
LayerCount: 2
Fore
SplineSet
1260 213 m 1x9e
 1303 176 l 1
 1180 16 1086 -39 930 -39 c 0x9e
 836 -39 751 -8 702 47 c 0
 657 96 627 182 627 258 c 0
 627 281 629 299 635 336 c 1
 586 264 555 225 518 178 c 0
 414 45 291 -39 199 -39 c 0
 117 -39 66 27 66 129 c 0
 66 442 475 874 772 874 c 0x6e
 792 874 813 872 858 864 c 1
 919 950 926 954 977 954 c 0
 1024 954 1051 946 1051 934 c 0
 1051 930 1048 917 1044 911 c 2
 1034 887 l 1
 1079 914 1118 924 1186 924 c 0
 1340 924 1434 852 1434 737 c 0
 1434 553 1229 434 862 403 c 1
 852 352 850 330 850 297 c 0
 850 174 918 92 1018 92 c 0
 1098 92 1170 127 1260 213 c 1x9e
872 485 m 1
 882 485 883 485 895 487 c 0
 1088 497 1245 614 1245 743 c 0x2e
 1245 796 1204 844 1159 844 c 0
 1067 844 950 696 872 485 c 1
684 743 m 0
 612 747 504 677 414 573 c 0
 330 471 274 342 274 240 c 0
 274 174 297 143 342 143 c 0x6e
 410 143 473 205 590 383 c 0
 686 524 758 657 758 690 c 0
 758 721 729 741 684 743 c 0
EndSplineSet
Substitution2: "smcpLowercasetoSmallCapitalslookup subtable" ae.smcp
EndChar

StartChar: dotlessi
Encoding: 223 305 144
Width: 641
Flags: HMW
HStem: -39 170<186 383> 739 184<257 468>
VStem: 309 231<690 849>
LayerCount: 2
Fore
SplineSet
535 287 m 1
 586 246 l 1
 447 58 323 -39 221 -39 c 0
 151 -39 102 7 102 68 c 0
 102 115 119 168 221 436 c 0
 282 596 309 680 309 700 c 0
 309 723 292 739 272 739 c 0
 241 739 207 715 135 639 c 0
 131 635 127 633 123 633 c 0
 121 633 119 635 111 641 c 2
 92 659 l 2
 86 665 84 670 84 674 c 0
 84 678 91 688 109 711 c 0
 215 836 348 924 434 924 c 0
 502 924 541 883 541 815 c 0
 541 743 500 622 373 319 c 0
 342 245 326 196 326 178 c 0
 326 151 344 131 367 131 c 0
 400 131 431 160 535 287 c 1
EndSplineSet
EndChar

StartChar: lslash
Encoding: 238 322 145
Width: 604
Flags: HMW
HStem: -35 170<164 352> 1438 63<252 264>
VStem: 76 223<54 197>
LayerCount: 2
Fore
SplineSet
264 788 m 1
 358 1094 l 2
 399 1229 422 1323 422 1360 c 0
 422 1417 379 1436 252 1438 c 1
 264 1501 l 1
 526 1536 539 1538 682 1581 c 1
 705 1559 l 1
 678 1481 580 1167 504 915 c 2
 492 872 l 1
 688 948 l 1
 657 836 l 1
 457 760 l 1
 365 461 299 215 299 178 c 0
 299 151 311 135 334 135 c 0
 371 135 377 140 504 281 c 1
 553 240 l 1
 375 31 291 -35 197 -35 c 0
 131 -35 76 20 76 88 c 0
 76 141 101 243 162 446 c 2
 229 674 l 1
 61 610 l 1
 94 723 l 1
 264 788 l 1
EndSplineSet
Substitution2: "smcpLowercasetoSmallCapitalslookup subtable" lslash.smcp
EndChar

StartChar: oslash
Encoding: 183 248 146
Width: 983
Flags: HMW
HStem: -39 78<375 435 375 540> 848 76<554 610>
LayerCount: 2
Fore
SplineSet
907 932 m 2
 821 821 l 1
 887 739 913 660 913 549 c 0
 913 230 680 -39 399 -39 c 0
 319 -39 268 -20 209 25 c 1
 186 -6 l 2
 168 -29 165 -31 145 -31 c 2
 94 -31 l 2
 80 -31 70 -26 70 -18 c 0
 70 -14 76 -4 84 6 c 2
 147 90 l 1
 98 164 76 236 76 336 c 0
 76 655 311 924 590 924 c 0
 656 924 697 912 754 879 c 1
 805 946 l 2
 819 964 819 965 842 965 c 2
 899 965 l 2
 915 965 920 962 920 956 c 0
 920 950 917 946 907 932 c 2
690 651 m 1
 301 143 l 1
 313 75 348 39 401 39 c 0
 469 39 537 99 584 203 c 0
 643 336 682 499 690 651 c 1
305 295 m 1
 676 778 l 1
 658 825 631 848 590 848 c 0
 518 848 450 780 397 647 c 0
 348 534 321 424 305 295 c 1
EndSplineSet
Substitution2: "smcpLowercasetoSmallCapitalslookup subtable" oslash.smcp
EndChar

StartChar: oe
Encoding: 253 339 147
Width: 1472
Flags: HW
HStem: -39 78<366 428 366 457> -39 131<1009 1049> 844 80<1164 1220>
VStem: 76 221<224 272 146 496> 1288 186<698 750>
LayerCount: 2
Fore
SplineSet
1300 213 m 1x78
 1343 176 l 1
 1222 16 1127 -39 971 -39 c 0x78
 850 -39 766 2 713 88 c 1
 613 0 516 -39 397 -39 c 0xb8
 207 -39 76 113 76 336 c 0
 76 655 311 924 590 924 c 0
 711 924 807 865 866 752 c 1
 977 869 1094 924 1235 924 c 0
 1380 924 1475 850 1475 735 c 0
 1475 635 1403 544 1272 483 c 0
 1188 444 1063 417 903 403 c 1
 893 354 891 332 891 297 c 0
 891 174 959 92 1059 92 c 0
 1139 92 1210 127 1300 213 c 1x78
590 848 m 0
 531 850 471 800 420 702 c 0
 354 573 297 344 297 201 c 0
 297 92 331 39 399 39 c 0xb8
 456 39 512 80 559 158 c 0
 629 273 690 518 690 676 c 0
 690 787 656 844 590 848 c 0
915 485 m 1
 983 489 1036 500 1083 516 c 0
 1200 559 1288 655 1288 741 c 0
 1288 757 1282 778 1266 811 c 0
 1254 831 1233 844 1206 844 c 0
 1110 844 993 700 915 485 c 1
EndSplineSet
Substitution2: "smcpLowercasetoSmallCapitalslookup subtable" oe.smcp
EndChar

StartChar: germandbls
Encoding: 158 223 148
Width: 1095
Flags: HW
HStem: -553 129<-197 -59> -39 96<561 764> 1489 98<772 888>
VStem: 680 186<707 861> 870 190<175 382> 1038 184<1286 1346>
LayerCount: 2
Fore
SplineSet
43 -215 m 2xf4
 297 922 l 2
 387 1323 630 1587 913 1587 c 0
 1099 1587 1223 1489 1223 1339 c 0xf4
 1223 1233 1174 1157 1018 1030 c 0
 899 930 866 889 866 834 c 0
 866 801 882 764 954 633 c 0
 1040 469 1061 418 1061 346 c 0
 1061 158 825 -39 600 -39 c 0
 522 -39 475 -2 475 55 c 0
 475 110 520 160 569 160 c 0
 602 160 622 145 657 102 c 0
 684 67 702 57 727 57 c 0
 801 57 870 135 870 215 c 0xf8
 870 278 846 344 774 481 c 0
 696 631 680 676 680 737 c 0
 680 811 719 868 819 946 c 0
 985 1071 1038 1153 1038 1284 c 0
 1038 1407 952 1489 823 1489 c 0
 682 1489 608 1387 545 1104 c 2
 383 385 l 2
 324 127 213 -176 113 -340 c 0
 21 -494 -56 -553 -162 -553 c 0
 -232 -553 -281 -518 -281 -467 c 0
 -281 -416 -233 -369 -178 -369 c 0
 -153 -369 -143 -373 -94 -412 c 0
 -82 -422 -76 -424 -68 -424 c 0
 -52 -424 -37 -412 -23 -387 c 0
 -7 -358 35 -254 43 -215 c 2xf4
EndSplineSet
Substitution2: "smcpLowercasetoSmallCapitalslookup subtable" germandbls.smcp
EndChar

StartChar: Adieresis
Encoding: 131 196 149
Width: 1511
Flags: HMW
HStem: -6 74 549 102<530 530 530 961 475 530> 1552 270<806 869 1197 1261>
VStem: 721 233<1652 1726> 1112 233<1652 1726>
LayerCount: 2
Fore
SplineSet
961 549 m 1
 475 549 l 1
 383 379 l 2
 311 244 279 170 279 137 c 0
 279 125 285 110 293 102 c 0
 316 79 316 80 416 68 c 0
 428 66 434 61 434 53 c 0
 434 49 432 39 430 35 c 2
 424 14 l 2
 418 -4 413 -10 399 -10 c 2
 279 -6 l 2
 234 -2 201 0 195 0 c 0
 189 0 156 -2 111 -6 c 2
 -14 -10 l 2
 -34 -10 -43 -4 -43 6 c 0
 -43 10 -43 19 -41 25 c 2
 -37 45 l 2
 -31 68 -29 70 8 70 c 0
 74 74 92 94 205 287 c 2
 883 1444 l 1
 953 1450 1032 1460 1067 1470 c 1
 1241 231 l 2
 1259 86 1272 72 1368 68 c 0
 1415 66 1417 65 1417 55 c 0
 1417 53 1417 45 1415 39 c 2
 1411 16 l 2
 1407 -4 1400 -10 1380 -10 c 0
 1351 -10 1256 -8 1221 -6 c 0
 1164 -2 1122 0 1110 0 c 0
 1098 0 1059 -2 1010 -6 c 0
 973 -8 879 -12 846 -12 c 0
 828 -12 817 -8 817 2 c 0
 817 4 817 4 821 18 c 2
 827 45 l 2
 829 57 832 64 838 68 c 2
 852 72 l 1
 895 72 l 2
 965 74 999 103 999 160 c 0
 999 183 999 182 987 299 c 2
 961 549 l 1
946 649 m 1
 874 1266 l 1
 530 651 l 1
 946 649 l 1
840 1823 m 0
 908 1823 954 1768 954 1692 c 0
 954 1612 904 1552 836 1552 c 0
 768 1552 721 1610 721 1688 c 0
 721 1766 772 1823 840 1823 c 0
1231 1823 m 0
 1299 1823 1346 1768 1346 1692 c 0
 1346 1612 1295 1552 1227 1552 c 0
 1159 1552 1112 1610 1112 1688 c 0
 1112 1766 1163 1823 1231 1823 c 0
EndSplineSet
EndChar

StartChar: Aacute
Encoding: 128 193 150
Width: 1511
Flags: HMW
HStem: -6 74 549 102<530 530 530 961 475 530>
LayerCount: 2
Fore
SplineSet
961 549 m 1
 475 549 l 1
 383 379 l 2
 311 244 279 170 279 137 c 0
 279 125 285 110 293 102 c 0
 316 79 316 80 416 68 c 0
 428 66 434 61 434 53 c 0
 434 49 432 39 430 35 c 2
 424 14 l 2
 418 -4 413 -10 399 -10 c 2
 279 -6 l 2
 234 -2 201 0 195 0 c 0
 189 0 156 -2 111 -6 c 2
 -14 -10 l 2
 -34 -10 -43 -4 -43 6 c 0
 -43 10 -43 19 -41 25 c 2
 -37 45 l 2
 -31 68 -29 70 8 70 c 0
 74 74 92 94 205 287 c 2
 883 1444 l 1
 953 1450 1032 1460 1067 1470 c 1
 1241 231 l 2
 1259 86 1272 72 1368 68 c 0
 1415 66 1417 65 1417 55 c 0
 1417 53 1417 45 1415 39 c 2
 1411 16 l 2
 1407 -4 1400 -10 1380 -10 c 0
 1351 -10 1256 -8 1221 -6 c 0
 1164 -2 1122 0 1110 0 c 0
 1098 0 1059 -2 1010 -6 c 0
 973 -8 879 -12 846 -12 c 0
 828 -12 817 -8 817 2 c 0
 817 4 817 4 821 18 c 2
 827 45 l 2
 829 57 832 64 838 68 c 2
 852 72 l 1
 895 72 l 2
 965 74 999 103 999 160 c 0
 999 183 999 182 987 299 c 2
 961 549 l 1
946 649 m 1
 874 1266 l 1
 530 651 l 1
 946 649 l 1
889 1636 m 2
 1079 1847 l 2
 1134 1908 1176 1931 1229 1931 c 0
 1286 1931 1327 1898 1327 1851 c 0
 1327 1810 1272 1758 1155 1688 c 2
 954 1569 l 2
 925 1553 926 1552 920 1552 c 0
 914 1552 907 1557 903 1563 c 2
 879 1597 l 2
 875 1601 872 1608 872 1612 c 0
 872 1618 873 1618 889 1636 c 2
EndSplineSet
EndChar

StartChar: Agrave
Encoding: 127 192 151
Width: 1511
Flags: HMW
HStem: -6 74 549 102<530 530 530 961 475 530>
LayerCount: 2
Fore
SplineSet
961 549 m 1
 475 549 l 1
 383 379 l 2
 311 244 279 170 279 137 c 0
 279 125 285 110 293 102 c 0
 316 79 316 80 416 68 c 0
 428 66 434 61 434 53 c 0
 434 49 432 39 430 35 c 2
 424 14 l 2
 418 -4 413 -10 399 -10 c 2
 279 -6 l 2
 234 -2 201 0 195 0 c 0
 189 0 156 -2 111 -6 c 2
 -14 -10 l 2
 -34 -10 -43 -4 -43 6 c 0
 -43 10 -43 19 -41 25 c 2
 -37 45 l 2
 -31 68 -29 70 8 70 c 0
 74 74 92 94 205 287 c 2
 883 1444 l 1
 953 1450 1032 1460 1067 1470 c 1
 1241 231 l 2
 1259 86 1272 72 1368 68 c 0
 1415 66 1417 65 1417 55 c 0
 1417 53 1417 45 1415 39 c 2
 1411 16 l 2
 1407 -4 1400 -10 1380 -10 c 0
 1351 -10 1256 -8 1221 -6 c 0
 1164 -2 1122 0 1110 0 c 0
 1098 0 1059 -2 1010 -6 c 0
 973 -8 879 -12 846 -12 c 0
 828 -12 817 -8 817 2 c 0
 817 4 817 4 821 18 c 2
 827 45 l 2
 829 57 832 64 838 68 c 2
 852 72 l 1
 895 72 l 2
 965 74 999 103 999 160 c 0
 999 183 999 182 987 299 c 2
 961 549 l 1
946 649 m 1
 874 1266 l 1
 530 651 l 1
 946 649 l 1
1116 1569 m 2
 915 1688 l 2
 802 1756 745 1810 745 1851 c 0
 745 1898 787 1931 844 1931 c 0
 897 1931 938 1908 993 1847 c 2
 1184 1636 l 2
 1200 1618 1200 1618 1200 1612 c 0
 1200 1608 1198 1603 1194 1597 c 2
 1169 1563 l 2
 1163 1557 1157 1552 1153 1552 c 0
 1147 1552 1145 1553 1116 1569 c 2
EndSplineSet
EndChar

StartChar: Acircumflex
Encoding: 129 194 152
Width: 1511
Flags: HMW
HStem: -6 74 549 102<530 530 530 961 475 530>
LayerCount: 2
Fore
SplineSet
961 549 m 1
 475 549 l 1
 383 379 l 2
 311 244 279 170 279 137 c 0
 279 125 285 110 293 102 c 0
 316 79 316 80 416 68 c 0
 428 66 434 61 434 53 c 0
 434 49 432 39 430 35 c 2
 424 14 l 2
 418 -4 413 -10 399 -10 c 2
 279 -6 l 2
 234 -2 201 0 195 0 c 0
 189 0 156 -2 111 -6 c 2
 -14 -10 l 2
 -34 -10 -43 -4 -43 6 c 0
 -43 10 -43 19 -41 25 c 2
 -37 45 l 2
 -31 68 -29 70 8 70 c 0
 74 74 92 94 205 287 c 2
 883 1444 l 1
 953 1450 1032 1460 1067 1470 c 1
 1241 231 l 2
 1259 86 1272 72 1368 68 c 0
 1415 66 1417 65 1417 55 c 0
 1417 53 1417 45 1415 39 c 2
 1411 16 l 2
 1407 -4 1400 -10 1380 -10 c 0
 1351 -10 1256 -8 1221 -6 c 0
 1164 -2 1122 0 1110 0 c 0
 1098 0 1059 -2 1010 -6 c 0
 973 -8 879 -12 846 -12 c 0
 828 -12 817 -8 817 2 c 0
 817 4 817 4 821 18 c 2
 827 45 l 2
 829 57 832 64 838 68 c 2
 852 72 l 1
 895 72 l 2
 965 74 999 103 999 160 c 0
 999 183 999 182 987 299 c 2
 961 549 l 1
946 649 m 1
 874 1266 l 1
 530 651 l 1
 946 649 l 1
1305 1563 m 2
 1169 1669 l 2
 1091 1732 1088 1739 1065 1790 c 1
 1036 1753 1026 1743 971 1702 c 2
 780 1559 l 2
 774 1555 770 1552 768 1552 c 0
 764 1552 760 1555 752 1565 c 2
 719 1597 l 2
 713 1603 709 1610 709 1614 c 0
 709 1620 708 1620 784 1694 c 0
 800 1710 825 1737 854 1772 c 2
 952 1892 l 2
 989 1937 1030 1958 1079 1958 c 0
 1134 1958 1169 1935 1206 1878 c 2
 1290 1745 l 2
 1315 1706 1335 1681 1380 1626 c 0
 1386 1620 1389 1616 1389 1612 c 0
 1389 1610 1384 1601 1380 1595 c 2
 1346 1556 l 2
 1342 1552 1337 1548 1333 1548 c 0
 1325 1548 1321 1553 1305 1563 c 2
EndSplineSet
EndChar

StartChar: Atilde
Encoding: 130 195 153
Width: 1511
Flags: HW
HStem: -6 74 549 102<530 530 530 961 475 530> 1552 168<1155 1229> 1718 168<947 956>
LayerCount: 2
Fore
SplineSet
961 549 m 1xc0
 475 549 l 1
 383 379 l 2
 311 244 279 170 279 137 c 0
 279 125 285 110 293 102 c 0
 316 79 316 80 416 68 c 0
 428 66 434 61 434 53 c 0
 434 49 432 39 430 35 c 2
 424 14 l 2
 418 -4 413 -10 399 -10 c 2
 279 -6 l 2
 234 -2 201 0 195 0 c 0
 189 0 156 -2 111 -6 c 2
 -14 -10 l 2
 -34 -10 -43 -4 -43 6 c 0
 -43 10 -43 19 -41 25 c 2
 -37 45 l 2
 -31 68 -29 70 8 70 c 0
 74 74 92 94 205 287 c 2
 883 1444 l 1
 953 1450 1032 1460 1067 1470 c 1
 1241 231 l 2
 1259 86 1272 72 1368 68 c 0
 1415 66 1417 65 1417 55 c 0
 1417 53 1417 45 1415 39 c 2
 1411 16 l 2
 1407 -4 1400 -10 1380 -10 c 0
 1351 -10 1256 -8 1221 -6 c 0
 1164 -2 1122 0 1110 0 c 0
 1098 0 1059 -2 1010 -6 c 0
 973 -8 879 -12 846 -12 c 0
 828 -12 817 -8 817 2 c 0
 817 4 817 4 821 18 c 2
 827 45 l 2
 829 57 832 64 838 68 c 2
 852 72 l 1
 895 72 l 2
 965 74 999 103 999 160 c 0
 999 183 999 182 987 299 c 2
 961 549 l 1xc0
946 649 m 1
 874 1266 l 1
 530 651 l 1
 946 649 l 1
717 1571 m 2
 690 1593 l 2
 686 1597 682 1602 682 1606 c 0
 682 1614 704 1653 735 1696 c 0
 819 1815 913 1886 981 1886 c 0xd0
 1030 1886 1042 1878 1153 1759 c 0
 1176 1734 1199 1720 1219 1720 c 0
 1239 1720 1271 1734 1298 1757 c 0
 1304 1761 1325 1786 1364 1827 c 0
 1395 1862 1405 1872 1413 1872 c 0
 1417 1872 1423 1870 1425 1868 c 2
 1442 1855 l 2
 1460 1843 1462 1841 1462 1835 c 0
 1462 1819 1413 1737 1372 1686 c 0
 1302 1602 1231 1552 1174 1552 c 0xe0
 1137 1552 1108 1570 1047 1640 c 0
 984 1708 971 1718 942 1718 c 0xd0
 897 1718 831 1676 782 1610 c 0
 749 1567 743 1563 733 1563 c 0
 729 1563 725 1565 717 1571 c 2
EndSplineSet
EndChar

StartChar: Aring
Encoding: 132 197 154
Width: 1511
Flags: HMW
HStem: -6 74 549 102<530 530 530 961 475 530> 1524 106<1048 1103 1048 1133> 1829 106<1049 1103>
VStem: 870 106<1703 1757 1703 1788> 1176 106<1702 1756>
LayerCount: 2
Fore
SplineSet
961 549 m 1
 475 549 l 1
 383 379 l 2
 311 244 279 170 279 137 c 0
 279 125 285 110 293 102 c 0
 316 79 316 80 416 68 c 0
 428 66 434 61 434 53 c 0
 434 49 432 39 430 35 c 2
 424 14 l 2
 418 -4 413 -10 399 -10 c 2
 279 -6 l 2
 234 -2 201 0 195 0 c 0
 189 0 156 -2 111 -6 c 2
 -14 -10 l 2
 -34 -10 -43 -4 -43 6 c 0
 -43 10 -43 19 -41 25 c 2
 -37 45 l 2
 -31 68 -29 70 8 70 c 0
 74 74 92 94 205 287 c 2
 883 1444 l 1
 953 1450 1032 1460 1067 1470 c 1
 1241 231 l 2
 1259 86 1272 72 1368 68 c 0
 1415 66 1417 65 1417 55 c 0
 1417 53 1417 45 1415 39 c 2
 1411 16 l 2
 1407 -4 1400 -10 1380 -10 c 0
 1351 -10 1256 -8 1221 -6 c 0
 1164 -2 1122 0 1110 0 c 0
 1098 0 1059 -2 1010 -6 c 0
 973 -8 879 -12 846 -12 c 0
 828 -12 817 -8 817 2 c 0
 817 4 817 4 821 18 c 2
 827 45 l 2
 829 57 832 64 838 68 c 2
 852 72 l 1
 895 72 l 2
 965 74 999 103 999 160 c 0
 999 183 999 182 987 299 c 2
 961 549 l 1
946 649 m 1
 874 1266 l 1
 530 651 l 1
 946 649 l 1
1077 1935 m 0
 1190 1935 1282 1844 1282 1729 c 0
 1282 1616 1190 1524 1075 1524 c 0
 960 1524 870 1616 870 1733 c 0
 870 1844 964 1935 1077 1935 c 0
1075 1829 m 0
 1022 1829 977 1784 977 1731 c 0
 977 1676 1020 1630 1075 1630 c 0
 1130 1630 1176 1676 1176 1729 c 0
 1176 1784 1130 1829 1075 1829 c 0
EndSplineSet
EndChar

StartChar: Ccedilla
Encoding: 134 199 155
Width: 1511
Flags: HMW
HStem: -471 104<631 665 631 675> -41 90<831 914> 1366 90<889 1104>
VStem: 168 268<454 784 397 855> 729 170<-312 -269>
LayerCount: 2
Fore
SplineSet
760 -37 m 1
 725 -115 l 1
 846 -135 899 -180 899 -262 c 0
 899 -371 754 -471 596 -471 c 0
 485 -471 428 -440 428 -383 c 0
 428 -346 457 -317 494 -317 c 0
 517 -317 516 -317 586 -354 c 0
 602 -362 621 -367 641 -367 c 0
 688 -367 729 -332 729 -293 c 0
 729 -246 682 -217 590 -213 c 0
 580 -211 563 -205 563 -199 c 0
 563 -193 574 -181 627 -115 c 0
 637 -103 656 -76 662 -66 c 2
 680 -25 l 1
 352 53 168 287 168 621 c 0
 168 1090 547 1456 1032 1456 c 0
 1241 1456 1411 1395 1565 1264 c 1
 1473 1022 l 2
 1463 993 1462 993 1456 993 c 2
 1450 993 l 1
 1436 997 l 1
 1405 1001 l 2
 1385 1005 1378 1010 1378 1020 c 0
 1378 1026 1380 1032 1382 1042 c 0
 1392 1069 1401 1116 1401 1143 c 0
 1401 1211 1370 1257 1300 1300 c 0
 1237 1341 1147 1366 1061 1366 c 0
 717 1366 436 1005 436 563 c 0
 436 231 584 49 848 49 c 0
 993 49 1104 100 1192 211 c 0
 1212 238 1212 238 1278 340 c 0
 1280 346 1286 350 1288 350 c 0
 1290 350 1291 350 1305 346 c 2
 1346 332 l 2
 1356 328 1358 326 1358 322 c 0
 1358 318 1358 317 1352 301 c 2
 1264 55 l 1
 1094 -17 983 -41 846 -41 c 0
 817 -41 797 -41 760 -37 c 1
EndSplineSet
EndChar

StartChar: Eth
Encoding: 143 208 156
Width: 1585
Flags: HW
HStem: -10 88<642 843 579 937> 700 102<209 344 180 375 618 889> 1341 92 1364 88<837 1032>
VStem: 1337 268<641 1032>
LayerCount: 2
Fore
SplineSet
375 803 m 1xd8
 451 1055 l 2
 482 1164 500 1241 500 1278 c 0
 500 1325 469 1350 410 1350 c 0
 396 1350 378 1348 362 1346 c 0
 344 1344 329 1341 319 1341 c 0
 309 1341 301 1348 301 1358 c 2
 303 1374 l 1
 311 1401 l 2
 317 1421 330 1428 389 1434 c 0xe8
 493 1444 696 1452 811 1452 c 0
 1356 1452 1606 1257 1606 831 c 0
 1606 342 1211 -10 664 -10 c 0
 621 -10 563 -8 489 -4 c 0
 419 -2 375 0 344 0 c 0
 221 0 112 -4 49 -8 c 0
 39 -10 24 -10 14 -10 c 0
 0 -10 -4 -6 -4 6 c 2
 -4 16 l 1
 0 41 l 2
 2 57 4 59 8 63 c 0
 10 65 14 68 18 68 c 2
 59 70 l 1
 149 90 168 112 215 270 c 2
 344 700 l 1
 180 700 l 1
 209 803 l 1
 375 803 l 1xd8
618 803 m 1
 920 803 l 1
 889 700 l 1
 590 700 l 1
 471 287 l 2
 440 172 440 172 440 156 c 0
 440 109 518 78 639 78 c 0
 1047 78 1337 409 1337 872 c 0
 1337 1191 1180 1364 885 1364 c 0xd8
 789 1364 778 1354 741 1231 c 2
 618 803 l 1
EndSplineSet
EndChar

StartChar: Edieresis
Encoding: 138 203 157
Width: 1284
Flags: HW
HStem: 0 80<511 777> 709 94<594 756 756 776 569 756> 1337 84 1552 270<693 757 1084 1148>
VStem: 608 233<1652 1726> 999 233<1652 1726> 1180 90<1122 1145 1126 1145>
LayerCount: 2
Fore
SplineSet
594 803 m 1xfa
 756 803 l 2
 891 803 949 832 1006 934 c 0
 1014 946 1020 950 1036 950 c 2
 1071 950 l 2
 1089 950 1096 946 1096 936 c 0
 1096 930 1093 925 1085 905 c 0
 1054 821 1001 647 981 559 c 0
 975 532 971 528 938 528 c 2
 903 528 l 2
 883 528 877 533 877 543 c 0
 877 549 877 549 887 584 c 0
 897 615 903 639 903 655 c 0
 903 698 878 709 776 709 c 2
 569 709 l 1
 453 287 l 2
 422 166 422 165 422 147 c 0
 422 90 466 80 702 80 c 0
 852 80 914 88 975 119 c 0
 1034 148 1081 193 1116 252 c 0
 1155 318 1157 322 1167 322 c 0
 1171 322 1172 321 1184 315 c 2
 1217 299 l 2
 1233 291 1237 287 1237 279 c 0
 1237 273 1237 273 1227 250 c 2
 1155 86 l 2
 1147 68 1138 48 1130 25 c 0
 1118 -4 1114 -10 1096 -10 c 0
 1090 -10 1069 -10 1053 -8 c 0
 1014 -6 606 0 526 0 c 0
 495 0 452 0 393 -2 c 2
 256 -2 l 1
 74 -6 l 2
 43 -8 12 -10 2 -10 c 0
 -12 -10 -16 -6 -16 6 c 2
 -16 16 l 1
 -12 41 l 2
 -10 57 -10 59 -4 63 c 0
 -2 65 2 68 6 68 c 2
 37 72 l 2
 131 84 154 112 203 270 c 2
 444 1139 l 2
 464 1213 471 1239 471 1264 c 0
 471 1313 438 1333 346 1337 c 0
 299 1341 295 1344 295 1356 c 0
 295 1362 295 1366 297 1372 c 2
 301 1395 l 2
 307 1420 311 1421 338 1421 c 2
 903 1411 l 2
 1046 1411 1225 1415 1280 1419 c 0
 1294 1421 1309 1421 1317 1421 c 0
 1331 1421 1339 1417 1339 1407 c 0
 1339 1403 1339 1403 1333 1380 c 2
 1270 1145 l 2
 1262 1104 1262 1104 1239 1104 c 2
 1206 1104 l 2
 1183 1104 1180 1106 1180 1122 c 2
 1180 1126 l 2
 1182 1151 1182 1176 1182 1190 c 0
 1182 1303 1143 1331 987 1331 c 2
 850 1331 l 2
 756 1331 741 1317 702 1176 c 2
 594 803 l 1xfa
727 1823 m 0
 795 1823 842 1768 842 1692 c 0
 842 1612 791 1552 723 1552 c 0
 655 1552 608 1610 608 1688 c 0
 608 1766 659 1823 727 1823 c 0
1118 1823 m 0
 1186 1823 1233 1768 1233 1692 c 0
 1233 1612 1182 1552 1114 1552 c 0
 1046 1552 999 1610 999 1688 c 0xfc
 999 1766 1050 1823 1118 1823 c 0
EndSplineSet
EndChar

StartChar: Eacute
Encoding: 136 201 158
Width: 1284
Flags: HMW
HStem: 0 80<511 777> 709 94<594 756 756 776 569 756> 1337 84
VStem: 1180 90<1122 1145 1126 1145>
LayerCount: 2
Fore
SplineSet
594 803 m 1
 756 803 l 2
 891 803 949 832 1006 934 c 0
 1014 946 1020 950 1036 950 c 2
 1071 950 l 2
 1089 950 1096 946 1096 936 c 0
 1096 930 1093 925 1085 905 c 0
 1054 821 1001 647 981 559 c 0
 975 532 971 528 938 528 c 2
 903 528 l 2
 883 528 877 533 877 543 c 0
 877 549 877 549 887 584 c 0
 897 615 903 639 903 655 c 0
 903 698 878 709 776 709 c 2
 569 709 l 1
 453 287 l 2
 422 166 422 165 422 147 c 0
 422 90 466 80 702 80 c 0
 852 80 914 88 975 119 c 0
 1034 148 1081 193 1116 252 c 0
 1155 318 1157 322 1167 322 c 0
 1171 322 1172 321 1184 315 c 2
 1217 299 l 2
 1233 291 1237 287 1237 279 c 0
 1237 273 1237 273 1227 250 c 2
 1155 86 l 2
 1147 68 1138 48 1130 25 c 0
 1118 -4 1114 -10 1096 -10 c 0
 1090 -10 1069 -10 1053 -8 c 0
 1014 -6 606 0 526 0 c 0
 495 0 452 0 393 -2 c 2
 256 -2 l 1
 74 -6 l 2
 43 -8 12 -10 2 -10 c 0
 -12 -10 -16 -6 -16 6 c 2
 -16 16 l 1
 -12 41 l 2
 -10 57 -10 59 -4 63 c 0
 -2 65 2 68 6 68 c 2
 37 72 l 2
 131 84 154 112 203 270 c 2
 444 1139 l 2
 464 1213 471 1239 471 1264 c 0
 471 1313 438 1333 346 1337 c 0
 299 1341 295 1344 295 1356 c 0
 295 1362 295 1366 297 1372 c 2
 301 1395 l 2
 307 1420 311 1421 338 1421 c 2
 903 1411 l 2
 1046 1411 1225 1415 1280 1419 c 0
 1294 1421 1309 1421 1317 1421 c 0
 1331 1421 1339 1417 1339 1407 c 0
 1339 1403 1339 1403 1333 1380 c 2
 1270 1145 l 2
 1262 1104 1262 1104 1239 1104 c 2
 1206 1104 l 2
 1183 1104 1180 1106 1180 1122 c 2
 1180 1126 l 2
 1182 1151 1182 1176 1182 1190 c 0
 1182 1303 1143 1331 987 1331 c 2
 850 1331 l 2
 756 1331 741 1317 702 1176 c 2
 594 803 l 1
776 1636 m 2
 967 1847 l 2
 1022 1908 1063 1931 1116 1931 c 0
 1173 1931 1214 1898 1214 1851 c 0
 1214 1810 1159 1756 1044 1688 c 2
 844 1569 l 2
 815 1553 813 1552 807 1552 c 0
 803 1552 797 1557 791 1563 c 2
 766 1597 l 2
 762 1603 760 1608 760 1612 c 0
 760 1618 760 1618 776 1636 c 2
EndSplineSet
EndChar

StartChar: Egrave
Encoding: 135 200 159
Width: 1284
Flags: HMW
HStem: 0 80<511 777> 709 94<594 756 756 776 569 756> 1337 84
VStem: 1180 90<1122 1145 1126 1145>
LayerCount: 2
Fore
SplineSet
594 803 m 1
 756 803 l 2
 891 803 949 832 1006 934 c 0
 1014 946 1020 950 1036 950 c 2
 1071 950 l 2
 1089 950 1096 946 1096 936 c 0
 1096 930 1093 925 1085 905 c 0
 1054 821 1001 647 981 559 c 0
 975 532 971 528 938 528 c 2
 903 528 l 2
 883 528 877 533 877 543 c 0
 877 549 877 549 887 584 c 0
 897 615 903 639 903 655 c 0
 903 698 878 709 776 709 c 2
 569 709 l 1
 453 287 l 2
 422 166 422 165 422 147 c 0
 422 90 466 80 702 80 c 0
 852 80 914 88 975 119 c 0
 1034 148 1081 193 1116 252 c 0
 1155 318 1157 322 1167 322 c 0
 1171 322 1172 321 1184 315 c 2
 1217 299 l 2
 1233 291 1237 287 1237 279 c 0
 1237 273 1237 273 1227 250 c 2
 1155 86 l 2
 1147 68 1138 48 1130 25 c 0
 1118 -4 1114 -10 1096 -10 c 0
 1090 -10 1069 -10 1053 -8 c 0
 1014 -6 606 0 526 0 c 0
 495 0 452 0 393 -2 c 2
 256 -2 l 1
 74 -6 l 2
 43 -8 12 -10 2 -10 c 0
 -12 -10 -16 -6 -16 6 c 2
 -16 16 l 1
 -12 41 l 2
 -10 57 -10 59 -4 63 c 0
 -2 65 2 68 6 68 c 2
 37 72 l 2
 131 84 154 112 203 270 c 2
 444 1139 l 2
 464 1213 471 1239 471 1264 c 0
 471 1313 438 1333 346 1337 c 0
 299 1341 295 1344 295 1356 c 0
 295 1362 295 1366 297 1372 c 2
 301 1395 l 2
 307 1420 311 1421 338 1421 c 2
 903 1411 l 2
 1046 1411 1225 1415 1280 1419 c 0
 1294 1421 1309 1421 1317 1421 c 0
 1331 1421 1339 1417 1339 1407 c 0
 1339 1403 1339 1403 1333 1380 c 2
 1270 1145 l 2
 1262 1104 1262 1104 1239 1104 c 2
 1206 1104 l 2
 1183 1104 1180 1106 1180 1122 c 2
 1180 1126 l 2
 1182 1151 1182 1176 1182 1190 c 0
 1182 1303 1143 1331 987 1331 c 2
 850 1331 l 2
 756 1331 741 1317 702 1176 c 2
 594 803 l 1
1006 1569 m 2
 805 1688 l 2
 690 1756 633 1810 633 1851 c 0
 633 1898 674 1931 731 1931 c 0
 784 1931 826 1908 881 1847 c 2
 1071 1636 l 2
 1087 1618 1087 1618 1087 1610 c 0
 1087 1608 1085 1601 1081 1597 c 2
 1057 1563 l 2
 1051 1557 1046 1552 1040 1552 c 0
 1034 1552 1035 1553 1006 1569 c 2
EndSplineSet
EndChar

StartChar: Ecircumflex
Encoding: 137 202 160
Width: 1284
Flags: HMW
HStem: 0 80<511 777> 709 94<594 756 756 776 569 756> 1337 84
VStem: 1180 90<1122 1145 1126 1145>
LayerCount: 2
Fore
SplineSet
594 803 m 1
 756 803 l 2
 891 803 949 832 1006 934 c 0
 1014 946 1020 950 1036 950 c 2
 1071 950 l 2
 1089 950 1096 946 1096 936 c 0
 1096 930 1093 925 1085 905 c 0
 1054 821 1001 647 981 559 c 0
 975 532 971 528 938 528 c 2
 903 528 l 2
 883 528 877 533 877 543 c 0
 877 549 877 549 887 584 c 0
 897 615 903 639 903 655 c 0
 903 698 878 709 776 709 c 2
 569 709 l 1
 453 287 l 2
 422 166 422 165 422 147 c 0
 422 90 466 80 702 80 c 0
 852 80 914 88 975 119 c 0
 1034 148 1081 193 1116 252 c 0
 1155 318 1157 322 1167 322 c 0
 1171 322 1172 321 1184 315 c 2
 1217 299 l 2
 1233 291 1237 287 1237 279 c 0
 1237 273 1237 273 1227 250 c 2
 1155 86 l 2
 1147 68 1138 48 1130 25 c 0
 1118 -4 1114 -10 1096 -10 c 0
 1090 -10 1069 -10 1053 -8 c 0
 1014 -6 606 0 526 0 c 0
 495 0 452 0 393 -2 c 2
 256 -2 l 1
 74 -6 l 2
 43 -8 12 -10 2 -10 c 0
 -12 -10 -16 -6 -16 6 c 2
 -16 16 l 1
 -12 41 l 2
 -10 57 -10 59 -4 63 c 0
 -2 65 2 68 6 68 c 2
 37 72 l 2
 131 84 154 112 203 270 c 2
 444 1139 l 2
 464 1213 471 1239 471 1264 c 0
 471 1313 438 1333 346 1337 c 0
 299 1341 295 1344 295 1356 c 0
 295 1362 295 1366 297 1372 c 2
 301 1395 l 2
 307 1420 311 1421 338 1421 c 2
 903 1411 l 2
 1046 1411 1225 1415 1280 1419 c 0
 1294 1421 1309 1421 1317 1421 c 0
 1331 1421 1339 1417 1339 1407 c 0
 1339 1403 1339 1403 1333 1380 c 2
 1270 1145 l 2
 1262 1104 1262 1104 1239 1104 c 2
 1206 1104 l 2
 1183 1104 1180 1106 1180 1122 c 2
 1180 1126 l 2
 1182 1151 1182 1176 1182 1190 c 0
 1182 1303 1143 1331 987 1331 c 2
 850 1331 l 2
 756 1331 741 1317 702 1176 c 2
 594 803 l 1
1192 1563 m 2
 1059 1669 l 2
 981 1732 975 1739 952 1790 c 1
 923 1753 913 1743 860 1702 c 2
 668 1559 l 2
 664 1555 657 1552 655 1552 c 0
 651 1552 647 1555 639 1565 c 2
 606 1597 l 2
 600 1603 596 1610 596 1614 c 0
 596 1620 596 1620 672 1694 c 0
 697 1723 721 1747 741 1772 c 2
 842 1892 l 2
 877 1937 918 1958 967 1958 c 0
 1022 1958 1057 1935 1094 1878 c 2
 1180 1745 l 2
 1200 1710 1223 1681 1270 1626 c 0
 1276 1620 1278 1616 1278 1612 c 0
 1278 1610 1276 1605 1268 1595 c 2
 1235 1556 l 2
 1231 1552 1225 1548 1221 1548 c 0
 1215 1548 1208 1551 1192 1563 c 2
EndSplineSet
EndChar

StartChar: Idieresis
Encoding: 142 207 161
Width: 792
Flags: HMW
HStem: -10 74 1339 82 1552 270<450 511 841 904>
VStem: 365 231<1652 1726> 756 233<1652 1726>
LayerCount: 2
Fore
SplineSet
219 270 m 2
 469 1141 l 2
 487 1204 496 1241 496 1264 c 0
 496 1315 463 1333 373 1339 c 0
 326 1341 322 1344 322 1356 c 0
 322 1360 322 1366 324 1372 c 2
 328 1393 l 2
 334 1420 338 1421 365 1421 c 0
 381 1421 385 1421 481 1415 c 0
 544 1413 608 1411 674 1411 c 0
 760 1411 786 1411 907 1419 c 0
 921 1421 938 1421 946 1421 c 0
 960 1421 965 1417 965 1405 c 2
 965 1395 l 1
 961 1370 l 2
 959 1354 958 1352 952 1348 c 0
 948 1344 944 1343 901 1341 c 0
 792 1331 772 1307 723 1141 c 2
 473 270 l 2
 455 207 446 170 446 145 c 0
 446 96 481 76 569 72 c 0
 616 70 621 67 621 55 c 2
 618 39 l 1
 614 18 l 2
 608 -7 605 -10 580 -10 c 0
 562 -10 557 -10 461 -4 c 0
 398 -2 333 0 270 0 c 0
 190 0 129 -2 35 -8 c 0
 21 -10 6 -10 0 -10 c 0
 -14 -10 -18 -6 -18 6 c 2
 -18 16 l 1
 -14 41 l 2
 -12 57 -10 59 -6 63 c 0
 0 67 0 68 45 70 c 0
 149 80 172 106 219 270 c 2
483 1823 m 0
 549 1823 596 1768 596 1692 c 0
 596 1612 545 1552 477 1552 c 0
 411 1552 365 1610 365 1688 c 0
 365 1766 415 1823 483 1823 c 0
874 1823 m 0
 942 1823 989 1768 989 1692 c 0
 989 1612 938 1552 870 1552 c 0
 802 1552 756 1608 756 1688 c 0
 756 1766 806 1823 874 1823 c 0
EndSplineSet
EndChar

StartChar: Iacute
Encoding: 140 205 162
Width: 792
Flags: HMW
HStem: -10 74 1339 82
LayerCount: 2
Fore
SplineSet
217 270 m 2
 467 1141 l 2
 485 1204 494 1241 494 1264 c 0
 494 1315 461 1333 371 1339 c 0
 324 1341 319 1344 319 1356 c 0
 319 1360 320 1366 322 1372 c 2
 326 1393 l 2
 332 1420 335 1421 362 1421 c 0
 378 1421 383 1421 479 1415 c 0
 542 1413 606 1411 672 1411 c 0
 758 1411 784 1411 905 1419 c 0
 919 1421 936 1421 944 1421 c 0
 958 1421 963 1417 963 1405 c 2
 963 1395 l 1
 958 1370 l 2
 956 1354 956 1352 950 1348 c 0
 946 1344 942 1343 899 1341 c 0
 790 1331 770 1307 721 1141 c 2
 471 270 l 2
 453 207 444 170 444 145 c 0
 444 96 479 76 567 72 c 0
 614 70 618 67 618 55 c 2
 616 39 l 1
 612 18 l 2
 606 -7 603 -10 578 -10 c 0
 560 -10 555 -10 459 -4 c 0
 396 -2 331 0 268 0 c 0
 188 0 127 -2 33 -8 c 0
 19 -10 4 -10 -2 -10 c 0
 -16 -10 -20 -6 -20 6 c 2
 -20 16 l 1
 -16 41 l 2
 -14 57 -12 59 -8 63 c 0
 -2 67 -2 68 43 70 c 0
 147 80 170 106 217 270 c 2
528 1636 m 2
 719 1847 l 2
 774 1908 815 1931 868 1931 c 0
 925 1931 967 1898 967 1851 c 0
 967 1810 910 1756 797 1688 c 2
 596 1569 l 2
 567 1553 567 1552 559 1552 c 0
 555 1552 549 1557 543 1563 c 2
 518 1597 l 2
 514 1603 512 1608 512 1610 c 0
 512 1618 512 1618 528 1636 c 2
EndSplineSet
EndChar

StartChar: Igrave
Encoding: 139 204 163
Width: 792
Flags: HMW
HStem: -10 74 1339 82
LayerCount: 2
Fore
SplineSet
219 270 m 2
 469 1141 l 2
 487 1204 496 1241 496 1264 c 0
 496 1315 463 1333 373 1339 c 0
 326 1341 322 1344 322 1356 c 0
 322 1360 322 1366 324 1372 c 2
 328 1393 l 2
 334 1420 338 1421 365 1421 c 0
 381 1421 385 1421 481 1415 c 0
 544 1413 608 1411 674 1411 c 0
 760 1411 786 1411 907 1419 c 0
 921 1421 938 1421 946 1421 c 0
 960 1421 965 1417 965 1405 c 2
 965 1395 l 1
 961 1370 l 2
 959 1354 958 1352 952 1348 c 0
 948 1344 944 1343 901 1341 c 0
 792 1331 772 1307 723 1141 c 2
 473 270 l 2
 455 207 446 170 446 145 c 0
 446 96 481 76 569 72 c 0
 616 70 621 67 621 55 c 2
 618 39 l 1
 614 18 l 2
 608 -7 605 -10 580 -10 c 0
 562 -10 557 -10 461 -4 c 0
 398 -2 333 0 270 0 c 0
 190 0 129 -2 35 -8 c 0
 21 -10 6 -10 0 -10 c 0
 -14 -10 -18 -6 -18 6 c 2
 -18 16 l 1
 -14 41 l 2
 -12 57 -10 59 -6 63 c 0
 0 67 0 68 45 70 c 0
 149 80 172 106 219 270 c 2
760 1569 m 2
 559 1688 l 2
 446 1756 389 1810 389 1851 c 0
 389 1898 430 1931 487 1931 c 0
 540 1931 580 1908 635 1847 c 2
 825 1636 l 2
 837 1622 842 1616 842 1610 c 0
 842 1606 840 1601 838 1597 c 2
 811 1563 l 2
 807 1557 801 1552 795 1552 c 0
 789 1552 789 1553 760 1569 c 2
EndSplineSet
EndChar

StartChar: Icircumflex
Encoding: 141 206 164
Width: 792
Flags: HMW
HStem: -10 74 1339 82
LayerCount: 2
Fore
SplineSet
217 270 m 2
 467 1141 l 2
 485 1204 494 1241 494 1264 c 0
 494 1315 461 1333 371 1339 c 0
 324 1341 319 1344 319 1356 c 0
 319 1360 320 1366 322 1372 c 2
 326 1393 l 2
 332 1420 335 1421 362 1421 c 0
 378 1421 383 1421 479 1415 c 0
 542 1413 606 1411 672 1411 c 0
 758 1411 784 1411 905 1419 c 0
 919 1421 936 1421 944 1421 c 0
 958 1421 963 1417 963 1405 c 2
 963 1395 l 1
 958 1370 l 2
 956 1354 956 1352 950 1348 c 0
 946 1344 942 1343 899 1341 c 0
 790 1331 770 1307 721 1141 c 2
 471 270 l 2
 453 207 444 170 444 145 c 0
 444 96 479 76 567 72 c 0
 614 70 618 67 618 55 c 2
 616 39 l 1
 612 18 l 2
 606 -7 603 -10 578 -10 c 0
 560 -10 555 -10 459 -4 c 0
 396 -2 331 0 268 0 c 0
 188 0 127 -2 33 -8 c 0
 19 -10 4 -10 -2 -10 c 0
 -16 -10 -20 -6 -20 6 c 2
 -20 16 l 1
 -16 41 l 2
 -14 57 -12 59 -8 63 c 0
 -2 67 -2 68 43 70 c 0
 147 80 170 106 217 270 c 2
946 1563 m 2
 811 1669 l 2
 733 1732 727 1739 707 1790 c 1
 678 1753 667 1745 612 1702 c 2
 420 1559 l 2
 416 1555 410 1552 408 1552 c 0
 406 1552 399 1557 391 1565 c 2
 358 1597 l 2
 352 1605 348 1612 348 1614 c 0
 348 1620 348 1620 424 1694 c 0
 451 1723 476 1747 494 1772 c 2
 594 1892 l 2
 629 1937 670 1958 719 1958 c 0
 776 1958 811 1935 846 1878 c 2
 932 1745 l 1
 977 1681 l 1
 1022 1626 l 2
 1028 1620 1030 1616 1030 1612 c 0
 1030 1610 1028 1607 1020 1595 c 2
 987 1556 l 2
 983 1552 977 1548 973 1548 c 0
 967 1548 960 1551 946 1563 c 2
EndSplineSet
EndChar

StartChar: Ntilde
Encoding: 144 209 165
Width: 1624
Flags: HW
HStem: -10 80<1 20> 1341 80<264 266 1376 1378> 1552 168<1210 1295> 1718 168<1004 1013>
LayerCount: 2
Fore
SplineSet
772 1571 m 2xd0
 748 1593 l 2
 744 1597 739 1602 739 1606 c 0
 739 1614 764 1655 793 1696 c 0
 881 1819 968 1886 1038 1886 c 0xd0
 1067 1886 1097 1872 1130 1843 c 0
 1138 1837 1138 1837 1208 1759 c 0
 1231 1734 1256 1720 1276 1720 c 0
 1315 1720 1343 1741 1419 1827 c 0
 1450 1862 1462 1872 1470 1872 c 0
 1474 1872 1479 1870 1483 1868 c 2
 1497 1855 l 2
 1515 1843 1518 1841 1518 1835 c 0
 1518 1819 1466 1737 1427 1686 c 0
 1357 1602 1286 1552 1229 1552 c 0xe0
 1192 1552 1165 1570 1102 1640 c 0
 1039 1708 1026 1718 999 1718 c 0
 954 1718 891 1678 840 1610 c 0
 803 1565 801 1563 791 1563 c 0
 785 1563 782 1565 772 1571 c 2xd0
1167 -10 m 1
 561 1087 l 1
 358 389 l 2
 331 295 309 186 309 145 c 0
 309 88 338 74 442 70 c 0
 481 68 487 67 487 57 c 0
 487 53 485 41 483 37 c 2
 477 14 l 2
 471 -9 469 -10 451 -10 c 0
 437 -10 437 -10 240 0 c 1
 143 -4 l 2
 106 -8 33 -10 8 -10 c 0
 -6 -10 -10 -8 -10 4 c 0
 -10 10 -10 14 -8 18 c 2
 -2 45 l 2
 0 61 2 64 10 68 c 2
 20 70 l 1
 70 72 l 2
 142 82 160 107 201 252 c 2
 496 1229 l 1
 441 1313 387 1339 266 1341 c 0
 248 1341 240 1346 240 1356 c 0
 240 1360 240 1360 242 1374 c 2
 246 1393 l 2
 250 1418 254 1421 274 1421 c 0
 292 1421 329 1419 362 1417 c 0
 405 1413 434 1411 457 1411 c 0
 471 1411 528 1413 606 1419 c 2
 670 1421 l 1
 1260 328 l 1
 1466 1059 l 2
 1491 1143 1509 1235 1509 1268 c 0
 1509 1319 1473 1343 1397 1341 c 0
 1356 1341 1348 1344 1348 1360 c 2
 1350 1378 l 1
 1354 1395 l 2
 1358 1415 1362 1421 1378 1421 c 2
 1438 1419 l 2
 1491 1415 1570 1411 1595 1411 c 0
 1615 1411 1714 1415 1749 1419 c 2
 1798 1421 l 2
 1816 1421 1821 1415 1821 1397 c 2
 1819 1370 l 2
 1819 1350 1814 1345 1800 1343 c 0
 1679 1331 1646 1296 1599 1122 c 2
 1327 190 l 1
 1419 12 l 2
 1423 6 1423 6 1423 4 c 0
 1423 -4 1413 -10 1399 -10 c 2
 1167 -10 l 1
EndSplineSet
EndChar

StartChar: Odieresis
Encoding: 149 214 166
Width: 1699
Flags: HW
HStem: -41 90<684 880 684 1057> 1366 90<934 1129> 1552 270<902 964 1293 1357>
VStem: 154 268<419 693 408 862> 817 231<1652 1726> 1208 233<1652 1726> 1397 268<745 998 554 1024>
LayerCount: 2
Fore
SplineSet
1008 1456 m 0xfa
 1407 1456 1665 1198 1665 799 c 0
 1665 310 1307 -41 807 -41 c 0
 399 -41 154 211 154 627 c 0
 154 1098 525 1456 1008 1456 c 0xfa
1004 1366 m 0
 865 1366 745 1311 649 1202 c 0
 508 1046 422 809 422 578 c 0
 422 238 559 49 809 49 c 0
 950 49 1084 112 1178 225 c 0
 1315 389 1397 626 1397 864 c 0
 1397 1183 1256 1366 1004 1366 c 0
936 1823 m 0
 1002 1823 1049 1768 1049 1692 c 0
 1049 1612 998 1552 930 1552 c 0
 864 1552 817 1610 817 1688 c 0
 817 1766 868 1823 936 1823 c 0
1327 1823 m 0
 1395 1823 1442 1768 1442 1692 c 0
 1442 1612 1391 1552 1323 1552 c 0
 1255 1552 1208 1610 1208 1688 c 0xfc
 1208 1766 1259 1823 1327 1823 c 0
EndSplineSet
EndChar

StartChar: Oacute
Encoding: 146 211 167
Width: 1699
Flags: HMW
HStem: -41 90<684 880 684 1057> 1366 90<934 1129>
VStem: 154 268<419 693 408 862> 1397 268<745 998 554 1024>
LayerCount: 2
Fore
SplineSet
1008 1456 m 0
 1407 1456 1665 1198 1665 799 c 0
 1665 310 1307 -41 807 -41 c 0
 399 -41 154 211 154 627 c 0
 154 1098 525 1456 1008 1456 c 0
1004 1366 m 0
 865 1366 745 1311 649 1202 c 0
 508 1046 422 809 422 578 c 0
 422 238 559 49 809 49 c 0
 950 49 1084 112 1178 225 c 0
 1315 389 1397 626 1397 864 c 0
 1397 1183 1256 1366 1004 1366 c 0
985 1636 m 2
 1176 1847 l 2
 1229 1908 1270 1931 1323 1931 c 0
 1380 1931 1421 1898 1421 1851 c 0
 1421 1810 1364 1756 1251 1688 c 2
 1051 1569 l 2
 1022 1553 1022 1552 1014 1552 c 0
 1010 1552 1003 1557 999 1563 c 2
 973 1597 l 2
 971 1601 969 1606 969 1610 c 0
 969 1618 973 1622 985 1636 c 2
EndSplineSet
EndChar

StartChar: Ograve
Encoding: 145 210 168
Width: 1699
Flags: HMW
HStem: -41 90<684 880 684 1057> 1366 90<934 1129>
VStem: 154 268<419 693 408 862> 1397 268<745 998 554 1024>
LayerCount: 2
Fore
SplineSet
1008 1456 m 0
 1407 1456 1665 1198 1665 799 c 0
 1665 310 1307 -41 807 -41 c 0
 399 -41 154 211 154 627 c 0
 154 1098 525 1456 1008 1456 c 0
1004 1366 m 0
 865 1366 745 1311 649 1202 c 0
 508 1046 422 809 422 578 c 0
 422 238 559 49 809 49 c 0
 950 49 1084 112 1178 225 c 0
 1315 389 1397 626 1397 864 c 0
 1397 1183 1256 1366 1004 1366 c 0
1212 1569 m 2
 1012 1688 l 2
 899 1756 842 1810 842 1851 c 0
 842 1898 881 1931 940 1931 c 0
 993 1931 1034 1908 1087 1847 c 2
 1278 1636 l 2
 1290 1622 1294 1616 1294 1610 c 0
 1294 1608 1292 1601 1290 1597 c 2
 1264 1563 l 2
 1260 1557 1253 1552 1247 1552 c 0
 1241 1552 1241 1553 1212 1569 c 2
EndSplineSet
EndChar

StartChar: Ocircumflex
Encoding: 147 212 169
Width: 1699
Flags: HMW
HStem: -41 90<684 880 684 1057> 1366 90<934 1129>
VStem: 154 268<419 693 408 862> 1397 268<745 998 554 1024>
LayerCount: 2
Fore
SplineSet
1008 1456 m 0
 1407 1456 1665 1198 1665 799 c 0
 1665 310 1307 -41 807 -41 c 0
 399 -41 154 211 154 627 c 0
 154 1098 525 1456 1008 1456 c 0
1004 1366 m 0
 865 1366 745 1311 649 1202 c 0
 508 1046 422 809 422 578 c 0
 422 238 559 49 809 49 c 0
 950 49 1084 112 1178 225 c 0
 1315 389 1397 626 1397 864 c 0
 1397 1183 1256 1366 1004 1366 c 0
1401 1563 m 2
 1266 1669 l 2
 1188 1732 1181 1739 1161 1790 c 1
 1132 1753 1122 1743 1067 1702 c 2
 874 1559 l 2
 870 1555 866 1552 862 1552 c 0
 860 1552 854 1557 846 1565 c 2
 815 1597 l 2
 807 1605 803 1612 803 1614 c 0
 803 1620 803 1620 879 1694 c 0
 906 1723 928 1747 948 1772 c 2
 1049 1892 l 2
 1084 1937 1125 1958 1174 1958 c 0
 1231 1958 1265 1935 1300 1878 c 2
 1386 1745 l 2
 1415 1702 1416 1700 1477 1626 c 0
 1483 1620 1485 1616 1485 1612 c 0
 1485 1610 1483 1605 1475 1595 c 2
 1442 1556 l 2
 1438 1552 1431 1548 1427 1548 c 0
 1421 1548 1415 1551 1401 1563 c 2
EndSplineSet
EndChar

StartChar: Otilde
Encoding: 148 213 170
Width: 1699
Flags: HW
HStem: -41 90<684 880 684 1057> 1366 90<934 1129> 1552 168<1249 1335> 1718 168<1042 1052>
VStem: 154 268<419 693 408 862> 1397 268<745 998 554 1024>
LayerCount: 2
Fore
SplineSet
1008 1456 m 0xcc
 1407 1456 1665 1198 1665 799 c 0
 1665 310 1307 -41 807 -41 c 0
 399 -41 154 211 154 627 c 0
 154 1098 525 1456 1008 1456 c 0xcc
1004 1366 m 0
 865 1366 745 1311 649 1202 c 0
 508 1046 422 809 422 578 c 0
 422 238 559 49 809 49 c 0
 950 49 1084 112 1178 225 c 0
 1315 389 1397 626 1397 864 c 0
 1397 1183 1256 1366 1004 1366 c 0
811 1571 m 2
 786 1593 l 2
 782 1597 778 1602 778 1606 c 0
 778 1614 802 1655 831 1696 c 0
 919 1817 1007 1886 1077 1886 c 0xdc
 1106 1886 1136 1872 1169 1843 c 0
 1177 1837 1177 1837 1247 1759 c 0
 1270 1734 1295 1720 1315 1720 c 0
 1356 1720 1380 1739 1458 1827 c 0
 1491 1862 1501 1872 1509 1872 c 0
 1513 1872 1518 1870 1522 1868 c 2
 1538 1855 l 2
 1554 1843 1556 1841 1556 1835 c 0
 1556 1819 1505 1735 1466 1686 c 0
 1398 1602 1325 1552 1268 1552 c 0xec
 1231 1552 1204 1570 1141 1640 c 0
 1080 1708 1065 1718 1038 1718 c 0xdc
 993 1718 928 1676 879 1610 c 0
 842 1565 839 1563 829 1563 c 0
 823 1563 821 1563 811 1571 c 2
EndSplineSet
EndChar

StartChar: Scaron
Encoding: 264 352 171
Width: 1019
Flags: HW
HStem: -41 90<394 498 357 590> 1366 90<660 790>
VStem: 43 147<69 240> 117 86 266 223<1079 1090> 682 236<232 331> 920 88 936 143<1184 1335>
LayerCount: 2
Fore
SplineSet
981 1085 m 2xce
 942 1096 l 2
 926 1102 920 1106 920 1114 c 2xce
 922 1126 l 2
 932 1153 936 1174 936 1194 c 0
 936 1294 850 1366 729 1366 c 0
 590 1366 489 1270 489 1135 c 0
 489 1024 533 947 680 795 c 0
 864 602 918 504 918 350 c 0
 918 114 732 -41 449 -41 c 0
 340 -41 190 -10 88 33 c 0
 55 47 43 60 43 78 c 0xed
 43 88 45 92 55 121 c 0
 59 137 64 152 68 164 c 2
 98 258 l 2
 102 274 113 318 117 338 c 0
 119 348 123 352 131 352 c 0
 135 352 135 352 147 350 c 2
 180 346 l 2
 200 342 205 340 205 332 c 2
 203 313 l 2xdc
 195 278 190 249 190 229 c 0
 190 127 291 49 424 49 c 0
 571 49 682 147 682 274 c 0
 682 387 635 467 465 649 c 0
 313 809 266 899 266 1034 c 0
 266 1145 311 1251 391 1331 c 0
 477 1415 588 1456 733 1456 c 0
 852 1456 967 1423 1047 1364 c 0
 1070 1350 1079 1339 1079 1331 c 0xed
 1079 1325 1075 1313 1065 1288 c 0
 1034 1206 1014 1137 1008 1094 c 0
 1006 1084 1003 1081 997 1081 c 0
 995 1081 991 1081 981 1085 c 2xce
625 1901 m 2
 758 1798 l 2
 836 1737 841 1730 864 1679 c 1
 893 1716 901 1724 958 1767 c 2
 1149 1907 l 2
 1155 1911 1159 1913 1161 1913 c 0
 1165 1913 1170 1909 1178 1901 c 2
 1210 1868 l 2
 1216 1860 1221 1853 1221 1849 c 0
 1221 1845 1221 1846 1145 1774 c 0
 1127 1758 1112 1740 1098 1722 c 0
 1084 1706 1089 1714 1075 1696 c 2
 973 1571 l 2
 940 1530 903 1511 856 1511 c 0
 795 1511 762 1532 723 1591 c 2
 639 1722 l 2
 625 1745 612 1757 555 1831 c 0
 543 1847 541 1849 541 1853 c 0
 541 1855 545 1864 549 1870 c 2
 582 1909 l 2
 588 1915 592 1917 596 1917 c 0
 602 1917 607 1915 625 1901 c 2
EndSplineSet
EndChar

StartChar: Udieresis
Encoding: 155 220 172
Width: 1662
Flags: HMW
HStem: -43 102<720 892> 1339 82<1374 1388> 1552 270<882 945 1273 1336>
VStem: 233 252<253 369> 797 233<1652 1726> 1188 233<1652 1726>
LayerCount: 2
Fore
SplineSet
680 1139 m 2
 545 672 l 2
 504 527 485 426 485 340 c 0
 485 166 614 59 825 59 c 0
 1106 59 1250 205 1350 592 c 2
 1458 1012 l 2
 1507 1231 1507 1231 1507 1266 c 0
 1507 1313 1467 1339 1393 1339 c 0
 1350 1339 1346 1342 1346 1350 c 0
 1346 1354 1348 1360 1350 1368 c 2
 1358 1399 l 2
 1362 1417 1366 1421 1382 1421 c 0
 1392 1421 1423 1419 1452 1417 c 0
 1503 1415 1579 1411 1599 1411 c 2
 1753 1417 l 2
 1780 1419 1800 1421 1812 1421 c 0
 1824 1421 1833 1415 1833 1405 c 0
 1833 1403 1833 1394 1831 1386 c 2
 1829 1376 l 2
 1823 1345 1818 1341 1798 1339 c 0
 1694 1339 1655 1298 1616 1151 c 2
 1456 553 l 2
 1393 315 1325 178 1229 92 c 0
 1133 2 987 -43 797 -43 c 0
 451 -43 233 101 233 332 c 0
 233 406 264 547 338 807 c 2
 434 1139 l 2
 457 1217 461 1237 461 1264 c 0
 461 1313 430 1335 348 1339 c 0
 303 1341 299 1342 299 1354 c 0
 299 1358 301 1362 305 1374 c 2
 315 1395 l 2
 325 1418 330 1421 348 1421 c 0
 360 1421 375 1421 391 1419 c 0
 454 1415 592 1411 645 1411 c 0
 706 1411 725 1411 860 1419 c 0
 878 1421 899 1421 915 1421 c 0
 927 1421 934 1417 934 1411 c 0
 934 1409 932 1403 930 1395 c 2
 924 1370 l 2
 920 1358 915 1350 911 1348 c 0
 907 1344 897 1341 860 1341 c 0
 751 1333 727 1307 680 1139 c 2
915 1823 m 0
 983 1823 1030 1768 1030 1692 c 0
 1030 1612 979 1552 911 1552 c 0
 843 1552 797 1610 797 1688 c 0
 797 1766 847 1823 915 1823 c 0
1307 1823 m 0
 1375 1823 1421 1768 1421 1692 c 0
 1421 1612 1371 1552 1303 1552 c 0
 1235 1552 1188 1608 1188 1688 c 0
 1188 1766 1239 1823 1307 1823 c 0
EndSplineSet
EndChar

StartChar: Uacute
Encoding: 153 218 173
Width: 1662
Flags: HMW
HStem: -43 102<720 892> 1339 82<1374 1388>
VStem: 233 252<253 369>
LayerCount: 2
Fore
SplineSet
680 1139 m 2
 545 672 l 2
 504 527 485 426 485 340 c 0
 485 166 614 59 825 59 c 0
 1106 59 1250 205 1350 592 c 2
 1458 1012 l 2
 1507 1231 1507 1231 1507 1266 c 0
 1507 1313 1467 1339 1393 1339 c 0
 1350 1339 1346 1342 1346 1350 c 0
 1346 1354 1348 1360 1350 1368 c 2
 1358 1399 l 2
 1362 1417 1366 1421 1382 1421 c 0
 1392 1421 1423 1419 1452 1417 c 0
 1503 1415 1579 1411 1599 1411 c 2
 1753 1417 l 2
 1780 1419 1800 1421 1812 1421 c 0
 1824 1421 1833 1415 1833 1405 c 0
 1833 1403 1833 1394 1831 1386 c 2
 1829 1376 l 2
 1823 1345 1818 1341 1798 1339 c 0
 1694 1339 1655 1298 1616 1151 c 2
 1456 553 l 2
 1393 315 1325 178 1229 92 c 0
 1133 2 987 -43 797 -43 c 0
 451 -43 233 101 233 332 c 0
 233 406 264 547 338 807 c 2
 434 1139 l 2
 457 1217 461 1237 461 1264 c 0
 461 1313 430 1335 348 1339 c 0
 303 1341 299 1342 299 1354 c 0
 299 1358 301 1362 305 1374 c 2
 315 1395 l 2
 325 1418 330 1421 348 1421 c 0
 360 1421 375 1421 391 1419 c 0
 454 1415 592 1411 645 1411 c 0
 706 1411 725 1411 860 1419 c 0
 878 1421 899 1421 915 1421 c 0
 927 1421 934 1417 934 1411 c 0
 934 1409 932 1403 930 1395 c 2
 924 1370 l 2
 920 1358 915 1350 911 1348 c 0
 907 1344 897 1341 860 1341 c 0
 751 1333 727 1307 680 1139 c 2
965 1636 m 2
 1155 1847 l 2
 1208 1908 1250 1931 1303 1931 c 0
 1362 1931 1401 1898 1401 1851 c 0
 1401 1810 1344 1756 1231 1688 c 2
 1030 1569 l 2
 1001 1553 1001 1552 995 1552 c 0
 989 1552 983 1557 979 1563 c 2
 952 1597 l 2
 950 1601 948 1606 948 1612 c 0
 948 1618 951 1620 965 1636 c 2
EndSplineSet
EndChar

StartChar: Ugrave
Encoding: 152 217 174
Width: 1662
Flags: HMW
HStem: -43 102<720 892> 1339 82<1374 1388>
VStem: 233 252<253 369>
LayerCount: 2
Fore
SplineSet
680 1139 m 2
 545 672 l 2
 504 527 485 426 485 340 c 0
 485 166 614 59 825 59 c 0
 1106 59 1250 205 1350 592 c 2
 1458 1012 l 2
 1507 1231 1507 1231 1507 1266 c 0
 1507 1313 1467 1339 1393 1339 c 0
 1350 1339 1346 1342 1346 1350 c 0
 1346 1354 1348 1360 1350 1368 c 2
 1358 1399 l 2
 1362 1417 1366 1421 1382 1421 c 0
 1392 1421 1423 1419 1452 1417 c 0
 1503 1415 1579 1411 1599 1411 c 2
 1753 1417 l 2
 1780 1419 1800 1421 1812 1421 c 0
 1824 1421 1833 1415 1833 1405 c 0
 1833 1403 1833 1394 1831 1386 c 2
 1829 1376 l 2
 1823 1345 1818 1341 1798 1339 c 0
 1694 1339 1655 1298 1616 1151 c 2
 1456 553 l 2
 1393 315 1325 178 1229 92 c 0
 1133 2 987 -43 797 -43 c 0
 451 -43 233 101 233 332 c 0
 233 406 264 547 338 807 c 2
 434 1139 l 2
 457 1217 461 1237 461 1264 c 0
 461 1313 430 1335 348 1339 c 0
 303 1341 299 1342 299 1354 c 0
 299 1358 301 1362 305 1374 c 2
 315 1395 l 2
 325 1418 330 1421 348 1421 c 0
 360 1421 375 1421 391 1419 c 0
 454 1415 592 1411 645 1411 c 0
 706 1411 725 1411 860 1419 c 0
 878 1421 899 1421 915 1421 c 0
 927 1421 934 1417 934 1411 c 0
 934 1409 932 1403 930 1395 c 2
 924 1370 l 2
 920 1358 915 1350 911 1348 c 0
 907 1344 897 1341 860 1341 c 0
 751 1333 727 1307 680 1139 c 2
1192 1569 m 2
 991 1688 l 2
 878 1756 821 1810 821 1851 c 0
 821 1898 863 1931 920 1931 c 0
 973 1931 1014 1908 1069 1847 c 2
 1260 1636 l 2
 1276 1618 1276 1616 1276 1612 c 0
 1276 1608 1274 1603 1270 1597 c 2
 1243 1563 l 2
 1239 1557 1233 1552 1229 1552 c 0
 1223 1552 1221 1553 1192 1569 c 2
EndSplineSet
EndChar

StartChar: Ucircumflex
Encoding: 154 219 175
Width: 1662
Flags: HMW
HStem: -43 102<720 892> 1339 82<1374 1388>
VStem: 233 252<253 369>
LayerCount: 2
Fore
SplineSet
680 1139 m 2
 545 672 l 2
 504 527 485 426 485 340 c 0
 485 166 614 59 825 59 c 0
 1106 59 1250 205 1350 592 c 2
 1458 1012 l 2
 1507 1231 1507 1231 1507 1266 c 0
 1507 1313 1467 1339 1393 1339 c 0
 1350 1339 1346 1342 1346 1350 c 0
 1346 1354 1348 1360 1350 1368 c 2
 1358 1399 l 2
 1362 1417 1366 1421 1382 1421 c 0
 1392 1421 1423 1419 1452 1417 c 0
 1503 1415 1579 1411 1599 1411 c 2
 1753 1417 l 2
 1780 1419 1800 1421 1812 1421 c 0
 1824 1421 1833 1415 1833 1405 c 0
 1833 1403 1833 1394 1831 1386 c 2
 1829 1376 l 2
 1823 1345 1818 1341 1798 1339 c 0
 1694 1339 1655 1298 1616 1151 c 2
 1456 553 l 2
 1393 315 1325 178 1229 92 c 0
 1133 2 987 -43 797 -43 c 0
 451 -43 233 101 233 332 c 0
 233 406 264 547 338 807 c 2
 434 1139 l 2
 457 1217 461 1237 461 1264 c 0
 461 1313 430 1335 348 1339 c 0
 303 1341 299 1342 299 1354 c 0
 299 1358 301 1362 305 1374 c 2
 315 1395 l 2
 325 1418 330 1421 348 1421 c 0
 360 1421 375 1421 391 1419 c 0
 454 1415 592 1411 645 1411 c 0
 706 1411 725 1411 860 1419 c 0
 878 1421 899 1421 915 1421 c 0
 927 1421 934 1417 934 1411 c 0
 934 1409 932 1403 930 1395 c 2
 924 1370 l 2
 920 1358 915 1350 911 1348 c 0
 907 1344 897 1341 860 1341 c 0
 751 1333 727 1307 680 1139 c 2
1380 1563 m 2
 1245 1669 l 2
 1167 1732 1164 1739 1141 1790 c 1
 1112 1753 1102 1743 1047 1702 c 2
 856 1559 l 2
 850 1555 846 1552 844 1552 c 0
 840 1552 835 1555 827 1565 c 2
 795 1597 l 2
 789 1603 784 1610 784 1614 c 0
 784 1620 784 1620 860 1694 c 0
 878 1708 893 1725 907 1745 c 2
 930 1772 l 1
 1028 1892 l 2
 1065 1937 1106 1958 1155 1958 c 0
 1210 1958 1245 1935 1282 1878 c 2
 1366 1745 l 2
 1378 1725 1393 1701 1411 1681 c 2
 1456 1626 l 2
 1462 1620 1464 1616 1464 1612 c 0
 1464 1610 1460 1603 1454 1595 c 2
 1421 1556 l 2
 1417 1552 1413 1548 1407 1548 c 0
 1401 1548 1394 1553 1380 1563 c 2
EndSplineSet
EndChar

StartChar: Yacute
Encoding: 156 221 176
Width: 1511
Flags: HMW
HStem: -10 78<306 311 306 343> 1339 82
LayerCount: 2
Fore
SplineSet
864 760 m 1
 1221 1139 l 2
 1297 1219 1323 1257 1323 1290 c 0
 1323 1323 1289 1339 1221 1341 c 0
 1176 1343 1171 1346 1171 1360 c 0
 1171 1364 1172 1364 1176 1374 c 2
 1180 1401 l 2
 1182 1417 1186 1421 1202 1421 c 2
 1335 1417 l 2
 1384 1413 1421 1411 1425 1411 c 0
 1552 1419 1614 1421 1649 1421 c 0
 1661 1421 1665 1419 1665 1411 c 2
 1665 1411 1665 1409 1663 1391 c 2
 1659 1362 l 2
 1655 1346 1652 1341 1636 1339 c 0
 1546 1319 1487 1280 1399 1180 c 2
 915 659 l 1
 809 270 l 2
 786 194 782 172 782 147 c 0
 782 94 811 80 922 70 c 0
 936 70 942 63 942 55 c 0
 942 53 940 47 938 39 c 2
 934 18 l 2
 930 -7 923 -10 905 -10 c 0
 895 -10 884 -10 870 -8 c 0
 804 -4 661 0 612 0 c 0
 567 0 516 -2 461 -6 c 0
 383 -10 377 -10 309 -10 c 0
 295 -10 291 -6 291 6 c 2
 291 16 l 1
 295 41 l 2
 297 64 301 68 311 68 c 2
 350 70 l 1
 401 74 l 2
 512 80 530 100 573 270 c 2
 662 629 l 1
 446 1217 l 2
 413 1313 394 1333 324 1337 c 0
 265 1339 264 1340 264 1350 c 0
 264 1354 266 1360 268 1372 c 2
 274 1399 l 2
 280 1417 285 1421 305 1421 c 2
 485 1417 l 2
 542 1413 584 1411 592 1411 c 0
 602 1411 643 1413 698 1417 c 0
 741 1419 819 1423 844 1423 c 0
 858 1423 864 1419 864 1409 c 0
 864 1405 864 1399 862 1391 c 2
 856 1366 l 2
 850 1339 848 1339 793 1339 c 0
 730 1339 696 1319 696 1278 c 0
 696 1266 696 1266 729 1153 c 2
 864 760 l 1
889 1636 m 2
 1079 1847 l 2
 1134 1908 1176 1931 1229 1931 c 0
 1286 1931 1327 1898 1327 1851 c 0
 1327 1810 1272 1756 1155 1688 c 2
 954 1569 l 2
 925 1553 926 1552 920 1552 c 0
 914 1552 907 1557 903 1563 c 2
 879 1597 l 2
 875 1601 872 1608 872 1610 c 0
 872 1618 873 1618 889 1636 c 2
EndSplineSet
EndChar

StartChar: Zcaron
Encoding: 287 381 177
Width: 1359
Flags: HMW
HStem: 0 98 1333 92<504 1354 651 1059>
VStem: 242 82
LayerCount: 2
Fore
SplineSet
1059 1333 m 1
 573 1333 l 2
 434 1333 371 1297 324 1188 c 0
 318 1174 313 1169 301 1169 c 0
 297 1169 287 1172 283 1174 c 2
 258 1184 l 2
 246 1190 242 1194 242 1202 c 0
 242 1206 242 1209 246 1217 c 2
 352 1516 l 1
 418 1516 l 1
 492 1434 512 1425 651 1425 c 2
 1354 1425 l 2
 1377 1425 1382 1423 1382 1413 c 0
 1382 1407 1374 1392 1360 1372 c 2
 436 137 l 2
 418 117 418 117 418 111 c 0
 418 103 430 98 463 98 c 2
 815 100 l 2
 952 102 993 107 1024 121 c 0
 1044 133 1065 150 1081 168 c 0
 1099 193 1112 211 1122 229 c 2
 1159 289 l 2
 1177 318 1188 328 1196 328 c 2
 1210 326 l 1
 1235 315 l 2
 1249 311 1257 303 1257 293 c 0
 1257 289 1255 280 1251 270 c 0
 1220 194 1189 92 1171 18 c 0
 1167 -7 1161 -10 1145 -10 c 2
 1022 -8 l 2
 940 -4 677 0 616 0 c 2
 252 -6 l 2
 197 -8 152 -10 123 -10 c 0
 92 -10 78 0 78 18 c 0
 78 28 88 45 111 76 c 2
 1059 1333 l 1
795 1901 m 2
 930 1798 l 2
 1008 1737 1011 1730 1034 1679 c 1
 1063 1716 1073 1726 1128 1767 c 2
 1319 1907 l 2
 1325 1911 1329 1913 1331 1913 c 0
 1335 1913 1340 1909 1348 1901 c 2
 1380 1868 l 2
 1386 1860 1391 1853 1391 1851 c 0
 1391 1845 1391 1846 1315 1774 c 0
 1288 1751 1265 1725 1245 1696 c 2
 1143 1571 l 2
 1110 1530 1073 1511 1026 1511 c 0
 965 1511 932 1532 893 1591 c 2
 809 1722 l 2
 795 1742 784 1757 725 1831 c 0
 711 1847 711 1849 711 1853 c 0
 711 1855 715 1862 721 1870 c 2
 754 1909 l 2
 758 1915 762 1917 768 1917 c 0
 774 1917 777 1915 795 1901 c 2
EndSplineSet
EndChar

StartChar: Thorn
Encoding: 157 222 178
Width: 1284
Flags: HW
HStem: -12 78<23 57 598 617> 299 96<763 804 716 922> 1026 102<698 847> 1339 57 1370 41G<739 752 752 757>
VStem: 1010 250<672 825 626 853>
LayerCount: 2
Fore
SplineSet
766 1386 m 1xec
 698 1128 l 1
 880 1122 946 1114 1036 1081 c 0
 1171 1032 1260 902 1260 750 c 0
 1260 502 1051 299 793 299 c 0
 734 299 657 312 602 330 c 0
 592 334 588 336 588 346 c 2
 588 354 l 1
 598 387 l 2
 602 399 608 403 618 403 c 0
 622 403 635 401 666 399 c 0
 686 397 707 395 725 395 c 0
 883 395 1010 565 1010 778 c 0
 1010 928 917 1026 776 1026 c 0
 694 1026 660 995 635 905 c 2
 475 313 l 2
 442 166 442 165 442 145 c 0
 442 86 490 66 627 66 c 0
 645 66 653 59 651 49 c 2
 651 47 l 1
 641 10 l 2
 639 -6 629 -12 606 -12 c 0
 590 -12 502 -8 453 -6 c 0
 392 -2 345 0 322 0 c 0
 299 0 250 -2 184 -6 c 0
 133 -8 49 -12 31 -12 c 0
 15 -12 4 -8 4 2 c 2
 6 16 l 1
 16 47 l 2
 22 61 30 66 57 66 c 0
 174 72 188 97 260 367 c 2
 434 997 l 2
 465 1118 465 1118 477 1171 c 0
 489 1216 492 1226 492 1255 c 0
 492 1323 464 1341 362 1339 c 0
 321 1339 322 1340 322 1348 c 2
 322 1356 l 1
 328 1378 l 2
 332 1390 334 1395 340 1397 c 0xf4
 344 1399 352 1401 401 1401 c 2
 473 1403 l 1
 633 1409 l 1
 678 1409 l 1
 739 1411 l 1
 752 1411 l 2
 762 1411 768 1407 768 1401 c 2
 766 1386 l 1xec
EndSplineSet
EndChar

StartChar: Ydieresis
Encoding: 282 376 179
Width: 1511
Flags: HMW
HStem: -10 78<306 311 306 343> 1339 82 1552 270<806 869 1197 1261>
VStem: 721 233<1652 1726> 1112 233<1652 1726>
LayerCount: 2
Fore
SplineSet
864 760 m 1
 1221 1139 l 2
 1297 1219 1323 1257 1323 1290 c 0
 1323 1323 1289 1339 1221 1341 c 0
 1176 1343 1171 1346 1171 1360 c 0
 1171 1364 1172 1364 1176 1374 c 2
 1180 1401 l 2
 1182 1417 1186 1421 1202 1421 c 2
 1335 1417 l 2
 1384 1413 1421 1411 1425 1411 c 0
 1552 1419 1614 1421 1649 1421 c 0
 1661 1421 1665 1419 1665 1411 c 2
 1665 1411 1665 1409 1663 1391 c 2
 1659 1362 l 2
 1655 1346 1652 1341 1636 1339 c 0
 1546 1319 1487 1280 1399 1180 c 2
 915 659 l 1
 809 270 l 2
 786 194 782 172 782 147 c 0
 782 94 811 80 922 70 c 0
 936 70 942 63 942 55 c 0
 942 53 940 47 938 39 c 2
 934 18 l 2
 930 -7 923 -10 905 -10 c 0
 895 -10 884 -10 870 -8 c 0
 804 -4 661 0 612 0 c 0
 567 0 516 -2 461 -6 c 0
 383 -10 377 -10 309 -10 c 0
 295 -10 291 -6 291 6 c 2
 291 16 l 1
 295 41 l 2
 297 64 301 68 311 68 c 2
 350 70 l 1
 401 74 l 2
 512 80 530 100 573 270 c 2
 662 629 l 1
 446 1217 l 2
 413 1313 394 1333 324 1337 c 0
 265 1339 264 1340 264 1350 c 0
 264 1354 266 1360 268 1372 c 2
 274 1399 l 2
 280 1417 285 1421 305 1421 c 2
 485 1417 l 2
 542 1413 584 1411 592 1411 c 0
 602 1411 643 1413 698 1417 c 0
 741 1419 819 1423 844 1423 c 0
 858 1423 864 1419 864 1409 c 0
 864 1405 864 1399 862 1391 c 2
 856 1366 l 2
 850 1339 848 1339 793 1339 c 0
 730 1339 696 1319 696 1278 c 0
 696 1266 696 1266 729 1153 c 2
 864 760 l 1
840 1823 m 0
 908 1823 954 1768 954 1692 c 0
 954 1612 904 1552 836 1552 c 0
 768 1552 721 1610 721 1688 c 0
 721 1766 772 1823 840 1823 c 0
1231 1823 m 0
 1299 1823 1346 1768 1346 1692 c 0
 1346 1612 1295 1552 1227 1552 c 0
 1159 1552 1112 1610 1112 1688 c 0
 1112 1766 1163 1823 1231 1823 c 0
EndSplineSet
EndChar

StartChar: adieresis
Encoding: 163 228 180
Width: 1056
Flags: HW
HStem: -39 182<150 368> 743 131 1133 270<476 539 866 929>
VStem: 57 209<207 286> 389 233<1230 1305> 578 205<33 232> 780 231<1230 1305>
LayerCount: 2
Fore
SplineSet
965 299 m 1xf4
 1012 258 l 1xf2
 881 61 770 -39 682 -39 c 0
 621 -39 578 2 578 63 c 0
 578 118 577 119 651 340 c 0
 657 356 664 377 668 395 c 1
 584 274 561 241 510 178 c 0
 406 45 282 -39 190 -39 c 0
 108 -39 57 27 57 129 c 0
 57 442 467 874 764 874 c 0
 784 874 805 872 850 864 c 1
 911 950 918 954 969 954 c 0
 1016 954 1042 946 1042 934 c 0
 1042 930 1040 917 1036 911 c 2
 901 575 l 2
 821 374 782 256 782 209 c 0
 782 178 799 156 819 156 c 0
 848 156 869 174 965 299 c 1xf4
676 743 m 0
 604 747 496 677 406 573 c 0
 322 471 266 342 266 240 c 0
 266 174 289 143 334 143 c 0
 402 143 465 205 582 383 c 0
 678 524 750 657 750 690 c 0
 750 721 721 741 676 743 c 0
510 1403 m 0
 576 1403 623 1348 623 1270 c 0
 623 1190 574 1133 504 1133 c 0
 436 1133 389 1188 389 1266 c 0xf8
 389 1344 442 1403 510 1403 c 0
899 1403 m 0
 965 1403 1012 1348 1012 1270 c 0
 1012 1190 963 1133 895 1133 c 0
 827 1133 780 1188 780 1266 c 0xf2
 780 1344 833 1403 899 1403 c 0
EndSplineSet
Substitution2: "smcpLowercasetoSmallCapitalslookup subtable" adieresis.smcp
EndChar

StartChar: aacute
Encoding: 160 225 181
Width: 1056
Flags: HMW
HStem: -39 182<150 368> 743 131
VStem: 57 209<207 286> 578 205<33 232>
LayerCount: 2
Fore
SplineSet
965 299 m 1
 1012 258 l 1
 881 61 770 -39 682 -39 c 0
 621 -39 578 2 578 63 c 0
 578 118 577 119 651 340 c 0
 657 356 664 377 668 395 c 1
 584 274 561 241 510 178 c 0
 406 45 282 -39 190 -39 c 0
 108 -39 57 27 57 129 c 0
 57 442 467 874 764 874 c 0
 784 874 805 872 850 864 c 1
 911 950 918 954 969 954 c 0
 1016 954 1042 946 1042 934 c 0
 1042 930 1040 917 1036 911 c 2
 901 575 l 2
 821 374 782 256 782 209 c 0
 782 178 799 156 819 156 c 0
 848 156 869 174 965 299 c 1
676 743 m 0
 604 747 496 677 406 573 c 0
 322 471 266 342 266 240 c 0
 266 174 289 143 334 143 c 0
 402 143 465 205 582 383 c 0
 678 524 750 657 750 690 c 0
 750 721 721 741 676 743 c 0
623 1073 m 2
 596 1098 l 2
 592 1100 590 1104 590 1108 c 0
 590 1110 590 1112 610 1141 c 0
 700 1266 703 1269 793 1421 c 0
 840 1501 881 1530 942 1530 c 0
 997 1530 1040 1499 1040 1456 c 0
 1040 1419 1008 1374 938 1317 c 0
 832 1227 740 1145 672 1077 c 0
 660 1067 653 1063 645 1063 c 0
 639 1063 629 1067 623 1073 c 2
EndSplineSet
Substitution2: "smcpLowercasetoSmallCapitalslookup subtable" aacute.smcp
EndChar

StartChar: agrave
Encoding: 159 224 182
Width: 1056
Flags: HMW
HStem: -39 182<150 368> 743 131
VStem: 57 209<207 286> 578 205<33 232>
LayerCount: 2
Fore
SplineSet
965 299 m 1
 1012 258 l 1
 881 61 770 -39 682 -39 c 0
 621 -39 578 2 578 63 c 0
 578 118 577 119 651 340 c 0
 657 356 664 377 668 395 c 1
 584 274 561 241 510 178 c 0
 406 45 282 -39 190 -39 c 0
 108 -39 57 27 57 129 c 0
 57 442 467 874 764 874 c 0
 784 874 805 872 850 864 c 1
 911 950 918 954 969 954 c 0
 1016 954 1042 946 1042 934 c 0
 1042 930 1040 917 1036 911 c 2
 901 575 l 2
 821 374 782 256 782 209 c 0
 782 178 799 156 819 156 c 0
 848 156 869 174 965 299 c 1
676 743 m 0
 604 747 496 677 406 573 c 0
 322 471 266 342 266 240 c 0
 266 174 289 143 334 143 c 0
 402 143 465 205 582 383 c 0
 678 524 750 657 750 690 c 0
 750 721 721 741 676 743 c 0
797 1098 m 2
 770 1073 l 2
 764 1067 753 1063 745 1063 c 0
 739 1063 733 1067 721 1077 c 0
 658 1138 545 1241 455 1317 c 0
 383 1374 352 1419 352 1458 c 0
 352 1499 396 1530 451 1530 c 0
 512 1530 553 1501 600 1421 c 0
 629 1368 661 1315 694 1266 c 0
 723 1225 751 1182 782 1141 c 0
 786 1133 793 1124 799 1116 c 0
 803 1112 803 1108 803 1106 c 0
 803 1104 801 1100 797 1098 c 2
EndSplineSet
Substitution2: "smcpLowercasetoSmallCapitalslookup subtable" agrave.smcp
EndChar

StartChar: acircumflex
Encoding: 161 226 183
Width: 1056
Flags: HMW
HStem: -39 182<150 368> 743 131
VStem: 57 209<207 286> 578 205<33 232> 868 68<1085 1098>
LayerCount: 2
Fore
SplineSet
965 299 m 1
 1012 258 l 1
 881 61 770 -39 682 -39 c 0
 621 -39 578 2 578 63 c 0
 578 118 577 119 651 340 c 0
 657 356 664 377 668 395 c 1
 584 274 561 241 510 178 c 0
 406 45 282 -39 190 -39 c 0
 108 -39 57 27 57 129 c 0
 57 442 467 874 764 874 c 0
 784 874 805 872 850 864 c 1
 911 950 918 954 969 954 c 0
 1016 954 1042 946 1042 934 c 0
 1042 930 1040 917 1036 911 c 2
 901 575 l 2
 821 374 782 256 782 209 c 0
 782 178 799 156 819 156 c 0
 848 156 869 174 965 299 c 1
676 743 m 0
 604 747 496 677 406 573 c 0
 322 471 266 342 266 240 c 0
 266 174 289 143 334 143 c 0
 402 143 465 205 582 383 c 0
 678 524 750 657 750 690 c 0
 750 721 721 741 676 743 c 0
868 1085 m 2
 803 1214 l 2
 764 1294 760 1302 750 1339 c 0
 750 1343 743 1368 737 1401 c 1
 694 1348 666 1313 643 1288 c 2
 477 1126 l 1
 432 1081 l 2
 420 1067 414 1063 408 1063 c 0
 404 1063 399 1065 395 1067 c 2
 371 1087 l 2
 367 1091 365 1096 365 1100 c 0
 365 1104 367 1110 371 1116 c 2
 381 1130 l 1
 588 1458 l 2
 656 1564 693 1595 752 1595 c 0
 830 1595 877 1534 893 1407 c 2
 936 1102 l 1
 936 1098 l 2
 936 1090 932 1083 924 1079 c 2
 903 1067 l 2
 897 1065 893 1063 889 1063 c 0
 883 1063 874 1071 868 1085 c 2
EndSplineSet
Substitution2: "smcpLowercasetoSmallCapitalslookup subtable" acircumflex.smcp
EndChar

StartChar: atilde
Encoding: 162 227 184
Width: 1056
Flags: HW
HStem: -39 182<150 368> 743 131 1094 172<781 783> 1262 172<552 561> 1378 41G<933 939>
VStem: 57 209<207 286> 578 205<33 232>
LayerCount: 2
Fore
SplineSet
965 299 m 1xc6
 1012 258 l 1
 881 61 770 -39 682 -39 c 0
 621 -39 578 2 578 63 c 0
 578 118 577 119 651 340 c 0
 657 356 664 377 668 395 c 1
 584 274 561 241 510 178 c 0
 406 45 282 -39 190 -39 c 0
 108 -39 57 27 57 129 c 0
 57 442 467 874 764 874 c 0
 784 874 805 872 850 864 c 1
 911 950 918 954 969 954 c 0
 1016 954 1042 946 1042 934 c 0
 1042 930 1040 917 1036 911 c 2
 901 575 l 2
 821 374 782 256 782 209 c 0
 782 178 799 156 819 156 c 0
 848 156 869 174 965 299 c 1xc6
676 743 m 0
 604 747 496 677 406 573 c 0
 322 471 266 342 266 240 c 0
 266 174 289 143 334 143 c 0
 402 143 465 205 582 383 c 0
 678 524 750 657 750 690 c 0
 750 721 721 741 676 743 c 0
401 1114 m 1
 371 1126 l 2
 367 1128 362 1135 362 1143 c 0
 362 1168 393 1250 428 1313 c 0
 467 1387 527 1434 578 1434 c 0xd6
 629 1434 666 1403 729 1315 c 0
 752 1280 773 1266 791 1266 c 0
 830 1266 860 1299 915 1401 c 0
 923 1413 930 1419 936 1419 c 0
 942 1419 948 1417 952 1415 c 2
 977 1405 l 2
 983 1403 985 1399 985 1391 c 0
 985 1364 948 1273 913 1214 c 0
 868 1140 809 1094 758 1094 c 0xee
 711 1094 674 1122 627 1200 c 0
 598 1245 576 1262 547 1262 c 0xd6
 510 1262 474 1224 449 1163 c 0
 431 1122 426 1116 401 1114 c 1
EndSplineSet
Substitution2: "smcpLowercasetoSmallCapitalslookup subtable" atilde.smcp
EndChar

StartChar: aring
Encoding: 164 229 185
Width: 1056
Flags: HW
HStem: -39 182<141 359> 743 131 1038 96<817 883 817 909> 1370 96<819 884>
VStem: 49 209<207 286> 569 205<33 232> 637 96<1221 1285 1221 1313> 969 96<1220 1285>
LayerCount: 2
Fore
SplineSet
956 299 m 1xfd
 1004 258 l 1
 873 61 762 -39 674 -39 c 0
 613 -39 569 2 569 63 c 0
 569 118 569 119 643 340 c 0
 649 356 655 377 659 395 c 1
 575 274 553 241 502 178 c 0
 398 45 274 -39 182 -39 c 0
 100 -39 49 27 49 129 c 0
 49 442 459 874 756 874 c 0
 776 874 797 872 842 864 c 1
 903 950 910 954 961 954 c 0
 1008 954 1034 946 1034 934 c 0
 1034 930 1032 917 1028 911 c 2
 893 575 l 2
 813 374 774 256 774 209 c 0
 774 178 791 156 811 156 c 0
 840 156 860 174 956 299 c 1xfd
668 743 m 0
 596 747 487 677 397 573 c 0
 313 471 258 342 258 240 c 0
 258 174 281 143 326 143 c 0
 394 143 456 205 573 383 c 0
 669 524 741 657 741 690 c 0
 741 721 713 741 668 743 c 0
850 1466 m 0
 969 1466 1065 1370 1065 1253 c 0
 1065 1132 969 1038 850 1038 c 0
 731 1038 637 1134 637 1255 c 0xfb
 637 1370 735 1466 850 1466 c 0
852 1370 m 0
 786 1370 733 1316 733 1253 c 0
 733 1187 784 1135 850 1135 c 0
 916 1135 969 1185 969 1253 c 0
 969 1316 915 1370 852 1370 c 0
EndSplineSet
Substitution2: "smcpLowercasetoSmallCapitalslookup subtable" aring.smcp
EndChar

StartChar: ccedilla
Encoding: 166 231 186
Width: 868
Flags: HMW
HStem: -373 78<308 345 308 345> 844 80<525 612>
VStem: 70 221<259 457 259 458> 412 129<-242 -201> 672 223<705 768>
LayerCount: 2
Fore
SplineSet
401 -37 m 1
 383 -66 l 1
 483 -72 541 -118 541 -190 c 0
 541 -292 422 -373 268 -373 c 0
 194 -373 156 -350 156 -311 c 0
 156 -282 178 -258 205 -258 c 0
 219 -258 219 -258 264 -283 c 0
 276 -291 296 -295 319 -295 c 0
 370 -295 412 -262 412 -221 c 0
 412 -180 377 -158 309 -158 c 0
 299 -158 291 -158 285 -160 c 2
 258 -162 l 2
 244 -162 227 -156 227 -150 c 0
 227 -144 234 -138 252 -115 c 2
 322 -37 l 1
 160 -12 70 105 70 291 c 0
 70 625 338 924 635 924 c 0
 789 924 895 848 895 739 c 0
 895 669 848 623 778 623 c 0
 704 623 672 659 672 745 c 0
 672 790 670 805 662 817 c 0
 652 831 625 844 600 844 c 0
 450 844 291 582 291 332 c 0
 291 187 354 106 469 106 c 0
 555 106 615 135 713 229 c 1
 760 193 l 1
 654 43 544 -27 401 -37 c 1
EndSplineSet
Substitution2: "smcpLowercasetoSmallCapitalslookup subtable" ccedilla.smcp
EndChar

StartChar: edieresis
Encoding: 170 235 187
Width: 868
Flags: HW
HStem: -39 131<409 449> 844 80<566 620> 1133 270<398 461 787 850>
VStem: 68 223<237 315 237 358> 311 233<1230 1305> 688 186<698 750> 700 233<1230 1305>
LayerCount: 2
Fore
SplineSet
700 213 m 1xfa
 743 176 l 1
 620 16 527 -39 371 -39 c 0
 181 -39 68 75 68 270 c 0
 68 446 143 627 274 762 c 0
 378 871 498 924 635 924 c 0
 780 924 874 850 874 735 c 0xfc
 874 635 803 544 672 483 c 0
 588 444 463 417 303 403 c 1
 293 354 291 332 291 299 c 0
 291 174 359 92 459 92 c 0
 539 92 610 127 700 213 c 1xfa
313 485 m 1
 383 489 436 500 483 516 c 0
 600 559 688 655 688 741 c 0
 688 757 682 778 666 811 c 0
 654 831 633 844 606 844 c 0
 510 844 393 702 313 485 c 1
432 1403 m 0
 498 1403 545 1348 545 1270 c 0
 545 1190 496 1133 426 1133 c 0
 358 1133 311 1188 311 1266 c 0
 311 1344 364 1403 432 1403 c 0
821 1403 m 0
 887 1403 934 1348 934 1270 c 0
 934 1190 885 1133 815 1133 c 0
 747 1133 700 1188 700 1266 c 0xfa
 700 1344 753 1403 821 1403 c 0
EndSplineSet
Substitution2: "smcpLowercasetoSmallCapitalslookup subtable" edieresis.smcp
EndChar

StartChar: eacute
Encoding: 168 233 188
Width: 868
Flags: HMW
HStem: -39 131<409 449> 844 80<566 620>
VStem: 68 223<237 315 237 358> 688 186<698 750>
LayerCount: 2
Fore
SplineSet
700 213 m 1
 743 176 l 1
 620 16 527 -39 371 -39 c 0
 181 -39 68 75 68 270 c 0
 68 446 143 627 274 762 c 0
 378 871 498 924 635 924 c 0
 780 924 874 850 874 735 c 0
 874 635 803 544 672 483 c 0
 588 444 463 417 303 403 c 1
 293 354 291 332 291 299 c 0
 291 174 359 92 459 92 c 0
 539 92 610 127 700 213 c 1
313 485 m 1
 383 489 436 500 483 516 c 0
 600 559 688 655 688 741 c 0
 688 757 682 778 666 811 c 0
 654 831 633 844 606 844 c 0
 510 844 393 702 313 485 c 1
528 1073 m 2
 502 1098 l 2
 498 1100 496 1104 496 1108 c 0
 496 1110 496 1112 516 1141 c 0
 606 1268 612 1276 698 1421 c 0
 745 1501 787 1530 848 1530 c 0
 903 1530 946 1499 946 1458 c 0
 946 1419 914 1374 844 1317 c 0
 738 1227 648 1147 578 1077 c 0
 568 1067 559 1063 553 1063 c 0
 545 1063 536 1067 528 1073 c 2
EndSplineSet
Substitution2: "smcpLowercasetoSmallCapitalslookup subtable" eacute.smcp
EndChar

StartChar: egrave
Encoding: 167 232 189
Width: 868
Flags: HMW
HStem: -39 131<409 449> 844 80<566 620>
VStem: 68 223<237 315 237 358> 688 186<698 750>
LayerCount: 2
Fore
SplineSet
700 213 m 1
 743 176 l 1
 620 16 527 -39 371 -39 c 0
 181 -39 68 75 68 270 c 0
 68 446 143 627 274 762 c 0
 378 871 498 924 635 924 c 0
 780 924 874 850 874 735 c 0
 874 635 803 544 672 483 c 0
 588 444 463 417 303 403 c 1
 293 354 291 332 291 299 c 0
 291 174 359 92 459 92 c 0
 539 92 610 127 700 213 c 1
313 485 m 1
 383 489 436 500 483 516 c 0
 600 559 688 655 688 741 c 0
 688 757 682 778 666 811 c 0
 654 831 633 844 606 844 c 0
 510 844 393 702 313 485 c 1
702 1098 m 2
 676 1073 l 2
 670 1067 659 1063 653 1063 c 0
 645 1063 639 1067 629 1077 c 0
 561 1143 456 1237 360 1317 c 0
 290 1374 258 1419 258 1458 c 0
 258 1499 301 1530 356 1530 c 0
 419 1530 459 1501 506 1421 c 0
 590 1282 602 1262 690 1141 c 0
 708 1112 711 1110 711 1108 c 0
 711 1104 708 1102 702 1098 c 2
EndSplineSet
Substitution2: "smcpLowercasetoSmallCapitalslookup subtable" egrave.smcp
EndChar

StartChar: ecircumflex
Encoding: 169 234 190
Width: 868
Flags: HW
HStem: -39 131<409 449> 844 80<566 620>
VStem: 68 223<237 315 237 358> 688 186<698 750> 774 68<1085 1102>
LayerCount: 2
Fore
SplineSet
700 213 m 1xf0
 743 176 l 1
 620 16 527 -39 371 -39 c 0
 181 -39 68 75 68 270 c 0
 68 446 143 627 274 762 c 0
 378 871 498 924 635 924 c 0
 780 924 874 850 874 735 c 0
 874 635 803 544 672 483 c 0
 588 444 463 417 303 403 c 1
 293 354 291 332 291 299 c 0
 291 174 359 92 459 92 c 0
 539 92 610 127 700 213 c 1xf0
313 485 m 1
 383 489 436 500 483 516 c 0
 600 559 688 655 688 741 c 0
 688 757 682 778 666 811 c 0
 654 831 633 844 606 844 c 0
 510 844 393 702 313 485 c 1
774 1085 m 2xe8
 709 1214 l 2
 670 1294 665 1304 657 1339 c 0
 655 1347 649 1370 643 1401 c 1
 606 1354 572 1311 549 1288 c 2
 383 1126 l 2
 369 1112 354 1095 338 1081 c 0
 328 1067 319 1063 313 1063 c 0
 309 1063 305 1065 303 1067 c 2
 276 1087 l 2
 272 1091 270 1096 270 1100 c 0
 270 1104 273 1110 279 1116 c 2
 287 1130 l 1
 494 1458 l 2
 562 1564 598 1595 659 1595 c 0
 737 1595 783 1534 801 1407 c 2
 842 1102 l 2
 842 1088 839 1085 829 1079 c 2
 809 1067 l 2
 803 1065 799 1063 797 1063 c 0
 791 1063 782 1071 774 1085 c 2xe8
EndSplineSet
Substitution2: "smcpLowercasetoSmallCapitalslookup subtable" ecircumflex.smcp
EndChar

StartChar: idieresis
Encoding: 174 239 191
Width: 641
Flags: HW
HStem: -39 170<188 385> 739 184<259 470> 1133 270<284 346 675 737>
VStem: 197 233<1230 1305> 311 231<690 849> 588 233<1230 1305>
LayerCount: 2
Fore
SplineSet
537 287 m 1xec
 588 246 l 1
 449 58 325 -39 223 -39 c 0
 153 -39 104 7 104 68 c 0
 104 115 121 168 223 436 c 0
 284 596 311 680 311 700 c 0
 311 723 294 739 274 739 c 0
 243 739 209 715 137 639 c 0
 133 635 129 633 125 633 c 0
 123 633 121 635 113 641 c 2
 94 659 l 2
 88 665 86 670 86 674 c 0
 86 678 93 688 111 711 c 0
 217 836 350 924 436 924 c 0
 504 924 543 883 543 815 c 0
 543 743 502 622 375 319 c 0
 344 245 328 196 328 178 c 0
 328 151 346 131 369 131 c 0
 402 131 433 160 537 287 c 1xec
317 1403 m 0
 383 1403 430 1348 430 1270 c 0xf4
 430 1190 381 1133 311 1133 c 0xec
 243 1133 197 1188 197 1266 c 0xf4
 197 1344 249 1403 317 1403 c 0
709 1403 m 0
 775 1403 821 1348 821 1270 c 0
 821 1190 772 1133 702 1133 c 0
 634 1133 588 1188 588 1266 c 0
 588 1344 641 1403 709 1403 c 0
EndSplineSet
Substitution2: "smcpLowercasetoSmallCapitalslookup subtable" idieresis.smcp
EndChar

StartChar: iacute
Encoding: 172 237 192
Width: 641
Flags: HMW
HStem: -39 170<188 385> 739 184<259 470>
VStem: 311 231<690 849>
LayerCount: 2
Fore
SplineSet
537 287 m 1
 588 246 l 1
 449 58 325 -39 223 -39 c 0
 153 -39 104 7 104 68 c 0
 104 115 121 168 223 436 c 0
 284 596 311 680 311 700 c 0
 311 723 294 739 274 739 c 0
 243 739 209 715 137 639 c 0
 133 635 129 633 125 633 c 0
 123 633 121 635 113 641 c 2
 94 659 l 2
 88 665 86 670 86 674 c 0
 86 678 93 688 111 711 c 0
 217 836 350 924 436 924 c 0
 504 924 543 883 543 815 c 0
 543 743 502 622 375 319 c 0
 344 245 328 196 328 178 c 0
 328 151 346 131 369 131 c 0
 402 131 433 160 537 287 c 1
416 1073 m 2
 389 1098 l 2
 385 1100 383 1104 383 1108 c 0
 383 1110 383 1112 403 1141 c 0
 493 1268 502 1278 586 1421 c 0
 633 1501 674 1530 735 1530 c 0
 790 1530 834 1499 834 1458 c 0
 834 1419 801 1374 731 1317 c 0
 631 1231 531 1140 465 1077 c 0
 453 1067 446 1063 440 1063 c 0
 432 1063 422 1067 416 1073 c 2
EndSplineSet
Substitution2: "smcpLowercasetoSmallCapitalslookup subtable" iacute.smcp
EndChar

